G04 #@! TF.GenerationSoftware,KiCad,Pcbnew,8.0.1*
G04 #@! TF.CreationDate,2024-05-29T02:23:11-05:00*
G04 #@! TF.ProjectId,dsi_esp,6473695f-6573-4702-9e6b-696361645f70,1.0*
G04 #@! TF.SameCoordinates,Original*
G04 #@! TF.FileFunction,Soldermask,Top*
G04 #@! TF.FilePolarity,Negative*
%FSLAX46Y46*%
G04 Gerber Fmt 4.6, Leading zero omitted, Abs format (unit mm)*
G04 Created by KiCad (PCBNEW 8.0.1) date 2024-05-29 02:23:11*
%MOMM*%
%LPD*%
G01*
G04 APERTURE LIST*
G04 APERTURE END LIST*
G36*
X117900000Y-99307900D02*
G01*
X116900000Y-99307900D01*
X116900000Y-94307900D01*
X117900000Y-94307900D01*
X117900000Y-99307900D01*
G37*
G36*
X141900000Y-99307900D02*
G01*
X140900000Y-99307900D01*
X140900000Y-94307900D01*
X141900000Y-94307900D01*
X141900000Y-99307900D01*
G37*
G36*
X128400000Y-98807900D02*
G01*
X127400000Y-98807900D01*
X127400000Y-94307900D01*
X128400000Y-94307900D01*
X128400000Y-98807900D01*
G37*
G36*
X119400000Y-98107900D02*
G01*
X118400000Y-98107900D01*
X118400000Y-94307900D01*
X119400000Y-94307900D01*
X119400000Y-98107900D01*
G37*
G36*
X120900000Y-98107900D02*
G01*
X119900000Y-98107900D01*
X119900000Y-94307900D01*
X120900000Y-94307900D01*
X120900000Y-98107900D01*
G37*
G36*
X122400000Y-98107900D02*
G01*
X121400000Y-98107900D01*
X121400000Y-94307900D01*
X122400000Y-94307900D01*
X122400000Y-98107900D01*
G37*
G36*
X123900000Y-98107900D02*
G01*
X122900000Y-98107900D01*
X122900000Y-94307900D01*
X123900000Y-94307900D01*
X123900000Y-98107900D01*
G37*
G36*
X125400000Y-98107900D02*
G01*
X124400000Y-98107900D01*
X124400000Y-94307900D01*
X125400000Y-94307900D01*
X125400000Y-98107900D01*
G37*
G36*
X126900000Y-98107900D02*
G01*
X125900000Y-98107900D01*
X125900000Y-94307900D01*
X126900000Y-94307900D01*
X126900000Y-98107900D01*
G37*
G36*
X129900000Y-98107900D02*
G01*
X128900000Y-98107900D01*
X128900000Y-94307900D01*
X129900000Y-94307900D01*
X129900000Y-98107900D01*
G37*
G36*
X131400000Y-98107900D02*
G01*
X130400000Y-98107900D01*
X130400000Y-94307900D01*
X131400000Y-94307900D01*
X131400000Y-98107900D01*
G37*
G36*
X132900000Y-98107900D02*
G01*
X131900000Y-98107900D01*
X131900000Y-94307900D01*
X132900000Y-94307900D01*
X132900000Y-98107900D01*
G37*
G36*
X134400000Y-98107900D02*
G01*
X133400000Y-98107900D01*
X133400000Y-94307900D01*
X134400000Y-94307900D01*
X134400000Y-98107900D01*
G37*
G36*
X135900000Y-98107900D02*
G01*
X134900000Y-98107900D01*
X134900000Y-94307900D01*
X135900000Y-94307900D01*
X135900000Y-98107900D01*
G37*
G36*
X137400000Y-98107900D02*
G01*
X136400000Y-98107900D01*
X136400000Y-94307900D01*
X137400000Y-94307900D01*
X137400000Y-98107900D01*
G37*
G36*
X138900000Y-98107900D02*
G01*
X137900000Y-98107900D01*
X137900000Y-94307900D01*
X138900000Y-94307900D01*
X138900000Y-98107900D01*
G37*
G36*
X140400000Y-98107900D02*
G01*
X139400000Y-98107900D01*
X139400000Y-94307900D01*
X140400000Y-94307900D01*
X140400000Y-98107900D01*
G37*
G36*
X126270523Y-62463576D02*
G01*
X126316037Y-62463576D01*
X126366723Y-62473050D01*
X126423167Y-62478610D01*
X126466046Y-62491617D01*
X126504850Y-62498871D01*
X126558597Y-62519692D01*
X126618527Y-62537872D01*
X126652764Y-62556172D01*
X126683951Y-62568254D01*
X126738140Y-62601807D01*
X126798571Y-62634108D01*
X126823962Y-62654946D01*
X126847259Y-62669371D01*
X126898876Y-62716426D01*
X126956381Y-62763619D01*
X126973421Y-62784382D01*
X126989209Y-62798775D01*
X127035042Y-62859468D01*
X127085892Y-62921429D01*
X127095725Y-62939826D01*
X127104961Y-62952056D01*
X127141700Y-63025839D01*
X127182128Y-63101473D01*
X127186440Y-63115687D01*
X127190577Y-63123996D01*
X127215017Y-63209894D01*
X127241390Y-63296833D01*
X127242256Y-63305628D01*
X127243141Y-63308738D01*
X127252340Y-63408013D01*
X127261400Y-63500000D01*
X127252339Y-63591994D01*
X127243141Y-63691261D01*
X127242256Y-63694369D01*
X127241390Y-63703167D01*
X127215012Y-63790120D01*
X127190577Y-63876003D01*
X127186440Y-63884309D01*
X127182128Y-63898527D01*
X127141693Y-63974174D01*
X127104961Y-64047943D01*
X127095727Y-64060170D01*
X127085892Y-64078571D01*
X127035032Y-64140543D01*
X126989209Y-64201224D01*
X126973424Y-64215613D01*
X126956381Y-64236381D01*
X126898865Y-64283582D01*
X126847259Y-64330628D01*
X126823967Y-64345049D01*
X126798571Y-64365892D01*
X126738128Y-64398199D01*
X126683951Y-64431745D01*
X126652771Y-64443823D01*
X126618527Y-64462128D01*
X126558585Y-64480311D01*
X126504850Y-64501128D01*
X126466053Y-64508380D01*
X126423167Y-64521390D01*
X126366720Y-64526949D01*
X126316037Y-64536424D01*
X126270523Y-64536424D01*
X126220000Y-64541400D01*
X126169477Y-64536424D01*
X126123963Y-64536424D01*
X126073279Y-64526949D01*
X126016833Y-64521390D01*
X125973947Y-64508380D01*
X125935149Y-64501128D01*
X125881410Y-64480309D01*
X125821473Y-64462128D01*
X125787230Y-64443825D01*
X125756048Y-64431745D01*
X125701863Y-64398195D01*
X125641429Y-64365892D01*
X125616035Y-64345051D01*
X125592740Y-64330628D01*
X125541124Y-64283574D01*
X125483619Y-64236381D01*
X125466578Y-64215617D01*
X125450790Y-64201224D01*
X125404954Y-64140528D01*
X125354108Y-64078571D01*
X125344274Y-64060174D01*
X125335038Y-64047943D01*
X125298291Y-63974147D01*
X125257872Y-63898527D01*
X125253560Y-63884314D01*
X125249422Y-63876003D01*
X125224971Y-63790067D01*
X125198610Y-63703167D01*
X125197744Y-63694375D01*
X125196858Y-63691261D01*
X125187643Y-63591822D01*
X125178600Y-63500000D01*
X125187642Y-63408185D01*
X125196858Y-63308738D01*
X125197744Y-63305623D01*
X125198610Y-63296833D01*
X125224966Y-63209947D01*
X125249422Y-63123996D01*
X125253561Y-63115682D01*
X125257872Y-63101473D01*
X125298284Y-63025866D01*
X125335038Y-62952056D01*
X125344276Y-62939821D01*
X125354108Y-62921429D01*
X125404945Y-62859483D01*
X125450790Y-62798775D01*
X125466581Y-62784378D01*
X125483619Y-62763619D01*
X125541113Y-62716434D01*
X125592740Y-62669371D01*
X125616040Y-62654943D01*
X125641429Y-62634108D01*
X125701851Y-62601811D01*
X125756048Y-62568254D01*
X125787237Y-62556171D01*
X125821473Y-62537872D01*
X125881398Y-62519693D01*
X125935149Y-62498871D01*
X125973954Y-62491617D01*
X126016833Y-62478610D01*
X126073276Y-62473050D01*
X126123963Y-62463576D01*
X126169477Y-62463576D01*
X126220000Y-62458600D01*
X126270523Y-62463576D01*
G37*
G36*
X128810523Y-62463576D02*
G01*
X128856037Y-62463576D01*
X128906723Y-62473050D01*
X128963167Y-62478610D01*
X129006046Y-62491617D01*
X129044850Y-62498871D01*
X129098597Y-62519692D01*
X129158527Y-62537872D01*
X129192764Y-62556172D01*
X129223951Y-62568254D01*
X129278140Y-62601807D01*
X129338571Y-62634108D01*
X129363962Y-62654946D01*
X129387259Y-62669371D01*
X129438876Y-62716426D01*
X129496381Y-62763619D01*
X129513421Y-62784382D01*
X129529209Y-62798775D01*
X129575042Y-62859468D01*
X129625892Y-62921429D01*
X129635725Y-62939826D01*
X129644961Y-62952056D01*
X129681700Y-63025839D01*
X129722128Y-63101473D01*
X129726440Y-63115687D01*
X129730577Y-63123996D01*
X129755017Y-63209894D01*
X129781390Y-63296833D01*
X129782256Y-63305628D01*
X129783141Y-63308738D01*
X129792340Y-63408013D01*
X129801400Y-63500000D01*
X129792339Y-63591994D01*
X129783141Y-63691261D01*
X129782256Y-63694369D01*
X129781390Y-63703167D01*
X129755012Y-63790120D01*
X129730577Y-63876003D01*
X129726440Y-63884309D01*
X129722128Y-63898527D01*
X129681693Y-63974174D01*
X129644961Y-64047943D01*
X129635727Y-64060170D01*
X129625892Y-64078571D01*
X129575032Y-64140543D01*
X129529209Y-64201224D01*
X129513424Y-64215613D01*
X129496381Y-64236381D01*
X129438865Y-64283582D01*
X129387259Y-64330628D01*
X129363967Y-64345049D01*
X129338571Y-64365892D01*
X129278128Y-64398199D01*
X129223951Y-64431745D01*
X129192771Y-64443823D01*
X129158527Y-64462128D01*
X129098585Y-64480311D01*
X129044850Y-64501128D01*
X129006053Y-64508380D01*
X128963167Y-64521390D01*
X128906720Y-64526949D01*
X128856037Y-64536424D01*
X128810523Y-64536424D01*
X128760000Y-64541400D01*
X128709477Y-64536424D01*
X128663963Y-64536424D01*
X128613279Y-64526949D01*
X128556833Y-64521390D01*
X128513947Y-64508380D01*
X128475149Y-64501128D01*
X128421410Y-64480309D01*
X128361473Y-64462128D01*
X128327230Y-64443825D01*
X128296048Y-64431745D01*
X128241863Y-64398195D01*
X128181429Y-64365892D01*
X128156035Y-64345051D01*
X128132740Y-64330628D01*
X128081124Y-64283574D01*
X128023619Y-64236381D01*
X128006578Y-64215617D01*
X127990790Y-64201224D01*
X127944954Y-64140528D01*
X127894108Y-64078571D01*
X127884274Y-64060174D01*
X127875038Y-64047943D01*
X127838291Y-63974147D01*
X127797872Y-63898527D01*
X127793560Y-63884314D01*
X127789422Y-63876003D01*
X127764971Y-63790067D01*
X127738610Y-63703167D01*
X127737744Y-63694375D01*
X127736858Y-63691261D01*
X127727643Y-63591822D01*
X127718600Y-63500000D01*
X127727642Y-63408185D01*
X127736858Y-63308738D01*
X127737744Y-63305623D01*
X127738610Y-63296833D01*
X127764966Y-63209947D01*
X127789422Y-63123996D01*
X127793561Y-63115682D01*
X127797872Y-63101473D01*
X127838284Y-63025866D01*
X127875038Y-62952056D01*
X127884276Y-62939821D01*
X127894108Y-62921429D01*
X127944945Y-62859483D01*
X127990790Y-62798775D01*
X128006581Y-62784378D01*
X128023619Y-62763619D01*
X128081113Y-62716434D01*
X128132740Y-62669371D01*
X128156040Y-62654943D01*
X128181429Y-62634108D01*
X128241851Y-62601811D01*
X128296048Y-62568254D01*
X128327237Y-62556171D01*
X128361473Y-62537872D01*
X128421398Y-62519693D01*
X128475149Y-62498871D01*
X128513954Y-62491617D01*
X128556833Y-62478610D01*
X128613276Y-62473050D01*
X128663963Y-62463576D01*
X128709477Y-62463576D01*
X128760000Y-62458600D01*
X128810523Y-62463576D01*
G37*
G36*
X131350523Y-62463576D02*
G01*
X131396037Y-62463576D01*
X131446723Y-62473050D01*
X131503167Y-62478610D01*
X131546046Y-62491617D01*
X131584850Y-62498871D01*
X131638597Y-62519692D01*
X131698527Y-62537872D01*
X131732764Y-62556172D01*
X131763951Y-62568254D01*
X131818140Y-62601807D01*
X131878571Y-62634108D01*
X131903962Y-62654946D01*
X131927259Y-62669371D01*
X131978876Y-62716426D01*
X132036381Y-62763619D01*
X132053421Y-62784382D01*
X132069209Y-62798775D01*
X132115042Y-62859468D01*
X132165892Y-62921429D01*
X132175725Y-62939826D01*
X132184961Y-62952056D01*
X132221700Y-63025839D01*
X132262128Y-63101473D01*
X132266440Y-63115687D01*
X132270577Y-63123996D01*
X132295017Y-63209894D01*
X132321390Y-63296833D01*
X132322256Y-63305628D01*
X132323141Y-63308738D01*
X132332340Y-63408013D01*
X132341400Y-63500000D01*
X132332339Y-63591994D01*
X132323141Y-63691261D01*
X132322256Y-63694369D01*
X132321390Y-63703167D01*
X132295012Y-63790120D01*
X132270577Y-63876003D01*
X132266440Y-63884309D01*
X132262128Y-63898527D01*
X132221693Y-63974174D01*
X132184961Y-64047943D01*
X132175727Y-64060170D01*
X132165892Y-64078571D01*
X132115032Y-64140543D01*
X132069209Y-64201224D01*
X132053424Y-64215613D01*
X132036381Y-64236381D01*
X131978865Y-64283582D01*
X131927259Y-64330628D01*
X131903967Y-64345049D01*
X131878571Y-64365892D01*
X131818128Y-64398199D01*
X131763951Y-64431745D01*
X131732771Y-64443823D01*
X131698527Y-64462128D01*
X131638585Y-64480311D01*
X131584850Y-64501128D01*
X131546053Y-64508380D01*
X131503167Y-64521390D01*
X131446720Y-64526949D01*
X131396037Y-64536424D01*
X131350523Y-64536424D01*
X131300000Y-64541400D01*
X131249477Y-64536424D01*
X131203963Y-64536424D01*
X131153279Y-64526949D01*
X131096833Y-64521390D01*
X131053947Y-64508380D01*
X131015149Y-64501128D01*
X130961410Y-64480309D01*
X130901473Y-64462128D01*
X130867230Y-64443825D01*
X130836048Y-64431745D01*
X130781863Y-64398195D01*
X130721429Y-64365892D01*
X130696035Y-64345051D01*
X130672740Y-64330628D01*
X130621124Y-64283574D01*
X130563619Y-64236381D01*
X130546578Y-64215617D01*
X130530790Y-64201224D01*
X130484954Y-64140528D01*
X130434108Y-64078571D01*
X130424274Y-64060174D01*
X130415038Y-64047943D01*
X130378291Y-63974147D01*
X130337872Y-63898527D01*
X130333560Y-63884314D01*
X130329422Y-63876003D01*
X130304971Y-63790067D01*
X130278610Y-63703167D01*
X130277744Y-63694375D01*
X130276858Y-63691261D01*
X130267643Y-63591822D01*
X130258600Y-63500000D01*
X130267642Y-63408185D01*
X130276858Y-63308738D01*
X130277744Y-63305623D01*
X130278610Y-63296833D01*
X130304966Y-63209947D01*
X130329422Y-63123996D01*
X130333561Y-63115682D01*
X130337872Y-63101473D01*
X130378284Y-63025866D01*
X130415038Y-62952056D01*
X130424276Y-62939821D01*
X130434108Y-62921429D01*
X130484945Y-62859483D01*
X130530790Y-62798775D01*
X130546581Y-62784378D01*
X130563619Y-62763619D01*
X130621113Y-62716434D01*
X130672740Y-62669371D01*
X130696040Y-62654943D01*
X130721429Y-62634108D01*
X130781851Y-62601811D01*
X130836048Y-62568254D01*
X130867237Y-62556171D01*
X130901473Y-62537872D01*
X130961398Y-62519693D01*
X131015149Y-62498871D01*
X131053954Y-62491617D01*
X131096833Y-62478610D01*
X131153276Y-62473050D01*
X131203963Y-62463576D01*
X131249477Y-62463576D01*
X131300000Y-62458600D01*
X131350523Y-62463576D01*
G37*
G36*
X133890523Y-62463576D02*
G01*
X133936037Y-62463576D01*
X133986723Y-62473050D01*
X134043167Y-62478610D01*
X134086046Y-62491617D01*
X134124850Y-62498871D01*
X134178597Y-62519692D01*
X134238527Y-62537872D01*
X134272764Y-62556172D01*
X134303951Y-62568254D01*
X134358140Y-62601807D01*
X134418571Y-62634108D01*
X134443962Y-62654946D01*
X134467259Y-62669371D01*
X134518876Y-62716426D01*
X134576381Y-62763619D01*
X134593421Y-62784382D01*
X134609209Y-62798775D01*
X134655042Y-62859468D01*
X134705892Y-62921429D01*
X134715725Y-62939826D01*
X134724961Y-62952056D01*
X134761700Y-63025839D01*
X134802128Y-63101473D01*
X134806440Y-63115687D01*
X134810577Y-63123996D01*
X134835017Y-63209894D01*
X134861390Y-63296833D01*
X134862256Y-63305628D01*
X134863141Y-63308738D01*
X134872340Y-63408013D01*
X134881400Y-63500000D01*
X134872339Y-63591994D01*
X134863141Y-63691261D01*
X134862256Y-63694369D01*
X134861390Y-63703167D01*
X134835012Y-63790120D01*
X134810577Y-63876003D01*
X134806440Y-63884309D01*
X134802128Y-63898527D01*
X134761693Y-63974174D01*
X134724961Y-64047943D01*
X134715727Y-64060170D01*
X134705892Y-64078571D01*
X134655032Y-64140543D01*
X134609209Y-64201224D01*
X134593424Y-64215613D01*
X134576381Y-64236381D01*
X134518865Y-64283582D01*
X134467259Y-64330628D01*
X134443967Y-64345049D01*
X134418571Y-64365892D01*
X134358128Y-64398199D01*
X134303951Y-64431745D01*
X134272771Y-64443823D01*
X134238527Y-64462128D01*
X134178585Y-64480311D01*
X134124850Y-64501128D01*
X134086053Y-64508380D01*
X134043167Y-64521390D01*
X133986720Y-64526949D01*
X133936037Y-64536424D01*
X133890523Y-64536424D01*
X133840000Y-64541400D01*
X133789477Y-64536424D01*
X133743963Y-64536424D01*
X133693279Y-64526949D01*
X133636833Y-64521390D01*
X133593947Y-64508380D01*
X133555149Y-64501128D01*
X133501410Y-64480309D01*
X133441473Y-64462128D01*
X133407230Y-64443825D01*
X133376048Y-64431745D01*
X133321863Y-64398195D01*
X133261429Y-64365892D01*
X133236035Y-64345051D01*
X133212740Y-64330628D01*
X133161124Y-64283574D01*
X133103619Y-64236381D01*
X133086578Y-64215617D01*
X133070790Y-64201224D01*
X133024954Y-64140528D01*
X132974108Y-64078571D01*
X132964274Y-64060174D01*
X132955038Y-64047943D01*
X132918291Y-63974147D01*
X132877872Y-63898527D01*
X132873560Y-63884314D01*
X132869422Y-63876003D01*
X132844971Y-63790067D01*
X132818610Y-63703167D01*
X132817744Y-63694375D01*
X132816858Y-63691261D01*
X132807643Y-63591822D01*
X132798600Y-63500000D01*
X132807642Y-63408185D01*
X132816858Y-63308738D01*
X132817744Y-63305623D01*
X132818610Y-63296833D01*
X132844966Y-63209947D01*
X132869422Y-63123996D01*
X132873561Y-63115682D01*
X132877872Y-63101473D01*
X132918284Y-63025866D01*
X132955038Y-62952056D01*
X132964276Y-62939821D01*
X132974108Y-62921429D01*
X133024945Y-62859483D01*
X133070790Y-62798775D01*
X133086581Y-62784378D01*
X133103619Y-62763619D01*
X133161113Y-62716434D01*
X133212740Y-62669371D01*
X133236040Y-62654943D01*
X133261429Y-62634108D01*
X133321851Y-62601811D01*
X133376048Y-62568254D01*
X133407237Y-62556171D01*
X133441473Y-62537872D01*
X133501398Y-62519693D01*
X133555149Y-62498871D01*
X133593954Y-62491617D01*
X133636833Y-62478610D01*
X133693276Y-62473050D01*
X133743963Y-62463576D01*
X133789477Y-62463576D01*
X133840000Y-62458600D01*
X133890523Y-62463576D01*
G37*
G36*
X141251619Y-59978284D02*
G01*
X141298381Y-59978284D01*
X141350458Y-59988018D01*
X141408122Y-59993698D01*
X141451926Y-60006985D01*
X141491798Y-60014439D01*
X141547020Y-60035832D01*
X141608247Y-60054405D01*
X141643229Y-60073103D01*
X141675275Y-60085518D01*
X141730957Y-60119995D01*
X141792682Y-60152988D01*
X141818617Y-60174272D01*
X141842566Y-60189101D01*
X141895625Y-60237470D01*
X141954342Y-60285658D01*
X141971742Y-60306860D01*
X141987980Y-60321663D01*
X142035122Y-60384090D01*
X142087012Y-60447318D01*
X142097046Y-60466090D01*
X142106554Y-60478681D01*
X142144372Y-60554631D01*
X142185595Y-60631753D01*
X142189992Y-60646249D01*
X142194262Y-60654824D01*
X142219488Y-60743484D01*
X142246302Y-60831878D01*
X142247182Y-60840819D01*
X142248108Y-60844072D01*
X142257735Y-60947960D01*
X142266800Y-61040000D01*
X142257734Y-61132046D01*
X142248108Y-61235927D01*
X142247182Y-61239178D01*
X142246302Y-61248122D01*
X142219483Y-61336531D01*
X142194262Y-61425175D01*
X142189993Y-61433747D01*
X142185595Y-61448247D01*
X142144365Y-61525382D01*
X142106554Y-61601318D01*
X142097048Y-61613905D01*
X142087012Y-61632682D01*
X142035113Y-61695921D01*
X141987980Y-61758336D01*
X141971745Y-61773135D01*
X141954342Y-61794342D01*
X141895614Y-61842538D01*
X141842566Y-61890898D01*
X141818622Y-61905723D01*
X141792682Y-61927012D01*
X141730945Y-61960010D01*
X141675275Y-61994481D01*
X141643235Y-62006892D01*
X141608247Y-62025595D01*
X141547008Y-62044171D01*
X141491798Y-62065560D01*
X141451933Y-62073011D01*
X141408122Y-62086302D01*
X141350455Y-62091981D01*
X141298381Y-62101716D01*
X141251619Y-62101716D01*
X141200000Y-62106800D01*
X141148381Y-62101716D01*
X141101619Y-62101716D01*
X141049544Y-62091981D01*
X140991878Y-62086302D01*
X140948067Y-62073012D01*
X140908201Y-62065560D01*
X140852986Y-62044169D01*
X140791753Y-62025595D01*
X140756766Y-62006894D01*
X140724724Y-61994481D01*
X140669046Y-61960006D01*
X140607318Y-61927012D01*
X140581380Y-61905725D01*
X140557433Y-61890898D01*
X140504375Y-61842530D01*
X140445658Y-61794342D01*
X140428257Y-61773139D01*
X140412019Y-61758336D01*
X140364874Y-61695906D01*
X140312988Y-61632682D01*
X140302954Y-61613910D01*
X140293445Y-61601318D01*
X140255620Y-61525354D01*
X140214405Y-61448247D01*
X140210008Y-61433753D01*
X140205737Y-61425175D01*
X140180500Y-61336477D01*
X140153698Y-61248122D01*
X140152817Y-61239183D01*
X140151891Y-61235927D01*
X140142248Y-61131874D01*
X140133200Y-61040000D01*
X140142248Y-60948132D01*
X140151891Y-60844072D01*
X140152817Y-60840814D01*
X140153698Y-60831878D01*
X140180495Y-60743537D01*
X140205737Y-60654824D01*
X140210009Y-60646244D01*
X140214405Y-60631753D01*
X140255612Y-60554658D01*
X140293445Y-60478681D01*
X140302956Y-60466086D01*
X140312988Y-60447318D01*
X140364864Y-60384105D01*
X140412019Y-60321663D01*
X140428260Y-60306856D01*
X140445658Y-60285658D01*
X140504364Y-60237478D01*
X140557433Y-60189101D01*
X140581385Y-60174270D01*
X140607318Y-60152988D01*
X140669035Y-60119999D01*
X140724724Y-60085518D01*
X140756773Y-60073102D01*
X140791753Y-60054405D01*
X140852974Y-60035833D01*
X140908201Y-60014439D01*
X140948074Y-60006985D01*
X140991878Y-59993698D01*
X141049541Y-59988018D01*
X141101619Y-59978284D01*
X141148381Y-59978284D01*
X141200000Y-59973200D01*
X141251619Y-59978284D01*
G37*
G36*
X120238881Y-58006134D02*
G01*
X120271842Y-58028158D01*
X120293866Y-58061119D01*
X120301600Y-58100000D01*
X120301600Y-59300000D01*
X120293866Y-59338881D01*
X120271842Y-59371842D01*
X120238881Y-59393866D01*
X120200000Y-59401600D01*
X119400000Y-59401600D01*
X119361119Y-59393866D01*
X119328158Y-59371842D01*
X119306134Y-59338881D01*
X119298400Y-59300000D01*
X119298400Y-58100000D01*
X119306134Y-58061119D01*
X119328158Y-58028158D01*
X119361119Y-58006134D01*
X119400000Y-57998400D01*
X120200000Y-57998400D01*
X120238881Y-58006134D01*
G37*
G36*
X122038881Y-58006134D02*
G01*
X122071842Y-58028158D01*
X122093866Y-58061119D01*
X122101600Y-58100000D01*
X122101600Y-59300000D01*
X122093866Y-59338881D01*
X122071842Y-59371842D01*
X122038881Y-59393866D01*
X122000000Y-59401600D01*
X121200000Y-59401600D01*
X121161119Y-59393866D01*
X121128158Y-59371842D01*
X121106134Y-59338881D01*
X121098400Y-59300000D01*
X121098400Y-58100000D01*
X121106134Y-58061119D01*
X121128158Y-58028158D01*
X121161119Y-58006134D01*
X121200000Y-57998400D01*
X122000000Y-57998400D01*
X122038881Y-58006134D01*
G37*
G36*
X123738881Y-58006134D02*
G01*
X123771842Y-58028158D01*
X123793866Y-58061119D01*
X123801600Y-58100000D01*
X123801600Y-59300000D01*
X123793866Y-59338881D01*
X123771842Y-59371842D01*
X123738881Y-59393866D01*
X123700000Y-59401600D01*
X122900000Y-59401600D01*
X122861119Y-59393866D01*
X122828158Y-59371842D01*
X122806134Y-59338881D01*
X122798400Y-59300000D01*
X122798400Y-58100000D01*
X122806134Y-58061119D01*
X122828158Y-58028158D01*
X122861119Y-58006134D01*
X122900000Y-57998400D01*
X123700000Y-57998400D01*
X123738881Y-58006134D01*
G37*
G36*
X125538881Y-58006134D02*
G01*
X125571842Y-58028158D01*
X125593866Y-58061119D01*
X125601600Y-58100000D01*
X125601600Y-59300000D01*
X125593866Y-59338881D01*
X125571842Y-59371842D01*
X125538881Y-59393866D01*
X125500000Y-59401600D01*
X124700000Y-59401600D01*
X124661119Y-59393866D01*
X124628158Y-59371842D01*
X124606134Y-59338881D01*
X124598400Y-59300000D01*
X124598400Y-58100000D01*
X124606134Y-58061119D01*
X124628158Y-58028158D01*
X124661119Y-58006134D01*
X124700000Y-57998400D01*
X125500000Y-57998400D01*
X125538881Y-58006134D01*
G37*
G36*
X141251619Y-54898284D02*
G01*
X141298381Y-54898284D01*
X141350458Y-54908018D01*
X141408122Y-54913698D01*
X141451926Y-54926985D01*
X141491798Y-54934439D01*
X141547020Y-54955832D01*
X141608247Y-54974405D01*
X141643229Y-54993103D01*
X141675275Y-55005518D01*
X141730957Y-55039995D01*
X141792682Y-55072988D01*
X141818617Y-55094272D01*
X141842566Y-55109101D01*
X141895625Y-55157470D01*
X141954342Y-55205658D01*
X141971742Y-55226860D01*
X141987980Y-55241663D01*
X142035122Y-55304090D01*
X142087012Y-55367318D01*
X142097046Y-55386090D01*
X142106554Y-55398681D01*
X142144372Y-55474631D01*
X142185595Y-55551753D01*
X142189992Y-55566249D01*
X142194262Y-55574824D01*
X142219488Y-55663484D01*
X142246302Y-55751878D01*
X142247182Y-55760819D01*
X142248108Y-55764072D01*
X142257735Y-55867960D01*
X142266800Y-55960000D01*
X142257734Y-56052046D01*
X142248108Y-56155927D01*
X142247182Y-56159178D01*
X142246302Y-56168122D01*
X142219483Y-56256531D01*
X142194262Y-56345175D01*
X142189993Y-56353747D01*
X142185595Y-56368247D01*
X142144365Y-56445382D01*
X142106554Y-56521318D01*
X142097048Y-56533905D01*
X142087012Y-56552682D01*
X142035113Y-56615921D01*
X141987980Y-56678336D01*
X141971745Y-56693135D01*
X141954342Y-56714342D01*
X141895614Y-56762538D01*
X141842566Y-56810898D01*
X141818622Y-56825723D01*
X141792682Y-56847012D01*
X141730945Y-56880010D01*
X141675275Y-56914481D01*
X141643235Y-56926892D01*
X141608247Y-56945595D01*
X141547008Y-56964171D01*
X141491798Y-56985560D01*
X141451933Y-56993011D01*
X141408122Y-57006302D01*
X141350455Y-57011981D01*
X141298381Y-57021716D01*
X141251619Y-57021716D01*
X141200000Y-57026800D01*
X141148381Y-57021716D01*
X141101619Y-57021716D01*
X141049544Y-57011981D01*
X140991878Y-57006302D01*
X140948067Y-56993012D01*
X140908201Y-56985560D01*
X140852986Y-56964169D01*
X140791753Y-56945595D01*
X140756766Y-56926894D01*
X140724724Y-56914481D01*
X140669046Y-56880006D01*
X140607318Y-56847012D01*
X140581380Y-56825725D01*
X140557433Y-56810898D01*
X140504375Y-56762530D01*
X140445658Y-56714342D01*
X140428257Y-56693139D01*
X140412019Y-56678336D01*
X140364874Y-56615906D01*
X140312988Y-56552682D01*
X140302954Y-56533910D01*
X140293445Y-56521318D01*
X140255620Y-56445354D01*
X140214405Y-56368247D01*
X140210008Y-56353753D01*
X140205737Y-56345175D01*
X140180500Y-56256477D01*
X140153698Y-56168122D01*
X140152817Y-56159183D01*
X140151891Y-56155927D01*
X140142248Y-56051874D01*
X140133200Y-55960000D01*
X140142248Y-55868132D01*
X140151891Y-55764072D01*
X140152817Y-55760814D01*
X140153698Y-55751878D01*
X140180495Y-55663537D01*
X140205737Y-55574824D01*
X140210009Y-55566244D01*
X140214405Y-55551753D01*
X140255612Y-55474658D01*
X140293445Y-55398681D01*
X140302956Y-55386086D01*
X140312988Y-55367318D01*
X140364864Y-55304105D01*
X140412019Y-55241663D01*
X140428260Y-55226856D01*
X140445658Y-55205658D01*
X140504364Y-55157478D01*
X140557433Y-55109101D01*
X140581385Y-55094270D01*
X140607318Y-55072988D01*
X140669035Y-55039999D01*
X140724724Y-55005518D01*
X140756773Y-54993102D01*
X140791753Y-54974405D01*
X140852974Y-54955833D01*
X140908201Y-54934439D01*
X140948074Y-54926985D01*
X140991878Y-54913698D01*
X141049541Y-54908018D01*
X141101619Y-54898284D01*
X141148381Y-54898284D01*
X141200000Y-54893200D01*
X141251619Y-54898284D01*
G37*
G36*
X141251619Y-51818284D02*
G01*
X141298381Y-51818284D01*
X141350458Y-51828018D01*
X141408122Y-51833698D01*
X141451926Y-51846985D01*
X141491798Y-51854439D01*
X141547020Y-51875832D01*
X141608247Y-51894405D01*
X141643229Y-51913103D01*
X141675275Y-51925518D01*
X141730957Y-51959995D01*
X141792682Y-51992988D01*
X141818617Y-52014272D01*
X141842566Y-52029101D01*
X141895625Y-52077470D01*
X141954342Y-52125658D01*
X141971742Y-52146860D01*
X141987980Y-52161663D01*
X142035122Y-52224090D01*
X142087012Y-52287318D01*
X142097046Y-52306090D01*
X142106554Y-52318681D01*
X142144372Y-52394631D01*
X142185595Y-52471753D01*
X142189992Y-52486249D01*
X142194262Y-52494824D01*
X142219488Y-52583484D01*
X142246302Y-52671878D01*
X142247182Y-52680819D01*
X142248108Y-52684072D01*
X142257735Y-52787960D01*
X142266800Y-52880000D01*
X142257734Y-52972046D01*
X142248108Y-53075927D01*
X142247182Y-53079178D01*
X142246302Y-53088122D01*
X142219483Y-53176531D01*
X142194262Y-53265175D01*
X142189993Y-53273747D01*
X142185595Y-53288247D01*
X142144365Y-53365382D01*
X142106554Y-53441318D01*
X142097048Y-53453905D01*
X142087012Y-53472682D01*
X142035113Y-53535921D01*
X141987980Y-53598336D01*
X141971745Y-53613135D01*
X141954342Y-53634342D01*
X141895614Y-53682538D01*
X141842566Y-53730898D01*
X141818622Y-53745723D01*
X141792682Y-53767012D01*
X141730945Y-53800010D01*
X141675275Y-53834481D01*
X141643235Y-53846892D01*
X141608247Y-53865595D01*
X141547008Y-53884171D01*
X141491798Y-53905560D01*
X141451933Y-53913011D01*
X141408122Y-53926302D01*
X141350455Y-53931981D01*
X141298381Y-53941716D01*
X141251619Y-53941716D01*
X141200000Y-53946800D01*
X141148381Y-53941716D01*
X141101619Y-53941716D01*
X141049544Y-53931981D01*
X140991878Y-53926302D01*
X140948067Y-53913012D01*
X140908201Y-53905560D01*
X140852986Y-53884169D01*
X140791753Y-53865595D01*
X140756766Y-53846894D01*
X140724724Y-53834481D01*
X140669046Y-53800006D01*
X140607318Y-53767012D01*
X140581380Y-53745725D01*
X140557433Y-53730898D01*
X140504375Y-53682530D01*
X140445658Y-53634342D01*
X140428257Y-53613139D01*
X140412019Y-53598336D01*
X140364874Y-53535906D01*
X140312988Y-53472682D01*
X140302954Y-53453910D01*
X140293445Y-53441318D01*
X140255620Y-53365354D01*
X140214405Y-53288247D01*
X140210008Y-53273753D01*
X140205737Y-53265175D01*
X140180500Y-53176477D01*
X140153698Y-53088122D01*
X140152817Y-53079183D01*
X140151891Y-53075927D01*
X140142248Y-52971874D01*
X140133200Y-52880000D01*
X140142248Y-52788132D01*
X140151891Y-52684072D01*
X140152817Y-52680814D01*
X140153698Y-52671878D01*
X140180495Y-52583537D01*
X140205737Y-52494824D01*
X140210009Y-52486244D01*
X140214405Y-52471753D01*
X140255612Y-52394658D01*
X140293445Y-52318681D01*
X140302956Y-52306086D01*
X140312988Y-52287318D01*
X140364864Y-52224105D01*
X140412019Y-52161663D01*
X140428260Y-52146856D01*
X140445658Y-52125658D01*
X140504364Y-52077478D01*
X140557433Y-52029101D01*
X140581385Y-52014270D01*
X140607318Y-51992988D01*
X140669035Y-51959999D01*
X140724724Y-51925518D01*
X140756773Y-51913102D01*
X140791753Y-51894405D01*
X140852974Y-51875833D01*
X140908201Y-51854439D01*
X140948074Y-51846985D01*
X140991878Y-51833698D01*
X141049541Y-51828018D01*
X141101619Y-51818284D01*
X141148381Y-51818284D01*
X141200000Y-51813200D01*
X141251619Y-51818284D01*
G37*
G36*
X120338881Y-49306134D02*
G01*
X120371842Y-49328158D01*
X120393866Y-49361119D01*
X120401600Y-49400000D01*
X120401600Y-50600000D01*
X120393866Y-50638881D01*
X120371842Y-50671842D01*
X120338881Y-50693866D01*
X120300000Y-50701600D01*
X119500000Y-50701600D01*
X119461119Y-50693866D01*
X119428158Y-50671842D01*
X119406134Y-50638881D01*
X119398400Y-50600000D01*
X119398400Y-49400000D01*
X119406134Y-49361119D01*
X119428158Y-49328158D01*
X119461119Y-49306134D01*
X119500000Y-49298400D01*
X120300000Y-49298400D01*
X120338881Y-49306134D01*
G37*
G36*
X122138881Y-49306134D02*
G01*
X122171842Y-49328158D01*
X122193866Y-49361119D01*
X122201600Y-49400000D01*
X122201600Y-50600000D01*
X122193866Y-50638881D01*
X122171842Y-50671842D01*
X122138881Y-50693866D01*
X122100000Y-50701600D01*
X121300000Y-50701600D01*
X121261119Y-50693866D01*
X121228158Y-50671842D01*
X121206134Y-50638881D01*
X121198400Y-50600000D01*
X121198400Y-49400000D01*
X121206134Y-49361119D01*
X121228158Y-49328158D01*
X121261119Y-49306134D01*
X121300000Y-49298400D01*
X122100000Y-49298400D01*
X122138881Y-49306134D01*
G37*
G36*
X141251619Y-46738284D02*
G01*
X141298381Y-46738284D01*
X141350458Y-46748018D01*
X141408122Y-46753698D01*
X141451926Y-46766985D01*
X141491798Y-46774439D01*
X141547020Y-46795832D01*
X141608247Y-46814405D01*
X141643229Y-46833103D01*
X141675275Y-46845518D01*
X141730957Y-46879995D01*
X141792682Y-46912988D01*
X141818617Y-46934272D01*
X141842566Y-46949101D01*
X141895625Y-46997470D01*
X141954342Y-47045658D01*
X141971742Y-47066860D01*
X141987980Y-47081663D01*
X142035122Y-47144090D01*
X142087012Y-47207318D01*
X142097046Y-47226090D01*
X142106554Y-47238681D01*
X142144372Y-47314631D01*
X142185595Y-47391753D01*
X142189992Y-47406249D01*
X142194262Y-47414824D01*
X142219488Y-47503484D01*
X142246302Y-47591878D01*
X142247182Y-47600819D01*
X142248108Y-47604072D01*
X142257735Y-47707960D01*
X142266800Y-47800000D01*
X142257734Y-47892046D01*
X142248108Y-47995927D01*
X142247182Y-47999178D01*
X142246302Y-48008122D01*
X142219483Y-48096531D01*
X142194262Y-48185175D01*
X142189993Y-48193747D01*
X142185595Y-48208247D01*
X142144365Y-48285382D01*
X142106554Y-48361318D01*
X142097048Y-48373905D01*
X142087012Y-48392682D01*
X142035113Y-48455921D01*
X141987980Y-48518336D01*
X141971745Y-48533135D01*
X141954342Y-48554342D01*
X141895614Y-48602538D01*
X141842566Y-48650898D01*
X141818622Y-48665723D01*
X141792682Y-48687012D01*
X141730945Y-48720010D01*
X141675275Y-48754481D01*
X141643235Y-48766892D01*
X141608247Y-48785595D01*
X141547008Y-48804171D01*
X141491798Y-48825560D01*
X141451933Y-48833011D01*
X141408122Y-48846302D01*
X141350455Y-48851981D01*
X141298381Y-48861716D01*
X141251619Y-48861716D01*
X141200000Y-48866800D01*
X141148381Y-48861716D01*
X141101619Y-48861716D01*
X141049544Y-48851981D01*
X140991878Y-48846302D01*
X140948067Y-48833012D01*
X140908201Y-48825560D01*
X140852986Y-48804169D01*
X140791753Y-48785595D01*
X140756766Y-48766894D01*
X140724724Y-48754481D01*
X140669046Y-48720006D01*
X140607318Y-48687012D01*
X140581380Y-48665725D01*
X140557433Y-48650898D01*
X140504375Y-48602530D01*
X140445658Y-48554342D01*
X140428257Y-48533139D01*
X140412019Y-48518336D01*
X140364874Y-48455906D01*
X140312988Y-48392682D01*
X140302954Y-48373910D01*
X140293445Y-48361318D01*
X140255620Y-48285354D01*
X140214405Y-48208247D01*
X140210008Y-48193753D01*
X140205737Y-48185175D01*
X140180500Y-48096477D01*
X140153698Y-48008122D01*
X140152817Y-47999183D01*
X140151891Y-47995927D01*
X140142248Y-47891874D01*
X140133200Y-47800000D01*
X140142248Y-47708132D01*
X140151891Y-47604072D01*
X140152817Y-47600814D01*
X140153698Y-47591878D01*
X140180495Y-47503537D01*
X140205737Y-47414824D01*
X140210009Y-47406244D01*
X140214405Y-47391753D01*
X140255612Y-47314658D01*
X140293445Y-47238681D01*
X140302956Y-47226086D01*
X140312988Y-47207318D01*
X140364864Y-47144105D01*
X140412019Y-47081663D01*
X140428260Y-47066856D01*
X140445658Y-47045658D01*
X140504364Y-46997478D01*
X140557433Y-46949101D01*
X140581385Y-46934270D01*
X140607318Y-46912988D01*
X140669035Y-46879999D01*
X140724724Y-46845518D01*
X140756773Y-46833102D01*
X140791753Y-46814405D01*
X140852974Y-46795833D01*
X140908201Y-46774439D01*
X140948074Y-46766985D01*
X140991878Y-46753698D01*
X141049541Y-46748018D01*
X141101619Y-46738284D01*
X141148381Y-46738284D01*
X141200000Y-46733200D01*
X141251619Y-46738284D01*
G37*
G36*
X120338881Y-47306134D02*
G01*
X120371842Y-47328158D01*
X120393866Y-47361119D01*
X120401600Y-47400000D01*
X120401600Y-48600000D01*
X120393866Y-48638881D01*
X120371842Y-48671842D01*
X120338881Y-48693866D01*
X120300000Y-48701600D01*
X119500000Y-48701600D01*
X119461119Y-48693866D01*
X119428158Y-48671842D01*
X119406134Y-48638881D01*
X119398400Y-48600000D01*
X119398400Y-47400000D01*
X119406134Y-47361119D01*
X119428158Y-47328158D01*
X119461119Y-47306134D01*
X119500000Y-47298400D01*
X120300000Y-47298400D01*
X120338881Y-47306134D01*
G37*
G36*
X122138881Y-47306134D02*
G01*
X122171842Y-47328158D01*
X122193866Y-47361119D01*
X122201600Y-47400000D01*
X122201600Y-48600000D01*
X122193866Y-48638881D01*
X122171842Y-48671842D01*
X122138881Y-48693866D01*
X122100000Y-48701600D01*
X121300000Y-48701600D01*
X121261119Y-48693866D01*
X121228158Y-48671842D01*
X121206134Y-48638881D01*
X121198400Y-48600000D01*
X121198400Y-47400000D01*
X121206134Y-47361119D01*
X121228158Y-47328158D01*
X121261119Y-47306134D01*
X121300000Y-47298400D01*
X122100000Y-47298400D01*
X122138881Y-47306134D01*
G37*
G36*
X120338881Y-45306134D02*
G01*
X120371842Y-45328158D01*
X120393866Y-45361119D01*
X120401600Y-45400000D01*
X120401600Y-46600000D01*
X120393866Y-46638881D01*
X120371842Y-46671842D01*
X120338881Y-46693866D01*
X120300000Y-46701600D01*
X119500000Y-46701600D01*
X119461119Y-46693866D01*
X119428158Y-46671842D01*
X119406134Y-46638881D01*
X119398400Y-46600000D01*
X119398400Y-45400000D01*
X119406134Y-45361119D01*
X119428158Y-45328158D01*
X119461119Y-45306134D01*
X119500000Y-45298400D01*
X120300000Y-45298400D01*
X120338881Y-45306134D01*
G37*
G36*
X122138881Y-45306134D02*
G01*
X122171842Y-45328158D01*
X122193866Y-45361119D01*
X122201600Y-45400000D01*
X122201600Y-46600000D01*
X122193866Y-46638881D01*
X122171842Y-46671842D01*
X122138881Y-46693866D01*
X122100000Y-46701600D01*
X121300000Y-46701600D01*
X121261119Y-46693866D01*
X121228158Y-46671842D01*
X121206134Y-46638881D01*
X121198400Y-46600000D01*
X121198400Y-45400000D01*
X121206134Y-45361119D01*
X121228158Y-45328158D01*
X121261119Y-45306134D01*
X121300000Y-45298400D01*
X122100000Y-45298400D01*
X122138881Y-45306134D01*
G37*
M02*
