%TF.GenerationSoftware,KiCad,Pcbnew,7.0.1*%
%TF.CreationDate,2024-05-15T23:14:22-05:00*%
%TF.ProjectId,flex_pcb_coil,666c6578-5f70-4636-925f-636f696c2e6b,rev?*%
%TF.SameCoordinates,Original*%
%TF.FileFunction,Legend,Top*%
%TF.FilePolarity,Positive*%
%FSLAX46Y46*%
G04 Gerber Fmt 4.6, Leading zero omitted, Abs format (unit mm)*
G04 Created by KiCad (PCBNEW 7.0.1) date 2024-05-15 23:14:22*
%MOMM*%
%LPD*%
G01*
G04 APERTURE LIST*
%ADD10C,0.150000*%
%ADD11C,0.120000*%
G04 APERTURE END LIST*
D10*
X158418065Y-307340000D02*
G75*
G03*
X158418065Y-307340000I-31418065J0D01*
G01*
X158418065Y-33020000D02*
G75*
G03*
X158418065Y-33020000I-31418065J0D01*
G01*
X158418065Y103886000D02*
G75*
G03*
X158418065Y103886000I-31418065J0D01*
G01*
X158418065Y-101600000D02*
G75*
G03*
X158418065Y-101600000I-31418065J0D01*
G01*
X158750001Y172466000D02*
G75*
G03*
X158750001Y172466000I-31418065J0D01*
G01*
X158418065Y-581660000D02*
G75*
G03*
X158418065Y-581660000I-31418065J0D01*
G01*
X158242001Y378460000D02*
G75*
G03*
X158242001Y378460000I-31418065J0D01*
G01*
X158418065Y-444500000D02*
G75*
G03*
X158418065Y-444500000I-31418065J0D01*
G01*
X158418065Y-238760000D02*
G75*
G03*
X158418065Y-238760000I-31418065J0D01*
G01*
X158418065Y-513080000D02*
G75*
G03*
X158418065Y-513080000I-31418065J0D01*
G01*
X158418065Y-375920000D02*
G75*
G03*
X158418065Y-375920000I-31418065J0D01*
G01*
X158750001Y-170180000D02*
G75*
G03*
X158750001Y-170180000I-31418065J0D01*
G01*
X158418065Y35306000D02*
G75*
G03*
X158418065Y35306000I-31418065J0D01*
G01*
X158242001Y447040000D02*
G75*
G03*
X158242001Y447040000I-31418065J0D01*
G01*
X158418065Y241046000D02*
G75*
G03*
X158418065Y241046000I-31418065J0D01*
G01*
X158418065Y309626000D02*
G75*
G03*
X158418065Y309626000I-31418065J0D01*
G01*
%TO.C,J1*%
X131746666Y-616892619D02*
X131746666Y-617606904D01*
X131746666Y-617606904D02*
X131699047Y-617749761D01*
X131699047Y-617749761D02*
X131603809Y-617845000D01*
X131603809Y-617845000D02*
X131460952Y-617892619D01*
X131460952Y-617892619D02*
X131365714Y-617892619D01*
X132746666Y-617892619D02*
X132175238Y-617892619D01*
X132460952Y-617892619D02*
X132460952Y-616892619D01*
X132460952Y-616892619D02*
X132365714Y-617035476D01*
X132365714Y-617035476D02*
X132270476Y-617130714D01*
X132270476Y-617130714D02*
X132175238Y-617178333D01*
%TO.C,J2*%
X121586666Y488007380D02*
X121586666Y487293095D01*
X121586666Y487293095D02*
X121539047Y487150238D01*
X121539047Y487150238D02*
X121443809Y487055000D01*
X121443809Y487055000D02*
X121300952Y487007380D01*
X121300952Y487007380D02*
X121205714Y487007380D01*
X122015238Y487912142D02*
X122062857Y487959761D01*
X122062857Y487959761D02*
X122158095Y488007380D01*
X122158095Y488007380D02*
X122396190Y488007380D01*
X122396190Y488007380D02*
X122491428Y487959761D01*
X122491428Y487959761D02*
X122539047Y487912142D01*
X122539047Y487912142D02*
X122586666Y487816904D01*
X122586666Y487816904D02*
X122586666Y487721666D01*
X122586666Y487721666D02*
X122539047Y487578809D01*
X122539047Y487578809D02*
X121967619Y487007380D01*
X121967619Y487007380D02*
X122586666Y487007380D01*
D11*
%TO.C,J1*%
X130750000Y-618430000D02*
X132080000Y-618430000D01*
X130750000Y-619760000D02*
X130750000Y-618430000D01*
X130750000Y-621030000D02*
X130750000Y-621090000D01*
X130750000Y-621030000D02*
X133410000Y-621030000D01*
X130750000Y-621090000D02*
X133410000Y-621090000D01*
X133410000Y-621030000D02*
X133410000Y-621090000D01*
%TO.C,J2*%
X120590000Y486470000D02*
X121920000Y486470000D01*
X120590000Y485140000D02*
X120590000Y486470000D01*
X120590000Y483870000D02*
X120590000Y483810000D01*
X120590000Y483870000D02*
X123250000Y483870000D01*
X120590000Y483810000D02*
X123250000Y483810000D01*
X123250000Y483870000D02*
X123250000Y483810000D01*
%TD*%
M02*
