G04 #@! TF.GenerationSoftware,KiCad,Pcbnew,8.0.1*
G04 #@! TF.CreationDate,2024-05-20T02:42:40-05:00*
G04 #@! TF.ProjectId,dsi_esp,6473695f-6573-4702-9e6b-696361645f70,1.0*
G04 #@! TF.SameCoordinates,Original*
G04 #@! TF.FileFunction,Copper,L1,Top*
G04 #@! TF.FilePolarity,Positive*
%FSLAX46Y46*%
G04 Gerber Fmt 4.6, Leading zero omitted, Abs format (unit mm)*
G04 Created by KiCad (PCBNEW 8.0.1) date 2024-05-20 02:42:40*
%MOMM*%
%LPD*%
G01*
G04 APERTURE LIST*
G04 Aperture macros list*
%AMOutline5P*
0 Free polygon, 5 corners , with rotation*
0 The origin of the aperture is its center*
0 number of corners: always 5*
0 $1 to $10 corner X, Y*
0 $11 Rotation angle, in degrees counterclockwise*
0 create outline with 5 corners*
4,1,5,$1,$2,$3,$4,$5,$6,$7,$8,$9,$10,$1,$2,$11*%
%AMOutline6P*
0 Free polygon, 6 corners , with rotation*
0 The origin of the aperture is its center*
0 number of corners: always 6*
0 $1 to $12 corner X, Y*
0 $13 Rotation angle, in degrees counterclockwise*
0 create outline with 6 corners*
4,1,6,$1,$2,$3,$4,$5,$6,$7,$8,$9,$10,$11,$12,$1,$2,$13*%
%AMOutline7P*
0 Free polygon, 7 corners , with rotation*
0 The origin of the aperture is its center*
0 number of corners: always 7*
0 $1 to $14 corner X, Y*
0 $15 Rotation angle, in degrees counterclockwise*
0 create outline with 7 corners*
4,1,7,$1,$2,$3,$4,$5,$6,$7,$8,$9,$10,$11,$12,$13,$14,$1,$2,$15*%
%AMOutline8P*
0 Free polygon, 8 corners , with rotation*
0 The origin of the aperture is its center*
0 number of corners: always 8*
0 $1 to $16 corner X, Y*
0 $17 Rotation angle, in degrees counterclockwise*
0 create outline with 8 corners*
4,1,8,$1,$2,$3,$4,$5,$6,$7,$8,$9,$10,$11,$12,$13,$14,$15,$16,$1,$2,$17*%
G04 Aperture macros list end*
G04 #@! TA.AperFunction,SMDPad,CuDef*
%ADD10R,1.000000X5.000000*%
G04 #@! TD*
G04 #@! TA.AperFunction,SMDPad,CuDef*
%ADD11R,1.000000X3.800000*%
G04 #@! TD*
G04 #@! TA.AperFunction,SMDPad,CuDef*
%ADD12R,1.000000X4.500000*%
G04 #@! TD*
G04 #@! TA.AperFunction,ComponentPad*
%ADD13Outline8P,-0.635000X0.263026X-0.263026X0.635000X0.263026X0.635000X0.635000X0.263026X0.635000X-0.263026X0.263026X-0.635000X-0.263026X-0.635000X-0.635000X-0.263026X0.000000*%
G04 #@! TD*
G04 #@! TA.AperFunction,SMDPad,CuDef*
%ADD14R,0.800000X1.200000*%
G04 #@! TD*
G04 #@! TA.AperFunction,ComponentPad*
%ADD15C,1.930400*%
G04 #@! TD*
G04 #@! TA.AperFunction,ViaPad*
%ADD16C,0.800000*%
G04 #@! TD*
G04 #@! TA.AperFunction,ViaPad*
%ADD17C,2.100000*%
G04 #@! TD*
G04 #@! TA.AperFunction,Conductor*
%ADD18C,0.250000*%
G04 #@! TD*
G04 APERTURE END LIST*
D10*
X117400000Y-96807900D03*
D11*
X118900000Y-96207900D03*
X120400000Y-96207900D03*
X121900000Y-96207900D03*
X123400000Y-96207900D03*
X124900000Y-96207900D03*
X126400000Y-96207900D03*
D12*
X127900000Y-96557900D03*
D11*
X129400000Y-96207900D03*
X130900000Y-96207900D03*
X132400000Y-96207900D03*
X133900000Y-96207900D03*
X135400000Y-96207900D03*
X136900000Y-96207900D03*
X138400000Y-96207900D03*
X139900000Y-96207900D03*
D10*
X141400000Y-96807900D03*
D13*
X134168000Y-62752900D03*
X135692000Y-62752900D03*
D14*
X121700000Y-48000000D03*
X119900000Y-48000000D03*
D15*
X141200000Y-61040000D03*
X141200000Y-55960000D03*
D13*
X130168000Y-62752900D03*
X131692000Y-62752900D03*
D15*
X141130000Y-53092900D03*
X141130000Y-48012900D03*
D14*
X123300000Y-58700000D03*
X125100000Y-58700000D03*
X121700000Y-46000000D03*
X119900000Y-46000000D03*
X121700000Y-50000000D03*
X119900000Y-50000000D03*
X119800000Y-58700000D03*
X121600000Y-58700000D03*
D16*
X117379000Y-93217500D03*
X125100000Y-57498300D03*
X141433000Y-93344500D03*
X118868200Y-45879200D03*
D17*
X138400000Y-72700000D03*
X121265000Y-72668900D03*
D16*
X121490000Y-57258500D03*
X118532900Y-49147000D03*
X118616300Y-52331500D03*
X137938700Y-75860000D03*
X121300900Y-44650000D03*
X136888400Y-42947400D03*
X139610800Y-45627000D03*
X137498400Y-44558400D03*
D18*
X135400000Y-96207900D02*
X135330000Y-96137900D01*
X141400000Y-96807900D02*
X141400000Y-98807900D01*
X119900000Y-48000000D02*
X119900000Y-46000000D01*
X141400000Y-93377100D02*
X141433000Y-93344500D01*
X119900000Y-46000000D02*
X119173300Y-46000000D01*
X118868200Y-45879200D02*
X119052500Y-45879200D01*
X125100000Y-58700000D02*
X125100000Y-57498300D01*
X119052500Y-45879200D02*
X119173300Y-46000000D01*
X117400000Y-96807900D02*
X117400000Y-93238700D01*
X117400000Y-93238700D02*
X117379000Y-93217500D01*
X141400000Y-96807900D02*
X141400000Y-93377100D01*
X127625400Y-62752900D02*
X127900000Y-62752900D01*
X127900000Y-62752900D02*
X130168000Y-62752900D01*
X124026700Y-59154200D02*
X127625400Y-62752900D01*
X121490000Y-57258500D02*
X121600000Y-57368500D01*
X121600000Y-58700000D02*
X122573300Y-58700000D01*
X127900000Y-62752900D02*
X127900000Y-96557900D01*
X124026700Y-58700000D02*
X124026700Y-59154200D01*
X123300000Y-58700000D02*
X122573300Y-58700000D01*
X121600000Y-57368500D02*
X121600000Y-58700000D01*
X123300000Y-58700000D02*
X124026700Y-58700000D01*
X119013200Y-51700700D02*
X119013200Y-50000000D01*
X124900000Y-73300000D02*
X119014700Y-67414700D01*
X124900000Y-96207900D02*
X124900000Y-73300000D01*
X118532900Y-49519700D02*
X118532900Y-49147000D01*
X119014700Y-52960800D02*
X119343000Y-52632500D01*
X119173300Y-50000000D02*
X119013200Y-50000000D01*
X119343000Y-52030500D02*
X119013200Y-51700700D01*
X119014700Y-67414700D02*
X119014700Y-52960800D01*
X119343000Y-52632500D02*
X119343000Y-52030500D01*
X119900000Y-50000000D02*
X119173300Y-50000000D01*
X119013200Y-50000000D02*
X118532900Y-49519700D01*
X118616300Y-52331500D02*
X118530000Y-52417800D01*
X118530000Y-52417800D02*
X118530000Y-95837900D01*
X118900000Y-96207900D02*
X118530000Y-95837900D01*
X137938700Y-75860000D02*
X139900000Y-77821300D01*
X139900000Y-77821300D02*
X139900000Y-96207900D01*
X120526700Y-56693500D02*
X120928100Y-56292100D01*
X120928100Y-45022800D02*
X120928100Y-56292100D01*
X136452100Y-56292100D02*
X141200000Y-61040000D01*
X120526700Y-58700000D02*
X120526700Y-56693500D01*
X121300900Y-44650000D02*
X120928100Y-45022800D01*
X119800000Y-58700000D02*
X120526700Y-58700000D01*
X120928100Y-56292100D02*
X136452100Y-56292100D01*
X125479300Y-42947400D02*
X136888400Y-42947400D01*
X121700000Y-46000000D02*
X122426700Y-46000000D01*
X122426700Y-46000000D02*
X125479300Y-42947400D01*
X121700000Y-48000000D02*
X122426700Y-48000000D01*
X122426700Y-48000000D02*
X126603700Y-43823000D01*
X137806800Y-43823000D02*
X139610800Y-45627000D01*
X126603700Y-43823000D02*
X137806800Y-43823000D01*
X127868300Y-44558400D02*
X122426700Y-50000000D01*
X137498400Y-44558400D02*
X127868300Y-44558400D01*
X121700000Y-50000000D02*
X122426700Y-50000000D01*
M02*
