G04 #@! TF.GenerationSoftware,KiCad,Pcbnew,8.0.1*
G04 #@! TF.CreationDate,2024-05-20T02:42:40-05:00*
G04 #@! TF.ProjectId,dsi_esp,6473695f-6573-4702-9e6b-696361645f70,1.0*
G04 #@! TF.SameCoordinates,Original*
G04 #@! TF.FileFunction,Legend,Top*
G04 #@! TF.FilePolarity,Positive*
%FSLAX46Y46*%
G04 Gerber Fmt 4.6, Leading zero omitted, Abs format (unit mm)*
G04 Created by KiCad (PCBNEW 8.0.1) date 2024-05-20 02:42:40*
%MOMM*%
%LPD*%
G01*
G04 APERTURE LIST*
%ADD10C,0.150000*%
%ADD11C,0.032512*%
%ADD12C,0.120000*%
%ADD13C,0.152400*%
%ADD14C,0.609600*%
%ADD15C,0.000000*%
G04 APERTURE END LIST*
D10*
X119881618Y-93353850D02*
X120881618Y-93020517D01*
X120881618Y-93020517D02*
X119881618Y-92687184D01*
X120881618Y-92353850D02*
X119881618Y-92353850D01*
X120357808Y-92353850D02*
X120357808Y-91782422D01*
X120881618Y-91782422D02*
X119881618Y-91782422D01*
X120881618Y-91306231D02*
X119881618Y-91306231D01*
X120357808Y-91306231D02*
X120357808Y-90734803D01*
X120881618Y-90734803D02*
X119881618Y-90734803D01*
X134384818Y-93140993D02*
X133384818Y-93140993D01*
X133384818Y-93140993D02*
X133384818Y-92902898D01*
X133384818Y-92902898D02*
X133432437Y-92760041D01*
X133432437Y-92760041D02*
X133527675Y-92664803D01*
X133527675Y-92664803D02*
X133622913Y-92617184D01*
X133622913Y-92617184D02*
X133813389Y-92569565D01*
X133813389Y-92569565D02*
X133956246Y-92569565D01*
X133956246Y-92569565D02*
X134146722Y-92617184D01*
X134146722Y-92617184D02*
X134241960Y-92664803D01*
X134241960Y-92664803D02*
X134337199Y-92760041D01*
X134337199Y-92760041D02*
X134384818Y-92902898D01*
X134384818Y-92902898D02*
X134384818Y-93140993D01*
X133384818Y-92236231D02*
X133384818Y-91617184D01*
X133384818Y-91617184D02*
X133765770Y-91950517D01*
X133765770Y-91950517D02*
X133765770Y-91807660D01*
X133765770Y-91807660D02*
X133813389Y-91712422D01*
X133813389Y-91712422D02*
X133861008Y-91664803D01*
X133861008Y-91664803D02*
X133956246Y-91617184D01*
X133956246Y-91617184D02*
X134194341Y-91617184D01*
X134194341Y-91617184D02*
X134289579Y-91664803D01*
X134289579Y-91664803D02*
X134337199Y-91712422D01*
X134337199Y-91712422D02*
X134384818Y-91807660D01*
X134384818Y-91807660D02*
X134384818Y-92093374D01*
X134384818Y-92093374D02*
X134337199Y-92188612D01*
X134337199Y-92188612D02*
X134289579Y-92236231D01*
X122264579Y-92570756D02*
X122312199Y-92618375D01*
X122312199Y-92618375D02*
X122359818Y-92761232D01*
X122359818Y-92761232D02*
X122359818Y-92856470D01*
X122359818Y-92856470D02*
X122312199Y-92999327D01*
X122312199Y-92999327D02*
X122216960Y-93094565D01*
X122216960Y-93094565D02*
X122121722Y-93142184D01*
X122121722Y-93142184D02*
X121931246Y-93189803D01*
X121931246Y-93189803D02*
X121788389Y-93189803D01*
X121788389Y-93189803D02*
X121597913Y-93142184D01*
X121597913Y-93142184D02*
X121502675Y-93094565D01*
X121502675Y-93094565D02*
X121407437Y-92999327D01*
X121407437Y-92999327D02*
X121359818Y-92856470D01*
X121359818Y-92856470D02*
X121359818Y-92761232D01*
X121359818Y-92761232D02*
X121407437Y-92618375D01*
X121407437Y-92618375D02*
X121455056Y-92570756D01*
X122312199Y-92189803D02*
X122359818Y-92046946D01*
X122359818Y-92046946D02*
X122359818Y-91808851D01*
X122359818Y-91808851D02*
X122312199Y-91713613D01*
X122312199Y-91713613D02*
X122264579Y-91665994D01*
X122264579Y-91665994D02*
X122169341Y-91618375D01*
X122169341Y-91618375D02*
X122074103Y-91618375D01*
X122074103Y-91618375D02*
X121978865Y-91665994D01*
X121978865Y-91665994D02*
X121931246Y-91713613D01*
X121931246Y-91713613D02*
X121883627Y-91808851D01*
X121883627Y-91808851D02*
X121836008Y-91999327D01*
X121836008Y-91999327D02*
X121788389Y-92094565D01*
X121788389Y-92094565D02*
X121740770Y-92142184D01*
X121740770Y-92142184D02*
X121645532Y-92189803D01*
X121645532Y-92189803D02*
X121550294Y-92189803D01*
X121550294Y-92189803D02*
X121455056Y-92142184D01*
X121455056Y-92142184D02*
X121407437Y-92094565D01*
X121407437Y-92094565D02*
X121359818Y-91999327D01*
X121359818Y-91999327D02*
X121359818Y-91761232D01*
X121359818Y-91761232D02*
X121407437Y-91618375D01*
X122359818Y-90665994D02*
X122359818Y-91237422D01*
X122359818Y-90951708D02*
X121359818Y-90951708D01*
X121359818Y-90951708D02*
X121502675Y-91046946D01*
X121502675Y-91046946D02*
X121597913Y-91142184D01*
X121597913Y-91142184D02*
X121645532Y-91237422D01*
X131334818Y-93165993D02*
X130334818Y-93165993D01*
X130334818Y-93165993D02*
X130334818Y-92927898D01*
X130334818Y-92927898D02*
X130382437Y-92785041D01*
X130382437Y-92785041D02*
X130477675Y-92689803D01*
X130477675Y-92689803D02*
X130572913Y-92642184D01*
X130572913Y-92642184D02*
X130763389Y-92594565D01*
X130763389Y-92594565D02*
X130906246Y-92594565D01*
X130906246Y-92594565D02*
X131096722Y-92642184D01*
X131096722Y-92642184D02*
X131191960Y-92689803D01*
X131191960Y-92689803D02*
X131287199Y-92785041D01*
X131287199Y-92785041D02*
X131334818Y-92927898D01*
X131334818Y-92927898D02*
X131334818Y-93165993D01*
X131334818Y-91642184D02*
X131334818Y-92213612D01*
X131334818Y-91927898D02*
X130334818Y-91927898D01*
X130334818Y-91927898D02*
X130477675Y-92023136D01*
X130477675Y-92023136D02*
X130572913Y-92118374D01*
X130572913Y-92118374D02*
X130620532Y-92213612D01*
X119339579Y-92598137D02*
X119387199Y-92645756D01*
X119387199Y-92645756D02*
X119434818Y-92788613D01*
X119434818Y-92788613D02*
X119434818Y-92883851D01*
X119434818Y-92883851D02*
X119387199Y-93026708D01*
X119387199Y-93026708D02*
X119291960Y-93121946D01*
X119291960Y-93121946D02*
X119196722Y-93169565D01*
X119196722Y-93169565D02*
X119006246Y-93217184D01*
X119006246Y-93217184D02*
X118863389Y-93217184D01*
X118863389Y-93217184D02*
X118672913Y-93169565D01*
X118672913Y-93169565D02*
X118577675Y-93121946D01*
X118577675Y-93121946D02*
X118482437Y-93026708D01*
X118482437Y-93026708D02*
X118434818Y-92883851D01*
X118434818Y-92883851D02*
X118434818Y-92788613D01*
X118434818Y-92788613D02*
X118482437Y-92645756D01*
X118482437Y-92645756D02*
X118530056Y-92598137D01*
X119434818Y-91693375D02*
X119434818Y-92169565D01*
X119434818Y-92169565D02*
X118434818Y-92169565D01*
X119434818Y-91360041D02*
X118434818Y-91360041D01*
X119434818Y-90788613D02*
X118863389Y-91217184D01*
X118434818Y-90788613D02*
X119006246Y-91360041D01*
X138934818Y-93115993D02*
X137934818Y-93115993D01*
X137934818Y-93115993D02*
X137934818Y-92877898D01*
X137934818Y-92877898D02*
X137982437Y-92735041D01*
X137982437Y-92735041D02*
X138077675Y-92639803D01*
X138077675Y-92639803D02*
X138172913Y-92592184D01*
X138172913Y-92592184D02*
X138363389Y-92544565D01*
X138363389Y-92544565D02*
X138506246Y-92544565D01*
X138506246Y-92544565D02*
X138696722Y-92592184D01*
X138696722Y-92592184D02*
X138791960Y-92639803D01*
X138791960Y-92639803D02*
X138887199Y-92735041D01*
X138887199Y-92735041D02*
X138934818Y-92877898D01*
X138934818Y-92877898D02*
X138934818Y-93115993D01*
X137934818Y-91687422D02*
X137934818Y-91877898D01*
X137934818Y-91877898D02*
X137982437Y-91973136D01*
X137982437Y-91973136D02*
X138030056Y-92020755D01*
X138030056Y-92020755D02*
X138172913Y-92115993D01*
X138172913Y-92115993D02*
X138363389Y-92163612D01*
X138363389Y-92163612D02*
X138744341Y-92163612D01*
X138744341Y-92163612D02*
X138839579Y-92115993D01*
X138839579Y-92115993D02*
X138887199Y-92068374D01*
X138887199Y-92068374D02*
X138934818Y-91973136D01*
X138934818Y-91973136D02*
X138934818Y-91782660D01*
X138934818Y-91782660D02*
X138887199Y-91687422D01*
X138887199Y-91687422D02*
X138839579Y-91639803D01*
X138839579Y-91639803D02*
X138744341Y-91592184D01*
X138744341Y-91592184D02*
X138506246Y-91592184D01*
X138506246Y-91592184D02*
X138411008Y-91639803D01*
X138411008Y-91639803D02*
X138363389Y-91687422D01*
X138363389Y-91687422D02*
X138315770Y-91782660D01*
X138315770Y-91782660D02*
X138315770Y-91973136D01*
X138315770Y-91973136D02*
X138363389Y-92068374D01*
X138363389Y-92068374D02*
X138411008Y-92115993D01*
X138411008Y-92115993D02*
X138506246Y-92163612D01*
X127434818Y-93179088D02*
X127434818Y-92560041D01*
X127434818Y-92560041D02*
X127815770Y-92893374D01*
X127815770Y-92893374D02*
X127815770Y-92750517D01*
X127815770Y-92750517D02*
X127863389Y-92655279D01*
X127863389Y-92655279D02*
X127911008Y-92607660D01*
X127911008Y-92607660D02*
X128006246Y-92560041D01*
X128006246Y-92560041D02*
X128244341Y-92560041D01*
X128244341Y-92560041D02*
X128339579Y-92607660D01*
X128339579Y-92607660D02*
X128387199Y-92655279D01*
X128387199Y-92655279D02*
X128434818Y-92750517D01*
X128434818Y-92750517D02*
X128434818Y-93036231D01*
X128434818Y-93036231D02*
X128387199Y-93131469D01*
X128387199Y-93131469D02*
X128339579Y-93179088D01*
X128339579Y-92131469D02*
X128387199Y-92083850D01*
X128387199Y-92083850D02*
X128434818Y-92131469D01*
X128434818Y-92131469D02*
X128387199Y-92179088D01*
X128387199Y-92179088D02*
X128339579Y-92131469D01*
X128339579Y-92131469D02*
X128434818Y-92131469D01*
X127434818Y-91750517D02*
X127434818Y-91131470D01*
X127434818Y-91131470D02*
X127815770Y-91464803D01*
X127815770Y-91464803D02*
X127815770Y-91321946D01*
X127815770Y-91321946D02*
X127863389Y-91226708D01*
X127863389Y-91226708D02*
X127911008Y-91179089D01*
X127911008Y-91179089D02*
X128006246Y-91131470D01*
X128006246Y-91131470D02*
X128244341Y-91131470D01*
X128244341Y-91131470D02*
X128339579Y-91179089D01*
X128339579Y-91179089D02*
X128387199Y-91226708D01*
X128387199Y-91226708D02*
X128434818Y-91321946D01*
X128434818Y-91321946D02*
X128434818Y-91607660D01*
X128434818Y-91607660D02*
X128387199Y-91702898D01*
X128387199Y-91702898D02*
X128339579Y-91750517D01*
X127434818Y-90845755D02*
X128434818Y-90512422D01*
X128434818Y-90512422D02*
X127434818Y-90179089D01*
X125289579Y-92570756D02*
X125337199Y-92618375D01*
X125337199Y-92618375D02*
X125384818Y-92761232D01*
X125384818Y-92761232D02*
X125384818Y-92856470D01*
X125384818Y-92856470D02*
X125337199Y-92999327D01*
X125337199Y-92999327D02*
X125241960Y-93094565D01*
X125241960Y-93094565D02*
X125146722Y-93142184D01*
X125146722Y-93142184D02*
X124956246Y-93189803D01*
X124956246Y-93189803D02*
X124813389Y-93189803D01*
X124813389Y-93189803D02*
X124622913Y-93142184D01*
X124622913Y-93142184D02*
X124527675Y-93094565D01*
X124527675Y-93094565D02*
X124432437Y-92999327D01*
X124432437Y-92999327D02*
X124384818Y-92856470D01*
X124384818Y-92856470D02*
X124384818Y-92761232D01*
X124384818Y-92761232D02*
X124432437Y-92618375D01*
X124432437Y-92618375D02*
X124480056Y-92570756D01*
X125337199Y-92189803D02*
X125384818Y-92046946D01*
X125384818Y-92046946D02*
X125384818Y-91808851D01*
X125384818Y-91808851D02*
X125337199Y-91713613D01*
X125337199Y-91713613D02*
X125289579Y-91665994D01*
X125289579Y-91665994D02*
X125194341Y-91618375D01*
X125194341Y-91618375D02*
X125099103Y-91618375D01*
X125099103Y-91618375D02*
X125003865Y-91665994D01*
X125003865Y-91665994D02*
X124956246Y-91713613D01*
X124956246Y-91713613D02*
X124908627Y-91808851D01*
X124908627Y-91808851D02*
X124861008Y-91999327D01*
X124861008Y-91999327D02*
X124813389Y-92094565D01*
X124813389Y-92094565D02*
X124765770Y-92142184D01*
X124765770Y-92142184D02*
X124670532Y-92189803D01*
X124670532Y-92189803D02*
X124575294Y-92189803D01*
X124575294Y-92189803D02*
X124480056Y-92142184D01*
X124480056Y-92142184D02*
X124432437Y-92094565D01*
X124432437Y-92094565D02*
X124384818Y-91999327D01*
X124384818Y-91999327D02*
X124384818Y-91761232D01*
X124384818Y-91761232D02*
X124432437Y-91618375D01*
X124480056Y-91237422D02*
X124432437Y-91189803D01*
X124432437Y-91189803D02*
X124384818Y-91094565D01*
X124384818Y-91094565D02*
X124384818Y-90856470D01*
X124384818Y-90856470D02*
X124432437Y-90761232D01*
X124432437Y-90761232D02*
X124480056Y-90713613D01*
X124480056Y-90713613D02*
X124575294Y-90665994D01*
X124575294Y-90665994D02*
X124670532Y-90665994D01*
X124670532Y-90665994D02*
X124813389Y-90713613D01*
X124813389Y-90713613D02*
X125384818Y-91285041D01*
X125384818Y-91285041D02*
X125384818Y-90665994D01*
X141007437Y-92671303D02*
X140959818Y-92766541D01*
X140959818Y-92766541D02*
X140959818Y-92909398D01*
X140959818Y-92909398D02*
X141007437Y-93052255D01*
X141007437Y-93052255D02*
X141102675Y-93147493D01*
X141102675Y-93147493D02*
X141197913Y-93195112D01*
X141197913Y-93195112D02*
X141388389Y-93242731D01*
X141388389Y-93242731D02*
X141531246Y-93242731D01*
X141531246Y-93242731D02*
X141721722Y-93195112D01*
X141721722Y-93195112D02*
X141816960Y-93147493D01*
X141816960Y-93147493D02*
X141912199Y-93052255D01*
X141912199Y-93052255D02*
X141959818Y-92909398D01*
X141959818Y-92909398D02*
X141959818Y-92814160D01*
X141959818Y-92814160D02*
X141912199Y-92671303D01*
X141912199Y-92671303D02*
X141864579Y-92623684D01*
X141864579Y-92623684D02*
X141531246Y-92623684D01*
X141531246Y-92623684D02*
X141531246Y-92814160D01*
X141959818Y-92195112D02*
X140959818Y-92195112D01*
X140959818Y-92195112D02*
X141959818Y-91623684D01*
X141959818Y-91623684D02*
X140959818Y-91623684D01*
X141959818Y-91147493D02*
X140959818Y-91147493D01*
X140959818Y-91147493D02*
X140959818Y-90909398D01*
X140959818Y-90909398D02*
X141007437Y-90766541D01*
X141007437Y-90766541D02*
X141102675Y-90671303D01*
X141102675Y-90671303D02*
X141197913Y-90623684D01*
X141197913Y-90623684D02*
X141388389Y-90576065D01*
X141388389Y-90576065D02*
X141531246Y-90576065D01*
X141531246Y-90576065D02*
X141721722Y-90623684D01*
X141721722Y-90623684D02*
X141816960Y-90671303D01*
X141816960Y-90671303D02*
X141912199Y-90766541D01*
X141912199Y-90766541D02*
X141959818Y-90909398D01*
X141959818Y-90909398D02*
X141959818Y-91147493D01*
X126859818Y-93176707D02*
X125859818Y-93176707D01*
X126859818Y-92129089D02*
X126383627Y-92462422D01*
X126859818Y-92700517D02*
X125859818Y-92700517D01*
X125859818Y-92700517D02*
X125859818Y-92319565D01*
X125859818Y-92319565D02*
X125907437Y-92224327D01*
X125907437Y-92224327D02*
X125955056Y-92176708D01*
X125955056Y-92176708D02*
X126050294Y-92129089D01*
X126050294Y-92129089D02*
X126193151Y-92129089D01*
X126193151Y-92129089D02*
X126288389Y-92176708D01*
X126288389Y-92176708D02*
X126336008Y-92224327D01*
X126336008Y-92224327D02*
X126383627Y-92319565D01*
X126383627Y-92319565D02*
X126383627Y-92700517D01*
X126955056Y-91033851D02*
X126907437Y-91129089D01*
X126907437Y-91129089D02*
X126812199Y-91224327D01*
X126812199Y-91224327D02*
X126669341Y-91367184D01*
X126669341Y-91367184D02*
X126621722Y-91462422D01*
X126621722Y-91462422D02*
X126621722Y-91557660D01*
X126859818Y-91510041D02*
X126812199Y-91605279D01*
X126812199Y-91605279D02*
X126716960Y-91700517D01*
X126716960Y-91700517D02*
X126526484Y-91748136D01*
X126526484Y-91748136D02*
X126193151Y-91748136D01*
X126193151Y-91748136D02*
X126002675Y-91700517D01*
X126002675Y-91700517D02*
X125907437Y-91605279D01*
X125907437Y-91605279D02*
X125859818Y-91510041D01*
X125859818Y-91510041D02*
X125859818Y-91319565D01*
X125859818Y-91319565D02*
X125907437Y-91224327D01*
X125907437Y-91224327D02*
X126002675Y-91129089D01*
X126002675Y-91129089D02*
X126193151Y-91081470D01*
X126193151Y-91081470D02*
X126526484Y-91081470D01*
X126526484Y-91081470D02*
X126716960Y-91129089D01*
X126716960Y-91129089D02*
X126812199Y-91224327D01*
X126812199Y-91224327D02*
X126859818Y-91319565D01*
X126859818Y-91319565D02*
X126859818Y-91510041D01*
X140434818Y-93115993D02*
X139434818Y-93115993D01*
X139434818Y-93115993D02*
X139434818Y-92877898D01*
X139434818Y-92877898D02*
X139482437Y-92735041D01*
X139482437Y-92735041D02*
X139577675Y-92639803D01*
X139577675Y-92639803D02*
X139672913Y-92592184D01*
X139672913Y-92592184D02*
X139863389Y-92544565D01*
X139863389Y-92544565D02*
X140006246Y-92544565D01*
X140006246Y-92544565D02*
X140196722Y-92592184D01*
X140196722Y-92592184D02*
X140291960Y-92639803D01*
X140291960Y-92639803D02*
X140387199Y-92735041D01*
X140387199Y-92735041D02*
X140434818Y-92877898D01*
X140434818Y-92877898D02*
X140434818Y-93115993D01*
X139434818Y-92211231D02*
X139434818Y-91544565D01*
X139434818Y-91544565D02*
X140434818Y-91973136D01*
X137359818Y-93115993D02*
X136359818Y-93115993D01*
X136359818Y-93115993D02*
X136359818Y-92877898D01*
X136359818Y-92877898D02*
X136407437Y-92735041D01*
X136407437Y-92735041D02*
X136502675Y-92639803D01*
X136502675Y-92639803D02*
X136597913Y-92592184D01*
X136597913Y-92592184D02*
X136788389Y-92544565D01*
X136788389Y-92544565D02*
X136931246Y-92544565D01*
X136931246Y-92544565D02*
X137121722Y-92592184D01*
X137121722Y-92592184D02*
X137216960Y-92639803D01*
X137216960Y-92639803D02*
X137312199Y-92735041D01*
X137312199Y-92735041D02*
X137359818Y-92877898D01*
X137359818Y-92877898D02*
X137359818Y-93115993D01*
X136359818Y-91639803D02*
X136359818Y-92115993D01*
X136359818Y-92115993D02*
X136836008Y-92163612D01*
X136836008Y-92163612D02*
X136788389Y-92115993D01*
X136788389Y-92115993D02*
X136740770Y-92020755D01*
X136740770Y-92020755D02*
X136740770Y-91782660D01*
X136740770Y-91782660D02*
X136788389Y-91687422D01*
X136788389Y-91687422D02*
X136836008Y-91639803D01*
X136836008Y-91639803D02*
X136931246Y-91592184D01*
X136931246Y-91592184D02*
X137169341Y-91592184D01*
X137169341Y-91592184D02*
X137264579Y-91639803D01*
X137264579Y-91639803D02*
X137312199Y-91687422D01*
X137312199Y-91687422D02*
X137359818Y-91782660D01*
X137359818Y-91782660D02*
X137359818Y-92020755D01*
X137359818Y-92020755D02*
X137312199Y-92115993D01*
X137312199Y-92115993D02*
X137264579Y-92163612D01*
X116957437Y-92664803D02*
X116909818Y-92760041D01*
X116909818Y-92760041D02*
X116909818Y-92902898D01*
X116909818Y-92902898D02*
X116957437Y-93045755D01*
X116957437Y-93045755D02*
X117052675Y-93140993D01*
X117052675Y-93140993D02*
X117147913Y-93188612D01*
X117147913Y-93188612D02*
X117338389Y-93236231D01*
X117338389Y-93236231D02*
X117481246Y-93236231D01*
X117481246Y-93236231D02*
X117671722Y-93188612D01*
X117671722Y-93188612D02*
X117766960Y-93140993D01*
X117766960Y-93140993D02*
X117862199Y-93045755D01*
X117862199Y-93045755D02*
X117909818Y-92902898D01*
X117909818Y-92902898D02*
X117909818Y-92807660D01*
X117909818Y-92807660D02*
X117862199Y-92664803D01*
X117862199Y-92664803D02*
X117814579Y-92617184D01*
X117814579Y-92617184D02*
X117481246Y-92617184D01*
X117481246Y-92617184D02*
X117481246Y-92807660D01*
X117909818Y-92188612D02*
X116909818Y-92188612D01*
X116909818Y-92188612D02*
X117909818Y-91617184D01*
X117909818Y-91617184D02*
X116909818Y-91617184D01*
X117909818Y-91140993D02*
X116909818Y-91140993D01*
X116909818Y-91140993D02*
X116909818Y-90902898D01*
X116909818Y-90902898D02*
X116957437Y-90760041D01*
X116957437Y-90760041D02*
X117052675Y-90664803D01*
X117052675Y-90664803D02*
X117147913Y-90617184D01*
X117147913Y-90617184D02*
X117338389Y-90569565D01*
X117338389Y-90569565D02*
X117481246Y-90569565D01*
X117481246Y-90569565D02*
X117671722Y-90617184D01*
X117671722Y-90617184D02*
X117766960Y-90664803D01*
X117766960Y-90664803D02*
X117862199Y-90760041D01*
X117862199Y-90760041D02*
X117909818Y-90902898D01*
X117909818Y-90902898D02*
X117909818Y-91140993D01*
X129884818Y-93190993D02*
X128884818Y-93190993D01*
X128884818Y-93190993D02*
X128884818Y-92952898D01*
X128884818Y-92952898D02*
X128932437Y-92810041D01*
X128932437Y-92810041D02*
X129027675Y-92714803D01*
X129027675Y-92714803D02*
X129122913Y-92667184D01*
X129122913Y-92667184D02*
X129313389Y-92619565D01*
X129313389Y-92619565D02*
X129456246Y-92619565D01*
X129456246Y-92619565D02*
X129646722Y-92667184D01*
X129646722Y-92667184D02*
X129741960Y-92714803D01*
X129741960Y-92714803D02*
X129837199Y-92810041D01*
X129837199Y-92810041D02*
X129884818Y-92952898D01*
X129884818Y-92952898D02*
X129884818Y-93190993D01*
X128884818Y-92000517D02*
X128884818Y-91905279D01*
X128884818Y-91905279D02*
X128932437Y-91810041D01*
X128932437Y-91810041D02*
X128980056Y-91762422D01*
X128980056Y-91762422D02*
X129075294Y-91714803D01*
X129075294Y-91714803D02*
X129265770Y-91667184D01*
X129265770Y-91667184D02*
X129503865Y-91667184D01*
X129503865Y-91667184D02*
X129694341Y-91714803D01*
X129694341Y-91714803D02*
X129789579Y-91762422D01*
X129789579Y-91762422D02*
X129837199Y-91810041D01*
X129837199Y-91810041D02*
X129884818Y-91905279D01*
X129884818Y-91905279D02*
X129884818Y-92000517D01*
X129884818Y-92000517D02*
X129837199Y-92095755D01*
X129837199Y-92095755D02*
X129789579Y-92143374D01*
X129789579Y-92143374D02*
X129694341Y-92190993D01*
X129694341Y-92190993D02*
X129503865Y-92238612D01*
X129503865Y-92238612D02*
X129265770Y-92238612D01*
X129265770Y-92238612D02*
X129075294Y-92190993D01*
X129075294Y-92190993D02*
X128980056Y-92143374D01*
X128980056Y-92143374D02*
X128932437Y-92095755D01*
X128932437Y-92095755D02*
X128884818Y-92000517D01*
X132859818Y-93165993D02*
X131859818Y-93165993D01*
X131859818Y-93165993D02*
X131859818Y-92927898D01*
X131859818Y-92927898D02*
X131907437Y-92785041D01*
X131907437Y-92785041D02*
X132002675Y-92689803D01*
X132002675Y-92689803D02*
X132097913Y-92642184D01*
X132097913Y-92642184D02*
X132288389Y-92594565D01*
X132288389Y-92594565D02*
X132431246Y-92594565D01*
X132431246Y-92594565D02*
X132621722Y-92642184D01*
X132621722Y-92642184D02*
X132716960Y-92689803D01*
X132716960Y-92689803D02*
X132812199Y-92785041D01*
X132812199Y-92785041D02*
X132859818Y-92927898D01*
X132859818Y-92927898D02*
X132859818Y-93165993D01*
X131955056Y-92213612D02*
X131907437Y-92165993D01*
X131907437Y-92165993D02*
X131859818Y-92070755D01*
X131859818Y-92070755D02*
X131859818Y-91832660D01*
X131859818Y-91832660D02*
X131907437Y-91737422D01*
X131907437Y-91737422D02*
X131955056Y-91689803D01*
X131955056Y-91689803D02*
X132050294Y-91642184D01*
X132050294Y-91642184D02*
X132145532Y-91642184D01*
X132145532Y-91642184D02*
X132288389Y-91689803D01*
X132288389Y-91689803D02*
X132859818Y-92261231D01*
X132859818Y-92261231D02*
X132859818Y-91642184D01*
X135884818Y-93115993D02*
X134884818Y-93115993D01*
X134884818Y-93115993D02*
X134884818Y-92877898D01*
X134884818Y-92877898D02*
X134932437Y-92735041D01*
X134932437Y-92735041D02*
X135027675Y-92639803D01*
X135027675Y-92639803D02*
X135122913Y-92592184D01*
X135122913Y-92592184D02*
X135313389Y-92544565D01*
X135313389Y-92544565D02*
X135456246Y-92544565D01*
X135456246Y-92544565D02*
X135646722Y-92592184D01*
X135646722Y-92592184D02*
X135741960Y-92639803D01*
X135741960Y-92639803D02*
X135837199Y-92735041D01*
X135837199Y-92735041D02*
X135884818Y-92877898D01*
X135884818Y-92877898D02*
X135884818Y-93115993D01*
X135218151Y-91687422D02*
X135884818Y-91687422D01*
X134837199Y-91925517D02*
X135551484Y-92163612D01*
X135551484Y-92163612D02*
X135551484Y-91544565D01*
X123909818Y-92546946D02*
X123433627Y-92880279D01*
X123909818Y-93118374D02*
X122909818Y-93118374D01*
X122909818Y-93118374D02*
X122909818Y-92737422D01*
X122909818Y-92737422D02*
X122957437Y-92642184D01*
X122957437Y-92642184D02*
X123005056Y-92594565D01*
X123005056Y-92594565D02*
X123100294Y-92546946D01*
X123100294Y-92546946D02*
X123243151Y-92546946D01*
X123243151Y-92546946D02*
X123338389Y-92594565D01*
X123338389Y-92594565D02*
X123386008Y-92642184D01*
X123386008Y-92642184D02*
X123433627Y-92737422D01*
X123433627Y-92737422D02*
X123433627Y-93118374D01*
X123386008Y-92118374D02*
X123386008Y-91785041D01*
X123909818Y-91642184D02*
X123909818Y-92118374D01*
X123909818Y-92118374D02*
X122909818Y-92118374D01*
X122909818Y-92118374D02*
X122909818Y-91642184D01*
X123862199Y-91261231D02*
X123909818Y-91118374D01*
X123909818Y-91118374D02*
X123909818Y-90880279D01*
X123909818Y-90880279D02*
X123862199Y-90785041D01*
X123862199Y-90785041D02*
X123814579Y-90737422D01*
X123814579Y-90737422D02*
X123719341Y-90689803D01*
X123719341Y-90689803D02*
X123624103Y-90689803D01*
X123624103Y-90689803D02*
X123528865Y-90737422D01*
X123528865Y-90737422D02*
X123481246Y-90785041D01*
X123481246Y-90785041D02*
X123433627Y-90880279D01*
X123433627Y-90880279D02*
X123386008Y-91070755D01*
X123386008Y-91070755D02*
X123338389Y-91165993D01*
X123338389Y-91165993D02*
X123290770Y-91213612D01*
X123290770Y-91213612D02*
X123195532Y-91261231D01*
X123195532Y-91261231D02*
X123100294Y-91261231D01*
X123100294Y-91261231D02*
X123005056Y-91213612D01*
X123005056Y-91213612D02*
X122957437Y-91165993D01*
X122957437Y-91165993D02*
X122909818Y-91070755D01*
X122909818Y-91070755D02*
X122909818Y-90832660D01*
X122909818Y-90832660D02*
X122957437Y-90689803D01*
D11*
X121237939Y-48872946D02*
X121362569Y-49050988D01*
X121451590Y-48872946D02*
X121451590Y-49246834D01*
X121451590Y-49246834D02*
X121309156Y-49246834D01*
X121309156Y-49246834D02*
X121273548Y-49229030D01*
X121273548Y-49229030D02*
X121255743Y-49211226D01*
X121255743Y-49211226D02*
X121237939Y-49175618D01*
X121237939Y-49175618D02*
X121237939Y-49122205D01*
X121237939Y-49122205D02*
X121255743Y-49086597D01*
X121255743Y-49086597D02*
X121273548Y-49068792D01*
X121273548Y-49068792D02*
X121309156Y-49050988D01*
X121309156Y-49050988D02*
X121451590Y-49050988D01*
X121113310Y-49246834D02*
X120881855Y-49246834D01*
X120881855Y-49246834D02*
X121006485Y-49104401D01*
X121006485Y-49104401D02*
X120953072Y-49104401D01*
X120953072Y-49104401D02*
X120917464Y-49086597D01*
X120917464Y-49086597D02*
X120899660Y-49068792D01*
X120899660Y-49068792D02*
X120881855Y-49033184D01*
X120881855Y-49033184D02*
X120881855Y-48944163D01*
X120881855Y-48944163D02*
X120899660Y-48908555D01*
X120899660Y-48908555D02*
X120917464Y-48890751D01*
X120917464Y-48890751D02*
X120953072Y-48872946D01*
X120953072Y-48872946D02*
X121059897Y-48872946D01*
X121059897Y-48872946D02*
X121095506Y-48890751D01*
X121095506Y-48890751D02*
X121113310Y-48908555D01*
X123762060Y-57791444D02*
X123744256Y-57809249D01*
X123744256Y-57809249D02*
X123690843Y-57827053D01*
X123690843Y-57827053D02*
X123655235Y-57827053D01*
X123655235Y-57827053D02*
X123601822Y-57809249D01*
X123601822Y-57809249D02*
X123566214Y-57773640D01*
X123566214Y-57773640D02*
X123548409Y-57738032D01*
X123548409Y-57738032D02*
X123530605Y-57666815D01*
X123530605Y-57666815D02*
X123530605Y-57613402D01*
X123530605Y-57613402D02*
X123548409Y-57542186D01*
X123548409Y-57542186D02*
X123566214Y-57506577D01*
X123566214Y-57506577D02*
X123601822Y-57470969D01*
X123601822Y-57470969D02*
X123655235Y-57453165D01*
X123655235Y-57453165D02*
X123690843Y-57453165D01*
X123690843Y-57453165D02*
X123744256Y-57470969D01*
X123744256Y-57470969D02*
X123762060Y-57488773D01*
X124118144Y-57827053D02*
X123904493Y-57827053D01*
X124011318Y-57827053D02*
X124011318Y-57453165D01*
X124011318Y-57453165D02*
X123975710Y-57506577D01*
X123975710Y-57506577D02*
X123940102Y-57542186D01*
X123940102Y-57542186D02*
X123904493Y-57559990D01*
X121237939Y-46872946D02*
X121362569Y-47050988D01*
X121451590Y-46872946D02*
X121451590Y-47246834D01*
X121451590Y-47246834D02*
X121309156Y-47246834D01*
X121309156Y-47246834D02*
X121273548Y-47229030D01*
X121273548Y-47229030D02*
X121255743Y-47211226D01*
X121255743Y-47211226D02*
X121237939Y-47175618D01*
X121237939Y-47175618D02*
X121237939Y-47122205D01*
X121237939Y-47122205D02*
X121255743Y-47086597D01*
X121255743Y-47086597D02*
X121273548Y-47068792D01*
X121273548Y-47068792D02*
X121309156Y-47050988D01*
X121309156Y-47050988D02*
X121451590Y-47050988D01*
X121095506Y-47211226D02*
X121077702Y-47229030D01*
X121077702Y-47229030D02*
X121042093Y-47246834D01*
X121042093Y-47246834D02*
X120953072Y-47246834D01*
X120953072Y-47246834D02*
X120917464Y-47229030D01*
X120917464Y-47229030D02*
X120899660Y-47211226D01*
X120899660Y-47211226D02*
X120881855Y-47175618D01*
X120881855Y-47175618D02*
X120881855Y-47140009D01*
X120881855Y-47140009D02*
X120899660Y-47086597D01*
X120899660Y-47086597D02*
X121113310Y-46872946D01*
X121113310Y-46872946D02*
X120881855Y-46872946D01*
X121237939Y-50872946D02*
X121362569Y-51050988D01*
X121451590Y-50872946D02*
X121451590Y-51246834D01*
X121451590Y-51246834D02*
X121309156Y-51246834D01*
X121309156Y-51246834D02*
X121273548Y-51229030D01*
X121273548Y-51229030D02*
X121255743Y-51211226D01*
X121255743Y-51211226D02*
X121237939Y-51175618D01*
X121237939Y-51175618D02*
X121237939Y-51122205D01*
X121237939Y-51122205D02*
X121255743Y-51086597D01*
X121255743Y-51086597D02*
X121273548Y-51068792D01*
X121273548Y-51068792D02*
X121309156Y-51050988D01*
X121309156Y-51050988D02*
X121451590Y-51050988D01*
X120917464Y-51122205D02*
X120917464Y-50872946D01*
X121006485Y-51264639D02*
X121095506Y-50997576D01*
X121095506Y-50997576D02*
X120864051Y-50997576D01*
X120262060Y-57827053D02*
X120137430Y-57649011D01*
X120048409Y-57827053D02*
X120048409Y-57453165D01*
X120048409Y-57453165D02*
X120190843Y-57453165D01*
X120190843Y-57453165D02*
X120226451Y-57470969D01*
X120226451Y-57470969D02*
X120244256Y-57488773D01*
X120244256Y-57488773D02*
X120262060Y-57524381D01*
X120262060Y-57524381D02*
X120262060Y-57577794D01*
X120262060Y-57577794D02*
X120244256Y-57613402D01*
X120244256Y-57613402D02*
X120226451Y-57631207D01*
X120226451Y-57631207D02*
X120190843Y-57649011D01*
X120190843Y-57649011D02*
X120048409Y-57649011D01*
X120618144Y-57827053D02*
X120404493Y-57827053D01*
X120511318Y-57827053D02*
X120511318Y-57453165D01*
X120511318Y-57453165D02*
X120475710Y-57506577D01*
X120475710Y-57506577D02*
X120440102Y-57542186D01*
X120440102Y-57542186D02*
X120404493Y-57559990D01*
D12*
X116500000Y-93857900D02*
X116500000Y-99857900D01*
X116500000Y-99857900D02*
X142450000Y-99857900D01*
X142450000Y-93907900D02*
X116450000Y-93907900D01*
X142450000Y-99857900D02*
X142450000Y-93907900D01*
D13*
X121100000Y-47400000D02*
X120500000Y-47400000D01*
X121100000Y-48600000D02*
X120500000Y-48600000D01*
D14*
X143740000Y-58500000D02*
G75*
G02*
X138660000Y-58500000I-2540000J0D01*
G01*
X138660000Y-58500000D02*
G75*
G02*
X143740000Y-58500000I2540000J0D01*
G01*
X143670000Y-50552900D02*
G75*
G02*
X138590000Y-50552900I-2540000J0D01*
G01*
X138590000Y-50552900D02*
G75*
G02*
X143670000Y-50552900I2540000J0D01*
G01*
D15*
G36*
X117253156Y-88561628D02*
G01*
X117232059Y-88582724D01*
X117210963Y-88561628D01*
X117232059Y-88540531D01*
X117253156Y-88561628D01*
G37*
G36*
X141598339Y-87717774D02*
G01*
X141577242Y-87738870D01*
X141556146Y-87717774D01*
X141577242Y-87696678D01*
X141598339Y-87717774D01*
G37*
G36*
X120234773Y-88428018D02*
G01*
X120228981Y-88453101D01*
X120206644Y-88456146D01*
X120171915Y-88440708D01*
X120178516Y-88428018D01*
X120228589Y-88422968D01*
X120234773Y-88428018D01*
G37*
G36*
X141542082Y-87921705D02*
G01*
X141547131Y-87971778D01*
X141542082Y-87977962D01*
X141516998Y-87972170D01*
X141513953Y-87949834D01*
X141529391Y-87915104D01*
X141542082Y-87921705D01*
G37*
G36*
X141710667Y-87728322D02*
G01*
X141716240Y-87814705D01*
X141710667Y-87833804D01*
X141695267Y-87839104D01*
X141689386Y-87781063D01*
X141696017Y-87721165D01*
X141710667Y-87728322D01*
G37*
G36*
X142934440Y-87710742D02*
G01*
X142928649Y-87735825D01*
X142906312Y-87738870D01*
X142871583Y-87723433D01*
X142878183Y-87710742D01*
X142928256Y-87705692D01*
X142934440Y-87710742D01*
G37*
G36*
X122103814Y-83429768D02*
G01*
X122064850Y-83482424D01*
X122046802Y-83490834D01*
X122005653Y-83485835D01*
X122009406Y-83432534D01*
X122041777Y-83376902D01*
X122067919Y-83374891D01*
X122103814Y-83429768D01*
G37*
G36*
X116268220Y-87722526D02*
G01*
X116261628Y-87738870D01*
X116223713Y-87779121D01*
X116216945Y-87781063D01*
X116198822Y-87748419D01*
X116198339Y-87738870D01*
X116230774Y-87698299D01*
X116243021Y-87696678D01*
X116268220Y-87722526D01*
G37*
G36*
X134880002Y-68398690D02*
G01*
X134891144Y-68417315D01*
X134909509Y-68518696D01*
X134856802Y-68593854D01*
X134745867Y-68625448D01*
X134736860Y-68625581D01*
X134658535Y-68605342D01*
X134636554Y-68531069D01*
X134636544Y-68528538D01*
X134662571Y-68414057D01*
X134726237Y-68347959D01*
X134805921Y-68339688D01*
X134880002Y-68398690D01*
G37*
G36*
X118667455Y-64964939D02*
G01*
X118767755Y-65025054D01*
X118788187Y-65049453D01*
X118802069Y-65132263D01*
X118753650Y-65207348D01*
X118664954Y-65263775D01*
X118558003Y-65290614D01*
X118454822Y-65276934D01*
X118400797Y-65241727D01*
X118357149Y-65156029D01*
X118352931Y-65051892D01*
X118385356Y-64965875D01*
X118424003Y-64937232D01*
X118539032Y-64931401D01*
X118667455Y-64964939D01*
G37*
G36*
X140693350Y-65653711D02*
G01*
X140739263Y-65693284D01*
X140749823Y-65787592D01*
X140727094Y-65886373D01*
X140682187Y-65955037D01*
X140651213Y-65967442D01*
X140574147Y-65939693D01*
X140529080Y-65904780D01*
X140483495Y-65820161D01*
X140480645Y-65767654D01*
X140494639Y-65686941D01*
X140498100Y-65661545D01*
X140535278Y-65632386D01*
X140612791Y-65631411D01*
X140693350Y-65653711D01*
G37*
G36*
X125212518Y-68211040D02*
G01*
X125321453Y-68259512D01*
X125381769Y-68359069D01*
X125383626Y-68485847D01*
X125355963Y-68558910D01*
X125287276Y-68654866D01*
X125205755Y-68683368D01*
X125085976Y-68651922D01*
X125067142Y-68644190D01*
X124970541Y-68587185D01*
X124934712Y-68509032D01*
X124932226Y-68465387D01*
X124968338Y-68329457D01*
X125063413Y-68238219D01*
X125197557Y-68209725D01*
X125212518Y-68211040D01*
G37*
G36*
X135346913Y-80574200D02*
G01*
X135395008Y-80599259D01*
X135396013Y-80604953D01*
X135359666Y-80640235D01*
X135272123Y-80671002D01*
X135270836Y-80671287D01*
X135153894Y-80713503D01*
X135022321Y-80783324D01*
X134994710Y-80801217D01*
X134887355Y-80871638D01*
X134828568Y-80897410D01*
X134797771Y-80882257D01*
X134778381Y-80840365D01*
X134772165Y-80736648D01*
X134844471Y-80657944D01*
X134961205Y-80611168D01*
X135107036Y-80580483D01*
X135243264Y-80568051D01*
X135346913Y-80574200D01*
G37*
G36*
X137387260Y-69628672D02*
G01*
X137500996Y-69712542D01*
X137573435Y-69837796D01*
X137588691Y-69942185D01*
X137564981Y-70095234D01*
X137490703Y-70186579D01*
X137355716Y-70225729D01*
X137282926Y-70228903D01*
X137157644Y-70221740D01*
X137081052Y-70188317D01*
X137017870Y-70110740D01*
X137002776Y-70086797D01*
X136933885Y-69953862D01*
X136923083Y-69851832D01*
X136970339Y-69750433D01*
X137002398Y-69707185D01*
X137117549Y-69617811D01*
X137252640Y-69594367D01*
X137387260Y-69628672D01*
G37*
G36*
X143201661Y-64174252D02*
G01*
X143200023Y-64420398D01*
X143195467Y-64634659D01*
X143188531Y-64803905D01*
X143179754Y-64915001D01*
X143169697Y-64954817D01*
X143127842Y-64928002D01*
X143037267Y-64854934D01*
X142911181Y-64746679D01*
X142762796Y-64614302D01*
X142758318Y-64610237D01*
X142587081Y-64460987D01*
X142370254Y-64281313D01*
X142130913Y-64089844D01*
X141892131Y-63905209D01*
X141791489Y-63829672D01*
X141204074Y-63393688D01*
X142202867Y-63393688D01*
X143201661Y-63393688D01*
X143201661Y-64174252D01*
G37*
G36*
X117732902Y-63685260D02*
G01*
X117576869Y-63842098D01*
X117422212Y-64004806D01*
X117280212Y-64160661D01*
X117162146Y-64296941D01*
X117079296Y-64400925D01*
X117042941Y-64459891D01*
X117042192Y-64464282D01*
X117014139Y-64503736D01*
X116938278Y-64588732D01*
X116827052Y-64705730D01*
X116725747Y-64808504D01*
X116595742Y-64941467D01*
X116491635Y-65053575D01*
X116425907Y-65131032D01*
X116409302Y-65158264D01*
X116386257Y-65210223D01*
X116328585Y-65300051D01*
X116303820Y-65334551D01*
X116198339Y-65477524D01*
X116198339Y-64435606D01*
X116198339Y-63393688D01*
X117114620Y-63393688D01*
X118030901Y-63393688D01*
X117732902Y-63685260D01*
G37*
G36*
X140652903Y-66210931D02*
G01*
X140708851Y-66315830D01*
X140711673Y-66324204D01*
X140738838Y-66428446D01*
X140770706Y-66583813D01*
X140804201Y-66770519D01*
X140836250Y-66968777D01*
X140863780Y-67158803D01*
X140883715Y-67320808D01*
X140892983Y-67435009D01*
X140890913Y-67477924D01*
X140840733Y-67520239D01*
X140762033Y-67524322D01*
X140700977Y-67490663D01*
X140693701Y-67475830D01*
X140680912Y-67413826D01*
X140658863Y-67287991D01*
X140630681Y-67117964D01*
X140599493Y-66923387D01*
X140568427Y-66723898D01*
X140540608Y-66539139D01*
X140519166Y-66388750D01*
X140512317Y-66336628D01*
X140505335Y-66232480D01*
X140526312Y-66187494D01*
X140578010Y-66178405D01*
X140652903Y-66210931D01*
G37*
G36*
X125082195Y-68892924D02*
G01*
X125120239Y-68942523D01*
X125157265Y-69038091D01*
X125196846Y-69190185D01*
X125242560Y-69409362D01*
X125272255Y-69565796D01*
X125309869Y-69767730D01*
X125343921Y-69949404D01*
X125370222Y-70088546D01*
X125383028Y-70155066D01*
X125388856Y-70239686D01*
X125351217Y-70269375D01*
X125324454Y-70271096D01*
X125266817Y-70248155D01*
X125216868Y-70169270D01*
X125173600Y-70049585D01*
X125131083Y-69890623D01*
X125088059Y-69692587D01*
X125056017Y-69511628D01*
X125027319Y-69351787D01*
X124996067Y-69222033D01*
X124968440Y-69147475D01*
X124965311Y-69142990D01*
X124941027Y-69065091D01*
X124955225Y-68971193D01*
X124997592Y-68898004D01*
X125039555Y-68878737D01*
X125082195Y-68892924D01*
G37*
G36*
X136003936Y-83964860D02*
G01*
X136240707Y-83979721D01*
X136469835Y-84001858D01*
X136676137Y-84030404D01*
X136844431Y-84064491D01*
X136959532Y-84103254D01*
X136998639Y-84130556D01*
X137023842Y-84205416D01*
X136999471Y-84277257D01*
X136944993Y-84321124D01*
X136879870Y-84312063D01*
X136866071Y-84300512D01*
X136807986Y-84278163D01*
X136683052Y-84250664D01*
X136508452Y-84220545D01*
X136301374Y-84190336D01*
X136079001Y-84162566D01*
X135858519Y-84139765D01*
X135678963Y-84125773D01*
X135475603Y-84111363D01*
X135343272Y-84096540D01*
X135268649Y-84078418D01*
X135238413Y-84054112D01*
X135236870Y-84030006D01*
X135284100Y-83995494D01*
X135399605Y-83972590D01*
X135568202Y-83960427D01*
X135774707Y-83958139D01*
X136003936Y-83964860D01*
G37*
G36*
X134754598Y-68870906D02*
G01*
X134851559Y-68927697D01*
X134900249Y-68948172D01*
X134960476Y-69008362D01*
X134977441Y-69084074D01*
X134983665Y-69178817D01*
X134997062Y-69327923D01*
X135014946Y-69501948D01*
X135018333Y-69532724D01*
X135044547Y-69766297D01*
X135061282Y-69928939D01*
X135066886Y-70033743D01*
X135059707Y-70093800D01*
X135038095Y-70122200D01*
X135000398Y-70132036D01*
X134944964Y-70136399D01*
X134942151Y-70136665D01*
X134832216Y-70130480D01*
X134787456Y-70094472D01*
X134775626Y-70026850D01*
X134760858Y-69901477D01*
X134746241Y-69744770D01*
X134745502Y-69735749D01*
X134727137Y-69566900D01*
X134702840Y-69417273D01*
X134678227Y-69320418D01*
X134648414Y-69205351D01*
X134631794Y-69069545D01*
X134630054Y-68944239D01*
X134644880Y-68860669D01*
X134652743Y-68848474D01*
X134705975Y-68845634D01*
X134754598Y-68870906D01*
G37*
G36*
X118655391Y-65479547D02*
G01*
X118704213Y-65544803D01*
X118719950Y-65609165D01*
X118733870Y-65707101D01*
X118761461Y-65860223D01*
X118797718Y-66041422D01*
X118813400Y-66115116D01*
X118853312Y-66346075D01*
X118885273Y-66620430D01*
X118904821Y-66897263D01*
X118907735Y-66980066D01*
X118912063Y-67188618D01*
X118911275Y-67327519D01*
X118903186Y-67411453D01*
X118885609Y-67455103D01*
X118856356Y-67473152D01*
X118833645Y-67477610D01*
X118749806Y-67474788D01*
X118717616Y-67460030D01*
X118700732Y-67403960D01*
X118689887Y-67292689D01*
X118687707Y-67207171D01*
X118678748Y-67027835D01*
X118656236Y-66841695D01*
X118645260Y-66781728D01*
X118624784Y-66656651D01*
X118604008Y-66483608D01*
X118584350Y-66281725D01*
X118567226Y-66070132D01*
X118554053Y-65867954D01*
X118546249Y-65694321D01*
X118545230Y-65568359D01*
X118551194Y-65511799D01*
X118596741Y-65464135D01*
X118655391Y-65479547D01*
G37*
G36*
X122582372Y-68790489D02*
G01*
X122600923Y-68933513D01*
X122600804Y-69155672D01*
X122599255Y-69195183D01*
X122581077Y-69440272D01*
X122546716Y-69618271D01*
X122489654Y-69745919D01*
X122403375Y-69839956D01*
X122328298Y-69891127D01*
X122143836Y-69962384D01*
X121954294Y-69955046D01*
X121826753Y-69911441D01*
X121724708Y-69840349D01*
X121638141Y-69714833D01*
X121597613Y-69630082D01*
X121536722Y-69451720D01*
X121503613Y-69269797D01*
X121496987Y-69099780D01*
X121515547Y-68957139D01*
X121557994Y-68857340D01*
X121623031Y-68815853D01*
X121665377Y-68822470D01*
X121700931Y-68864531D01*
X121720162Y-68965104D01*
X121725647Y-69125859D01*
X121751193Y-69396524D01*
X121827202Y-69602326D01*
X121952942Y-69741490D01*
X121988531Y-69763724D01*
X122071581Y-69801879D01*
X122129904Y-69790835D01*
X122202991Y-69723002D01*
X122203574Y-69722387D01*
X122331288Y-69542005D01*
X122422905Y-69322854D01*
X122466854Y-69098697D01*
X122463904Y-68962765D01*
X122454446Y-68813670D01*
X122477900Y-68737171D01*
X122486433Y-68730208D01*
X122544444Y-68723691D01*
X122582372Y-68790489D01*
G37*
G36*
X123770216Y-68387393D02*
G01*
X123788427Y-68410749D01*
X123786032Y-68442151D01*
X123744104Y-68501256D01*
X123636034Y-68544411D01*
X123571183Y-68558815D01*
X123451067Y-68585753D01*
X123392259Y-68619329D01*
X123372892Y-68680440D01*
X123371096Y-68750036D01*
X123382892Y-68880031D01*
X123412996Y-69043044D01*
X123435475Y-69133247D01*
X123482991Y-69319910D01*
X123527519Y-69523729D01*
X123565710Y-69725332D01*
X123594213Y-69905349D01*
X123609677Y-70044410D01*
X123608754Y-70123145D01*
X123607429Y-70127500D01*
X123558597Y-70182399D01*
X123496940Y-70161354D01*
X123461824Y-70112874D01*
X123434544Y-70030501D01*
X123406674Y-69899347D01*
X123392338Y-69806977D01*
X123368815Y-69666964D01*
X123329857Y-69474588D01*
X123281607Y-69259065D01*
X123246706Y-69114517D01*
X123131741Y-68654116D01*
X122924425Y-68650397D01*
X122790780Y-68640178D01*
X122727198Y-68612938D01*
X122717109Y-68585244D01*
X122758424Y-68529473D01*
X122879118Y-68479675D01*
X123074313Y-68437156D01*
X123339130Y-68403219D01*
X123427722Y-68395213D01*
X123605293Y-68381646D01*
X123714314Y-68378365D01*
X123770216Y-68387393D01*
G37*
G36*
X129599173Y-66156621D02*
G01*
X129714095Y-66224728D01*
X129838654Y-66319703D01*
X129913526Y-66417973D01*
X129947072Y-66541977D01*
X129947656Y-66714153D01*
X129938144Y-66825885D01*
X129915554Y-66984271D01*
X129878694Y-67089414D01*
X129814809Y-67172444D01*
X129784215Y-67201578D01*
X129688227Y-67274041D01*
X129586350Y-67307517D01*
X129440422Y-67314345D01*
X129435630Y-67314277D01*
X129299333Y-67308448D01*
X129194545Y-67297229D01*
X129161155Y-67289368D01*
X129077388Y-67213671D01*
X129019849Y-67077703D01*
X128990662Y-66902060D01*
X128991228Y-66816184D01*
X129162038Y-66816184D01*
X129190252Y-66967753D01*
X129211233Y-67015392D01*
X129294152Y-67117172D01*
X129408795Y-67150038D01*
X129566851Y-67116903D01*
X129587721Y-67109229D01*
X129658821Y-67062399D01*
X129706883Y-66972730D01*
X129737480Y-66857080D01*
X129760424Y-66660495D01*
X129728523Y-66510937D01*
X129636799Y-66387356D01*
X129623480Y-66375017D01*
X129517200Y-66321792D01*
X129410479Y-66338203D01*
X129312460Y-66410050D01*
X129232284Y-66523131D01*
X129179096Y-66663243D01*
X129162038Y-66816184D01*
X128991228Y-66816184D01*
X128991945Y-66707340D01*
X129025821Y-66514140D01*
X129068894Y-66393393D01*
X129172763Y-66215237D01*
X129290641Y-66117730D01*
X129430215Y-66098861D01*
X129599173Y-66156621D01*
G37*
G36*
X131441474Y-65610988D02*
G01*
X131511363Y-65671778D01*
X131569935Y-65799813D01*
X131619499Y-66001444D01*
X131648973Y-66181980D01*
X131669601Y-66496108D01*
X131632424Y-66752613D01*
X131535182Y-66957400D01*
X131375613Y-67116375D01*
X131265319Y-67183908D01*
X131030519Y-67273062D01*
X130782266Y-67295459D01*
X130628010Y-67280777D01*
X130439150Y-67227922D01*
X130284049Y-67137316D01*
X130185797Y-67023240D01*
X130175872Y-67001163D01*
X130163083Y-66924743D01*
X130154671Y-66786286D01*
X130151610Y-66608074D01*
X130153021Y-66478212D01*
X130158898Y-66279025D01*
X130168412Y-66146618D01*
X130185226Y-66063383D01*
X130213002Y-66011715D01*
X130255404Y-65974008D01*
X130258359Y-65971900D01*
X130344543Y-65919978D01*
X130398622Y-65919098D01*
X130428384Y-65978788D01*
X130441617Y-66108574D01*
X130444403Y-66199501D01*
X130465807Y-66431979D01*
X130516010Y-66652003D01*
X130588312Y-66844369D01*
X130676011Y-66993871D01*
X130772407Y-67085303D01*
X130844171Y-67106644D01*
X131000175Y-67069087D01*
X131158378Y-66968773D01*
X131298340Y-66824236D01*
X131399623Y-66654013D01*
X131425734Y-66579236D01*
X131464420Y-66380206D01*
X131462448Y-66190260D01*
X131418149Y-65975092D01*
X131392068Y-65886610D01*
X131348950Y-65725444D01*
X131343742Y-65632094D01*
X131377930Y-65598255D01*
X131441474Y-65610988D01*
G37*
G36*
X125406239Y-83353412D02*
G01*
X125461331Y-83366272D01*
X125479913Y-83393521D01*
X125480731Y-83405009D01*
X125467698Y-83451660D01*
X125418393Y-83485532D01*
X125317504Y-83512469D01*
X125149719Y-83538318D01*
X125122093Y-83541916D01*
X124955174Y-83570637D01*
X124789830Y-83610096D01*
X124742358Y-83624397D01*
X124643393Y-83652880D01*
X124480641Y-83695286D01*
X124272631Y-83746970D01*
X124037893Y-83803290D01*
X123898505Y-83835855D01*
X123487316Y-83932139D01*
X123144863Y-84015199D01*
X122857193Y-84088650D01*
X122610354Y-84156106D01*
X122390392Y-84221183D01*
X122292130Y-84252038D01*
X122210372Y-84262892D01*
X122176100Y-84251405D01*
X122153181Y-84190325D01*
X122147508Y-84128329D01*
X122153346Y-84091146D01*
X122178778Y-84059647D01*
X122235680Y-84029263D01*
X122335927Y-83995424D01*
X122491396Y-83953560D01*
X122713961Y-83899100D01*
X122790946Y-83880728D01*
X123023907Y-83823539D01*
X123237591Y-83767863D01*
X123413933Y-83718644D01*
X123534872Y-83680825D01*
X123568318Y-83668004D01*
X123665970Y-83636897D01*
X123822850Y-83600406D01*
X124014478Y-83563823D01*
X124154277Y-83541278D01*
X124347953Y-83509754D01*
X124516370Y-83477271D01*
X124638248Y-83448224D01*
X124686105Y-83431450D01*
X124763907Y-83408797D01*
X124900420Y-83386215D01*
X125070061Y-83367678D01*
X125123318Y-83363519D01*
X125298836Y-83353106D01*
X125406239Y-83353412D01*
G37*
G36*
X136679410Y-68339531D02*
G01*
X136793189Y-68359218D01*
X136854220Y-68396547D01*
X136872750Y-68453315D01*
X136872757Y-68454771D01*
X136863317Y-68505178D01*
X136825025Y-68540772D01*
X136742928Y-68567023D01*
X136602070Y-68589404D01*
X136460101Y-68605740D01*
X136302086Y-68625772D01*
X136196665Y-68655476D01*
X136135717Y-68709446D01*
X136111118Y-68802274D01*
X136114745Y-68948555D01*
X136138476Y-69162881D01*
X136140560Y-69179833D01*
X136178344Y-69487782D01*
X136206192Y-69722047D01*
X136224430Y-69892698D01*
X136233386Y-70009811D01*
X136233386Y-70083457D01*
X136224757Y-70123711D01*
X136207826Y-70140646D01*
X136182920Y-70144335D01*
X136171856Y-70144360D01*
X136101882Y-70108472D01*
X136032692Y-69996757D01*
X136012608Y-69950702D01*
X135965015Y-69803483D01*
X135949568Y-69651755D01*
X135958331Y-69486183D01*
X135964568Y-69313344D01*
X135955522Y-69128255D01*
X135934200Y-68952977D01*
X135903612Y-68809567D01*
X135866766Y-68720088D01*
X135851772Y-68704828D01*
X135785842Y-68696451D01*
X135677884Y-68709522D01*
X135655432Y-68714370D01*
X135466324Y-68744618D01*
X135344038Y-68733514D01*
X135291339Y-68682790D01*
X135310997Y-68594174D01*
X135355880Y-68527065D01*
X135404992Y-68477612D01*
X135472640Y-68439534D01*
X135571414Y-68410287D01*
X135713904Y-68387328D01*
X135912698Y-68368113D01*
X136180387Y-68350099D01*
X136252613Y-68345881D01*
X136502634Y-68335685D01*
X136679410Y-68339531D01*
G37*
G36*
X127963849Y-65575716D02*
G01*
X128048084Y-65657889D01*
X128161964Y-65779389D01*
X128289724Y-65923575D01*
X128419082Y-66069147D01*
X128529359Y-66185577D01*
X128608822Y-66260998D01*
X128645666Y-66283588D01*
X128669891Y-66237282D01*
X128708878Y-66129764D01*
X128755483Y-65981316D01*
X128771369Y-65926624D01*
X128832795Y-65736564D01*
X128886764Y-65622327D01*
X128928071Y-65587707D01*
X129035577Y-65613788D01*
X129120142Y-65676756D01*
X129150277Y-65747415D01*
X129136569Y-65811105D01*
X129099608Y-65938542D01*
X129044299Y-66113923D01*
X128975547Y-66321448D01*
X128937926Y-66431561D01*
X128855038Y-66679583D01*
X128775010Y-66932975D01*
X128705747Y-67165783D01*
X128655153Y-67352055D01*
X128645876Y-67390329D01*
X128602895Y-67561814D01*
X128560491Y-67709591D01*
X128526226Y-67807838D01*
X128519202Y-67822804D01*
X128462741Y-67892905D01*
X128413344Y-67902511D01*
X128392027Y-67847605D01*
X128392026Y-67847113D01*
X128359023Y-67777091D01*
X128320728Y-67746020D01*
X128282999Y-67717562D01*
X128270419Y-67673825D01*
X128282769Y-67592689D01*
X128317859Y-67459123D01*
X128399108Y-67160124D01*
X128456287Y-66930873D01*
X128490067Y-66760440D01*
X128501120Y-66637896D01*
X128490116Y-66552312D01*
X128457726Y-66492757D01*
X128404621Y-66448302D01*
X128380779Y-66434013D01*
X128309011Y-66375829D01*
X128203119Y-66269634D01*
X128079819Y-66134677D01*
X127955832Y-65990204D01*
X127847876Y-65855462D01*
X127772669Y-65749697D01*
X127750181Y-65708058D01*
X127758517Y-65631937D01*
X127825556Y-65569836D01*
X127921575Y-65545515D01*
X127963849Y-65575716D01*
G37*
G36*
X139251307Y-65558143D02*
G01*
X139346905Y-65588732D01*
X139352598Y-65590708D01*
X139482239Y-65635902D01*
X139460439Y-66054828D01*
X139453368Y-66274296D01*
X139459035Y-66413914D01*
X139477356Y-66472049D01*
X139482594Y-66473754D01*
X139554487Y-66439980D01*
X139652905Y-66350747D01*
X139763081Y-66224188D01*
X139870246Y-66078435D01*
X139959631Y-65931619D01*
X140006651Y-65830315D01*
X140067047Y-65769424D01*
X140120270Y-65756478D01*
X140189044Y-65785764D01*
X140203244Y-65868092D01*
X140166248Y-65995166D01*
X140081437Y-66158692D01*
X139952190Y-66350375D01*
X139801307Y-66539360D01*
X139605943Y-66768036D01*
X139768835Y-66905695D01*
X139983856Y-67097750D01*
X140144887Y-67263490D01*
X140248818Y-67398235D01*
X140292536Y-67497300D01*
X140272930Y-67556004D01*
X140210803Y-67570764D01*
X140137739Y-67559662D01*
X140043257Y-67521101D01*
X139911149Y-67447195D01*
X139753247Y-67348171D01*
X139607725Y-67263551D01*
X139514954Y-67236488D01*
X139464658Y-67268427D01*
X139446558Y-67360816D01*
X139445865Y-67391445D01*
X139437649Y-67507870D01*
X139418283Y-67589205D01*
X139414221Y-67596722D01*
X139365590Y-67635363D01*
X139288453Y-67672902D01*
X139218128Y-67694702D01*
X139190011Y-67689637D01*
X139185896Y-67632691D01*
X139182790Y-67508084D01*
X139180645Y-67329477D01*
X139179415Y-67110532D01*
X139179052Y-66864910D01*
X139179509Y-66606274D01*
X139180739Y-66348285D01*
X139182694Y-66104606D01*
X139185327Y-65888897D01*
X139188591Y-65714821D01*
X139192439Y-65596040D01*
X139196823Y-65546215D01*
X139197426Y-65545515D01*
X139251307Y-65558143D01*
G37*
G36*
X132200062Y-68542303D02*
G01*
X132357172Y-68594387D01*
X132531916Y-68669045D01*
X132705893Y-68759601D01*
X132803206Y-68819417D01*
X133037333Y-69015531D01*
X133193152Y-69243031D01*
X133270636Y-69501874D01*
X133276804Y-69558336D01*
X133282603Y-69705574D01*
X133263909Y-69809705D01*
X133210118Y-69910856D01*
X133167558Y-69971734D01*
X132980921Y-70184939D01*
X132770051Y-70331905D01*
X132514394Y-70424789D01*
X132346576Y-70457328D01*
X132214638Y-70469980D01*
X132146706Y-70455809D01*
X132129198Y-70431951D01*
X132119134Y-70367561D01*
X132106518Y-70240719D01*
X132093371Y-70073235D01*
X132086899Y-69975747D01*
X132071730Y-69758022D01*
X132051061Y-69495926D01*
X132028104Y-69229021D01*
X132021702Y-69160085D01*
X132255801Y-69160085D01*
X132256248Y-69381901D01*
X132260564Y-69673452D01*
X132266726Y-69965199D01*
X132272308Y-70123341D01*
X132283860Y-70215016D01*
X132307192Y-70258143D01*
X132348115Y-70270640D01*
X132365914Y-70271096D01*
X132458730Y-70253054D01*
X132585599Y-70207527D01*
X132641314Y-70182392D01*
X132830401Y-70055145D01*
X132971100Y-69888812D01*
X133055625Y-69700521D01*
X133076191Y-69507404D01*
X133027794Y-69331919D01*
X132938652Y-69202410D01*
X132811585Y-69072259D01*
X132665090Y-68954704D01*
X132517664Y-68862984D01*
X132387805Y-68810338D01*
X132296909Y-68808820D01*
X132279776Y-68832369D01*
X132267355Y-68893385D01*
X132259433Y-68999935D01*
X132255801Y-69160085D01*
X132021702Y-69160085D01*
X132013978Y-69076913D01*
X131994005Y-68839765D01*
X131987467Y-68676161D01*
X131994334Y-68576341D01*
X132012357Y-68532559D01*
X132078989Y-68519469D01*
X132200062Y-68542303D01*
G37*
G36*
X142073265Y-66090696D02*
G01*
X142197932Y-66207145D01*
X142227489Y-66255803D01*
X142239125Y-66349600D01*
X142211331Y-66481449D01*
X142153712Y-66620725D01*
X142077018Y-66735526D01*
X141946277Y-66836731D01*
X141776693Y-66910842D01*
X141620790Y-66937874D01*
X141538098Y-66960765D01*
X141515248Y-67019842D01*
X141544537Y-67100709D01*
X141618261Y-67188971D01*
X141728717Y-67270231D01*
X141822464Y-67314747D01*
X141937335Y-67333522D01*
X142075931Y-67323538D01*
X142208310Y-67291071D01*
X142304528Y-67242397D01*
X142332517Y-67207840D01*
X142388185Y-67156905D01*
X142469412Y-67156425D01*
X142536277Y-67203629D01*
X142546117Y-67222674D01*
X142535334Y-67299347D01*
X142466787Y-67386428D01*
X142362204Y-67466000D01*
X142243312Y-67520150D01*
X142169534Y-67533197D01*
X142025552Y-67540120D01*
X141914784Y-67547182D01*
X141778644Y-67544470D01*
X141649351Y-67526436D01*
X141460802Y-67448228D01*
X141325798Y-67306379D01*
X141243701Y-67099860D01*
X141213874Y-66827637D01*
X141213806Y-66821514D01*
X141221922Y-66609168D01*
X141236086Y-66549900D01*
X141556146Y-66549900D01*
X141570368Y-66592484D01*
X141621873Y-66588591D01*
X141723918Y-66536008D01*
X141756561Y-66516409D01*
X141840931Y-66443617D01*
X141888802Y-66362299D01*
X141893003Y-66294713D01*
X141846360Y-66263115D01*
X141838292Y-66262790D01*
X141771945Y-66293293D01*
X141685469Y-66366593D01*
X141605698Y-66455384D01*
X141559471Y-66532355D01*
X141556146Y-66549900D01*
X141236086Y-66549900D01*
X141258726Y-66455167D01*
X141335889Y-66335202D01*
X141465084Y-66224966D01*
X141517546Y-66188953D01*
X141727435Y-66081069D01*
X141914554Y-66048494D01*
X142073265Y-66090696D01*
G37*
G36*
X123198107Y-65527654D02*
G01*
X123243441Y-65565636D01*
X123318855Y-65658289D01*
X123354092Y-65730398D01*
X123383327Y-65805081D01*
X123440558Y-65936184D01*
X123516962Y-66104837D01*
X123603711Y-66292168D01*
X123691981Y-66479308D01*
X123772946Y-66647387D01*
X123837781Y-66777534D01*
X123877661Y-66850878D01*
X123879350Y-66853488D01*
X123955524Y-66982849D01*
X124022910Y-67122412D01*
X124072465Y-67249772D01*
X124095144Y-67342522D01*
X124089916Y-67375133D01*
X124035851Y-67399146D01*
X123968106Y-67367592D01*
X123879275Y-67274164D01*
X123761953Y-67112555D01*
X123735747Y-67073497D01*
X123632610Y-66924729D01*
X123554440Y-66833139D01*
X123483862Y-66782912D01*
X123403504Y-66758232D01*
X123386084Y-66755188D01*
X123275486Y-66744136D01*
X123202272Y-66749237D01*
X123195735Y-66752080D01*
X123177605Y-66802416D01*
X123164562Y-66912957D01*
X123159486Y-67056394D01*
X123153277Y-67247185D01*
X123133445Y-67363080D01*
X123096596Y-67412942D01*
X123039339Y-67405637D01*
X123028070Y-67399763D01*
X122979217Y-67328333D01*
X122945215Y-67182993D01*
X122926632Y-66973000D01*
X122924041Y-66707612D01*
X122938011Y-66396086D01*
X122948722Y-66262790D01*
X123160133Y-66262790D01*
X123162516Y-66375431D01*
X123178386Y-66422039D01*
X123220820Y-66420963D01*
X123262163Y-66405951D01*
X123319274Y-66346722D01*
X123315370Y-66251449D01*
X123270169Y-66167857D01*
X123210272Y-66104770D01*
X123175735Y-66114245D01*
X123161385Y-66200747D01*
X123160133Y-66262790D01*
X122948722Y-66262790D01*
X122953999Y-66197118D01*
X122978717Y-65953353D01*
X123002201Y-65780426D01*
X123027182Y-65664886D01*
X123056390Y-65593279D01*
X123083335Y-65559744D01*
X123145922Y-65514387D01*
X123198107Y-65527654D01*
G37*
G36*
X136402309Y-65456459D02*
G01*
X136536691Y-65489684D01*
X136670664Y-65588489D01*
X136687109Y-65604585D01*
X136775535Y-65704688D01*
X136817878Y-65798287D01*
X136830259Y-65925832D01*
X136830564Y-65964547D01*
X136822098Y-66107711D01*
X136793570Y-66184747D01*
X136763017Y-66206974D01*
X136688486Y-66203216D01*
X136648756Y-66134813D01*
X136650971Y-66033328D01*
X136636254Y-65931725D01*
X136550096Y-65825092D01*
X136440620Y-65745488D01*
X136327137Y-65719670D01*
X136185988Y-65746225D01*
X136057046Y-65795650D01*
X135862636Y-65922189D01*
X135725809Y-66108819D01*
X135648357Y-66352324D01*
X135630356Y-66561976D01*
X135633420Y-66723962D01*
X135650493Y-66829395D01*
X135688597Y-66905817D01*
X135730813Y-66956025D01*
X135916965Y-67100600D01*
X136156609Y-67208512D01*
X136424420Y-67273241D01*
X136695071Y-67288269D01*
X136904402Y-67258149D01*
X136997513Y-67240122D01*
X137035101Y-67259237D01*
X137041528Y-67312954D01*
X137002937Y-67410008D01*
X136898387Y-67487246D01*
X136744714Y-67541163D01*
X136558753Y-67568255D01*
X136357340Y-67565016D01*
X136157309Y-67527942D01*
X136098740Y-67509220D01*
X136003933Y-67469942D01*
X135913682Y-67416950D01*
X135811883Y-67337911D01*
X135682431Y-67220495D01*
X135534234Y-67076992D01*
X135431684Y-66969449D01*
X135377635Y-66883929D01*
X135356815Y-66787191D01*
X135353820Y-66684297D01*
X135363387Y-66514060D01*
X135387400Y-66343536D01*
X135398703Y-66292022D01*
X135451556Y-66149947D01*
X135536894Y-65987480D01*
X135639250Y-65828322D01*
X135743157Y-65696171D01*
X135833148Y-65614726D01*
X135845084Y-65608052D01*
X135942510Y-65552037D01*
X135992759Y-65516319D01*
X136081372Y-65475206D01*
X136227299Y-65456452D01*
X136402309Y-65456459D01*
G37*
G36*
X127336493Y-68481018D02*
G01*
X127516968Y-68490858D01*
X127630023Y-68508184D01*
X127682743Y-68532405D01*
X127710617Y-68588448D01*
X127663994Y-68628877D01*
X127540213Y-68654517D01*
X127336612Y-68666191D01*
X127247442Y-68667128D01*
X127047879Y-68671410D01*
X126917086Y-68689986D01*
X126839563Y-68732725D01*
X126799811Y-68809494D01*
X126782330Y-68930163D01*
X126779851Y-68964835D01*
X126767608Y-69151854D01*
X126978571Y-69201356D01*
X127154310Y-69238271D01*
X127339186Y-69270838D01*
X127392407Y-69278715D01*
X127528328Y-69312619D01*
X127614507Y-69364424D01*
X127637467Y-69423650D01*
X127618991Y-69454873D01*
X127569106Y-69459946D01*
X127456758Y-69452771D01*
X127302726Y-69434934D01*
X127238325Y-69425800D01*
X127029106Y-69397930D01*
X126890526Y-69390655D01*
X126810573Y-69407548D01*
X126777233Y-69452183D01*
X126778496Y-69528131D01*
X126784484Y-69560795D01*
X126803145Y-69627041D01*
X126836935Y-69675346D01*
X126899852Y-69711282D01*
X127005897Y-69740421D01*
X127169069Y-69768333D01*
X127378892Y-69797349D01*
X127524890Y-69824698D01*
X127602117Y-69861912D01*
X127624594Y-69901910D01*
X127623625Y-69932096D01*
X127598513Y-69952762D01*
X127536385Y-69965681D01*
X127424367Y-69972627D01*
X127249585Y-69975373D01*
X127088631Y-69975747D01*
X126862433Y-69974778D01*
X126706045Y-69970503D01*
X126604899Y-69960874D01*
X126544429Y-69943842D01*
X126510068Y-69917358D01*
X126493733Y-69892069D01*
X126481239Y-69825037D01*
X126473585Y-69692630D01*
X126470464Y-69513701D01*
X126471567Y-69307103D01*
X126476587Y-69091688D01*
X126485214Y-68886310D01*
X126497142Y-68709822D01*
X126512062Y-68581076D01*
X126515462Y-68562292D01*
X126527559Y-68527769D01*
X126556877Y-68504196D01*
X126617295Y-68489498D01*
X126722694Y-68481601D01*
X126886953Y-68478432D01*
X127080220Y-68477907D01*
X127336493Y-68481018D01*
G37*
G36*
X131554940Y-68679310D02*
G01*
X131588694Y-68698341D01*
X131598257Y-68731177D01*
X131598671Y-68748689D01*
X131592385Y-68792398D01*
X131562157Y-68818586D01*
X131490932Y-68831695D01*
X131361653Y-68836162D01*
X131261129Y-68836545D01*
X131031963Y-68849742D01*
X130876589Y-68891940D01*
X130788230Y-68967046D01*
X130760111Y-69078967D01*
X130762809Y-69123901D01*
X130772002Y-69177727D01*
X130795645Y-69211726D01*
X130850540Y-69231281D01*
X130953486Y-69241778D01*
X131121285Y-69248603D01*
X131155330Y-69249715D01*
X131328523Y-69259436D01*
X131470067Y-69274970D01*
X131558378Y-69293621D01*
X131574869Y-69302178D01*
X131575292Y-69358622D01*
X131510457Y-69451869D01*
X131490801Y-69473305D01*
X131411181Y-69549341D01*
X131339040Y-69584729D01*
X131240455Y-69589977D01*
X131140894Y-69581679D01*
X130915177Y-69559049D01*
X130943762Y-69714658D01*
X130971499Y-69826441D01*
X131002849Y-69900608D01*
X131007944Y-69907036D01*
X131067260Y-69921887D01*
X131190484Y-69923933D01*
X131358289Y-69914238D01*
X131551345Y-69893864D01*
X131730814Y-69867260D01*
X131856802Y-69862670D01*
X131917228Y-69893679D01*
X131914405Y-69945752D01*
X131850649Y-70004352D01*
X131728273Y-70054945D01*
X131699777Y-70062177D01*
X131578495Y-70080612D01*
X131414626Y-70092977D01*
X131231202Y-70099104D01*
X131051251Y-70098824D01*
X130897806Y-70091971D01*
X130793895Y-70078375D01*
X130767692Y-70068983D01*
X130735455Y-70011226D01*
X130699897Y-69887278D01*
X130664552Y-69715055D01*
X130632955Y-69512473D01*
X130608642Y-69297446D01*
X130603615Y-69237375D01*
X130588925Y-69087535D01*
X130570630Y-68954498D01*
X130562944Y-68913316D01*
X130559976Y-68834726D01*
X130596906Y-68776864D01*
X130683815Y-68735819D01*
X130830782Y-68707684D01*
X131047889Y-68688551D01*
X131158374Y-68682456D01*
X131354794Y-68673626D01*
X131481978Y-68671824D01*
X131554940Y-68679310D01*
G37*
G36*
X124073772Y-65748849D02*
G01*
X124092775Y-65766909D01*
X124167463Y-65806287D01*
X124293808Y-65841769D01*
X124394085Y-65858794D01*
X124521937Y-65878828D01*
X124613228Y-65910931D01*
X124694346Y-65971172D01*
X124791677Y-66075621D01*
X124836907Y-66128484D01*
X124956634Y-66284196D01*
X125067559Y-66453065D01*
X125138889Y-66584849D01*
X125194371Y-66717750D01*
X125214257Y-66811600D01*
X125202738Y-66901765D01*
X125183885Y-66964583D01*
X125098244Y-67177162D01*
X124991154Y-67329963D01*
X124840817Y-67447592D01*
X124684254Y-67528595D01*
X124561984Y-67583675D01*
X124495757Y-67605762D01*
X124464348Y-67595774D01*
X124446530Y-67554633D01*
X124441560Y-67539119D01*
X124411248Y-67450101D01*
X124369044Y-67331019D01*
X124364200Y-67317608D01*
X124323641Y-67188648D01*
X124280022Y-67025042D01*
X124259563Y-66937874D01*
X124199336Y-66683391D01*
X124137098Y-66453030D01*
X124077248Y-66260672D01*
X124024181Y-66120196D01*
X124020676Y-66113945D01*
X124257142Y-66113945D01*
X124267128Y-66179494D01*
X124294016Y-66305844D01*
X124333200Y-66472194D01*
X124362239Y-66588612D01*
X124406895Y-66769986D01*
X124442208Y-66924973D01*
X124463543Y-67032577D01*
X124467721Y-67066561D01*
X124496134Y-67153132D01*
X124518737Y-67182591D01*
X124586956Y-67224038D01*
X124652504Y-67230555D01*
X124679336Y-67201578D01*
X124712421Y-67161146D01*
X124792418Y-67105823D01*
X124799520Y-67101728D01*
X124899112Y-67022684D01*
X124941034Y-66920716D01*
X124930087Y-66776707D01*
X124905397Y-66679902D01*
X124852450Y-66559738D01*
X124767627Y-66432765D01*
X124662855Y-66309396D01*
X124550060Y-66200044D01*
X124441168Y-66115119D01*
X124348106Y-66065035D01*
X124282799Y-66060204D01*
X124257174Y-66111038D01*
X124257142Y-66113945D01*
X124020676Y-66113945D01*
X123982294Y-66045482D01*
X123974906Y-66039182D01*
X123925388Y-65965476D01*
X123934072Y-65859506D01*
X123975197Y-65780960D01*
X124025609Y-65729905D01*
X124073772Y-65748849D01*
G37*
G36*
X126181625Y-65649885D02*
G01*
X126194284Y-65698796D01*
X126146186Y-65761850D01*
X126042464Y-65823336D01*
X126039784Y-65824473D01*
X125842659Y-65909792D01*
X125711010Y-65974429D01*
X125631352Y-66027475D01*
X125590201Y-66078017D01*
X125574073Y-66135146D01*
X125573640Y-66138691D01*
X125579530Y-66261547D01*
X125604817Y-66361718D01*
X125629242Y-66412922D01*
X125665662Y-66445368D01*
X125728313Y-66460153D01*
X125831428Y-66458374D01*
X125989245Y-66441127D01*
X126215997Y-66409511D01*
X126219103Y-66409062D01*
X126331065Y-66409087D01*
X126408970Y-66433060D01*
X126440135Y-66483226D01*
X126397735Y-66533904D01*
X126292301Y-66578637D01*
X126134364Y-66610968D01*
X126114797Y-66613424D01*
X125928138Y-66643009D01*
X125812704Y-66685665D01*
X125755351Y-66752780D01*
X125742935Y-66855737D01*
X125750154Y-66929279D01*
X125776665Y-67052211D01*
X125812824Y-67137981D01*
X125829145Y-67155758D01*
X125888327Y-67171612D01*
X125994105Y-67169741D01*
X126156325Y-67149059D01*
X126384830Y-67108482D01*
X126543447Y-67077064D01*
X126767796Y-67040609D01*
X126915286Y-67038054D01*
X126986350Y-67069440D01*
X126989473Y-67116130D01*
X126967644Y-67145484D01*
X126914660Y-67173423D01*
X126817933Y-67203810D01*
X126664869Y-67240510D01*
X126442878Y-67287388D01*
X126408970Y-67294295D01*
X126146380Y-67344841D01*
X125952118Y-67374405D01*
X125812886Y-67383412D01*
X125715385Y-67372287D01*
X125646318Y-67341454D01*
X125619089Y-67319527D01*
X125543334Y-67208873D01*
X125473549Y-67032514D01*
X125415480Y-66809128D01*
X125374869Y-66557397D01*
X125369635Y-66508254D01*
X125345315Y-66341154D01*
X125309564Y-66186942D01*
X125280660Y-66104293D01*
X125245370Y-65981895D01*
X125276631Y-65898718D01*
X125380780Y-65845720D01*
X125476092Y-65825403D01*
X125619399Y-65790370D01*
X125778834Y-65734629D01*
X125823385Y-65715583D01*
X125954601Y-65664687D01*
X126069365Y-65634402D01*
X126103073Y-65630827D01*
X126181625Y-65649885D01*
G37*
G36*
X126086639Y-79962432D02*
G01*
X126167491Y-80033628D01*
X126193906Y-80062110D01*
X126315665Y-80239007D01*
X126404768Y-80470899D01*
X126462972Y-80765069D01*
X126492033Y-81128800D01*
X126496055Y-81314740D01*
X126495907Y-81552902D01*
X126490056Y-81726428D01*
X126476259Y-81855000D01*
X126452269Y-81958297D01*
X126415843Y-82056000D01*
X126409955Y-82069597D01*
X126330335Y-82247993D01*
X126273671Y-82363612D01*
X126230774Y-82431699D01*
X126192452Y-82467501D01*
X126161134Y-82482353D01*
X126076764Y-82514041D01*
X126050332Y-82524648D01*
X125989355Y-82521620D01*
X125878887Y-82494746D01*
X125797176Y-82468534D01*
X125610123Y-82375667D01*
X125489178Y-82251666D01*
X125418032Y-82154851D01*
X125361008Y-82090972D01*
X125350756Y-82082951D01*
X125314054Y-82031959D01*
X125262751Y-81927215D01*
X125223681Y-81831862D01*
X125181453Y-81705313D01*
X125159200Y-81586000D01*
X125154151Y-81444866D01*
X125163531Y-81252854D01*
X125165613Y-81223359D01*
X125171226Y-81169702D01*
X125470308Y-81169702D01*
X125471959Y-81403342D01*
X125489547Y-81550546D01*
X125528251Y-81719026D01*
X125585216Y-81841157D01*
X125679074Y-81954972D01*
X125696185Y-81972374D01*
X125803205Y-82069146D01*
X125882141Y-82109370D01*
X125953789Y-82104758D01*
X126039784Y-82071508D01*
X126076775Y-82048663D01*
X126103207Y-81997812D01*
X126147201Y-81890210D01*
X126199283Y-81749041D01*
X126199823Y-81747508D01*
X126286360Y-81391053D01*
X126293688Y-81044174D01*
X126222083Y-80715526D01*
X126162394Y-80572191D01*
X126072001Y-80392930D01*
X126003604Y-80278218D01*
X125946695Y-80214728D01*
X125890768Y-80189134D01*
X125858172Y-80186379D01*
X125766266Y-80226086D01*
X125679907Y-80335293D01*
X125603113Y-80499130D01*
X125539903Y-80702724D01*
X125494295Y-80931205D01*
X125470308Y-81169702D01*
X125171226Y-81169702D01*
X125199428Y-80900091D01*
X125249509Y-80624848D01*
X125313016Y-80410509D01*
X125370937Y-80292520D01*
X125513917Y-80136162D01*
X125701802Y-80014189D01*
X125891301Y-79951241D01*
X126007703Y-79939779D01*
X126086639Y-79962432D01*
G37*
G36*
X133782752Y-65547773D02*
G01*
X133813199Y-65679094D01*
X133833802Y-65848270D01*
X133868772Y-66055939D01*
X133927756Y-66256481D01*
X134002596Y-66431209D01*
X134085135Y-66561439D01*
X134167216Y-66628484D01*
X134175552Y-66631117D01*
X134247688Y-66667290D01*
X134238961Y-66723202D01*
X134208642Y-66758202D01*
X134185445Y-66815210D01*
X134209290Y-66909404D01*
X134229738Y-66956507D01*
X134297005Y-67102350D01*
X134364039Y-67247742D01*
X134366093Y-67252198D01*
X134403090Y-67357538D01*
X134409328Y-67433038D01*
X134405796Y-67442065D01*
X134350287Y-67487021D01*
X134282641Y-67457409D01*
X134200200Y-67350790D01*
X134100308Y-67164727D01*
X134097731Y-67159385D01*
X133940365Y-66832392D01*
X133730000Y-66840076D01*
X133565433Y-66863900D01*
X133456015Y-66930340D01*
X133387789Y-67053408D01*
X133350522Y-67221150D01*
X133324351Y-67357387D01*
X133293400Y-67467066D01*
X133280730Y-67496927D01*
X133226541Y-67558120D01*
X133173170Y-67567648D01*
X133152100Y-67539119D01*
X133147357Y-67483827D01*
X133142218Y-67368665D01*
X133137768Y-67218136D01*
X133137628Y-67212126D01*
X133129621Y-67044805D01*
X133115320Y-66896594D01*
X133098962Y-66804645D01*
X133086919Y-66718794D01*
X133123615Y-66682141D01*
X133139823Y-66678067D01*
X133186206Y-66639333D01*
X133217212Y-66581221D01*
X133539535Y-66581221D01*
X133573396Y-66626872D01*
X133652343Y-66643727D01*
X133742418Y-66632538D01*
X133809663Y-66594058D01*
X133821259Y-66574977D01*
X133823410Y-66503268D01*
X133806309Y-66480044D01*
X133757462Y-66419664D01*
X133738196Y-66378820D01*
X133698316Y-66316685D01*
X133674209Y-66304983D01*
X133631543Y-66340235D01*
X133584226Y-66423561D01*
X133548659Y-66521318D01*
X133539535Y-66581221D01*
X133217212Y-66581221D01*
X133241530Y-66535644D01*
X133309029Y-66360159D01*
X133354960Y-66223006D01*
X133412835Y-66039650D01*
X133459389Y-65884065D01*
X133489197Y-65774902D01*
X133497342Y-65733403D01*
X133523949Y-65672645D01*
X133589582Y-65585439D01*
X133605837Y-65567347D01*
X133684088Y-65498082D01*
X133741387Y-65489497D01*
X133782752Y-65547773D01*
G37*
G36*
X138759929Y-65819835D02*
G01*
X138826915Y-65879550D01*
X138879971Y-65946608D01*
X138950811Y-66052957D01*
X138985448Y-66154611D01*
X138994343Y-66289014D01*
X138993270Y-66352201D01*
X138969066Y-66568976D01*
X138913647Y-66745554D01*
X138833536Y-66866409D01*
X138758057Y-66912018D01*
X138564429Y-66935030D01*
X138405629Y-66886519D01*
X138327549Y-66827903D01*
X138208889Y-66717933D01*
X138146552Y-66838451D01*
X138023580Y-67021327D01*
X137875762Y-67131036D01*
X137688741Y-67178144D01*
X137684480Y-67178522D01*
X137516086Y-67176362D01*
X137381787Y-67129850D01*
X137349717Y-67111007D01*
X137206941Y-66995690D01*
X137117843Y-66852672D01*
X137069068Y-66658235D01*
X137061684Y-66599494D01*
X137063818Y-66511695D01*
X137280053Y-66511695D01*
X137299627Y-66677252D01*
X137370308Y-66827209D01*
X137488603Y-66937140D01*
X137510880Y-66948978D01*
X137611143Y-66990450D01*
X137682691Y-66989429D01*
X137765983Y-66948017D01*
X137863639Y-66864030D01*
X137923891Y-66771610D01*
X137967908Y-66630702D01*
X137971067Y-66511543D01*
X137957975Y-66449092D01*
X138358500Y-66449092D01*
X138392846Y-66552951D01*
X138432834Y-66610880D01*
X138502235Y-66693901D01*
X138550390Y-66721323D01*
X138608118Y-66703955D01*
X138644245Y-66685041D01*
X138719847Y-66604773D01*
X138775579Y-66473857D01*
X138800710Y-66325533D01*
X138793196Y-66223656D01*
X138733483Y-66109459D01*
X138645630Y-66058421D01*
X138517670Y-66041915D01*
X138428402Y-66097459D01*
X138374945Y-66227587D01*
X138362200Y-66307549D01*
X138358500Y-66449092D01*
X137957975Y-66449092D01*
X137949877Y-66410465D01*
X137873391Y-66247911D01*
X137756947Y-66155100D01*
X137613842Y-66136424D01*
X137457376Y-66196280D01*
X137408213Y-66231488D01*
X137315084Y-66354964D01*
X137280053Y-66511695D01*
X137063818Y-66511695D01*
X137067459Y-66361906D01*
X137141836Y-66173208D01*
X137285133Y-66032707D01*
X137336430Y-66002551D01*
X137517992Y-65948144D01*
X137719429Y-65951570D01*
X137908015Y-66008903D01*
X138021073Y-66084675D01*
X138135669Y-66191444D01*
X138177854Y-66089991D01*
X138259782Y-65938939D01*
X138364708Y-65852954D01*
X138518368Y-65812763D01*
X138553178Y-65808906D01*
X138680561Y-65801292D01*
X138759929Y-65819835D01*
G37*
G36*
X120462010Y-68631647D02*
G01*
X120582758Y-68659465D01*
X120646188Y-68723460D01*
X120665675Y-68838061D01*
X120654592Y-69017695D01*
X120652543Y-69037630D01*
X120631073Y-69246903D01*
X120619379Y-69386807D01*
X120618590Y-69471913D01*
X120629838Y-69516795D01*
X120654255Y-69536025D01*
X120691860Y-69543994D01*
X120932942Y-69613145D01*
X121120963Y-69729815D01*
X121246957Y-69885658D01*
X121301961Y-70072330D01*
X121303654Y-70113499D01*
X121294795Y-70260489D01*
X121259339Y-70368533D01*
X121183968Y-70451024D01*
X121055365Y-70521352D01*
X120860214Y-70592911D01*
X120811061Y-70608858D01*
X120565782Y-70682029D01*
X120384914Y-70721705D01*
X120255828Y-70728837D01*
X120165898Y-70704374D01*
X120112496Y-70661379D01*
X120054757Y-70570108D01*
X119973442Y-70401780D01*
X119870119Y-70159890D01*
X119764309Y-69893180D01*
X120048259Y-69893180D01*
X120050080Y-70003572D01*
X120100902Y-70129147D01*
X120145668Y-70233944D01*
X120164192Y-70314449D01*
X120190294Y-70412787D01*
X120252331Y-70498254D01*
X120327062Y-70544929D01*
X120369244Y-70543156D01*
X120453941Y-70514275D01*
X120576549Y-70479089D01*
X120607475Y-70470996D01*
X120732242Y-70429501D01*
X120828737Y-70381132D01*
X120842857Y-70370541D01*
X120919474Y-70323095D01*
X120957914Y-70313289D01*
X121014050Y-70281282D01*
X121073173Y-70211320D01*
X121110252Y-70104338D01*
X121073498Y-70001055D01*
X120959193Y-69894834D01*
X120860631Y-69832006D01*
X120645587Y-69734285D01*
X120455514Y-69702321D01*
X120301524Y-69737836D01*
X120291030Y-69743684D01*
X120186126Y-69799549D01*
X120111711Y-69832320D01*
X120048259Y-69893180D01*
X119764309Y-69893180D01*
X119746359Y-69847933D01*
X119741153Y-69834428D01*
X119659783Y-69646801D01*
X119581732Y-69510064D01*
X119514624Y-69436503D01*
X119488396Y-69427242D01*
X119449597Y-69396309D01*
X119453705Y-69314580D01*
X119469179Y-69268763D01*
X119751929Y-69268763D01*
X119761158Y-69364632D01*
X119806380Y-69485379D01*
X119869559Y-69594232D01*
X119946313Y-69632122D01*
X120048686Y-69599779D01*
X120176815Y-69507830D01*
X120331210Y-69355414D01*
X120416820Y-69213373D01*
X120431538Y-69089410D01*
X120373260Y-68991227D01*
X120326665Y-68959613D01*
X120217059Y-68936160D01*
X120084467Y-68976869D01*
X119918358Y-69085181D01*
X119900747Y-69098880D01*
X119795965Y-69190394D01*
X119751929Y-69268763D01*
X119469179Y-69268763D01*
X119492853Y-69198665D01*
X119559177Y-69065172D01*
X119644811Y-68930710D01*
X119741890Y-68811886D01*
X119809464Y-68749259D01*
X119901411Y-68683368D01*
X119988480Y-68646065D01*
X120100157Y-68629439D01*
X120265930Y-68625582D01*
X120270569Y-68625581D01*
X120462010Y-68631647D01*
G37*
G36*
X122086601Y-65053151D02*
G01*
X122159182Y-65114739D01*
X122162049Y-65117430D01*
X122244794Y-65234433D01*
X122308512Y-65398796D01*
X122317324Y-65433876D01*
X122365446Y-65622131D01*
X122439471Y-65877836D01*
X122540610Y-66205025D01*
X122653925Y-66558139D01*
X122723839Y-66788212D01*
X122774255Y-66985116D01*
X122802151Y-67134853D01*
X122804504Y-67223425D01*
X122800157Y-67235387D01*
X122744640Y-67263088D01*
X122644653Y-67274761D01*
X122640782Y-67274759D01*
X122556025Y-67264962D01*
X122495991Y-67223462D01*
X122438025Y-67130572D01*
X122410214Y-67074344D01*
X122344039Y-66912937D01*
X122290711Y-66742490D01*
X122277428Y-66684717D01*
X122227135Y-66441073D01*
X122177066Y-66226046D01*
X122130770Y-66052763D01*
X122091796Y-65934352D01*
X122063693Y-65883942D01*
X122060701Y-65883056D01*
X122031161Y-65920178D01*
X121990396Y-66016576D01*
X121955002Y-66125664D01*
X121869616Y-66408787D01*
X121798695Y-66616224D01*
X121739320Y-66754863D01*
X121688571Y-66831593D01*
X121646578Y-66853430D01*
X121590614Y-66823115D01*
X121497126Y-66742768D01*
X121381525Y-66628071D01*
X121259225Y-66494709D01*
X121145636Y-66358366D01*
X121097257Y-66294435D01*
X121006598Y-66174916D01*
X120933329Y-66088260D01*
X120892328Y-66051971D01*
X120890944Y-66051767D01*
X120880720Y-66091311D01*
X120874113Y-66199604D01*
X120871584Y-66361070D01*
X120873590Y-66560132D01*
X120874631Y-66605259D01*
X120877142Y-66814384D01*
X120874066Y-66993257D01*
X120866077Y-67124869D01*
X120853846Y-67192212D01*
X120851267Y-67196174D01*
X120790984Y-67204051D01*
X120734430Y-67175427D01*
X120707346Y-67148591D01*
X120686159Y-67105165D01*
X120669499Y-67033891D01*
X120655996Y-66923511D01*
X120644280Y-66762766D01*
X120632983Y-66540398D01*
X120620734Y-66245149D01*
X120620484Y-66238775D01*
X120611821Y-65974158D01*
X120607360Y-65738003D01*
X120607079Y-65543349D01*
X120610958Y-65403237D01*
X120618976Y-65330708D01*
X120621969Y-65324277D01*
X120682269Y-65314304D01*
X120770757Y-65340872D01*
X120849772Y-65387748D01*
X120881760Y-65436257D01*
X120901519Y-65503568D01*
X120953016Y-65620673D01*
X121024663Y-65764956D01*
X121104870Y-65913801D01*
X121182046Y-66044591D01*
X121230187Y-66116179D01*
X121357916Y-66276882D01*
X121467931Y-66392874D01*
X121550254Y-66454606D01*
X121588480Y-66459161D01*
X121617528Y-66407471D01*
X121652994Y-66297575D01*
X121683723Y-66169092D01*
X121721174Y-66010802D01*
X121762368Y-65871744D01*
X121791140Y-65798132D01*
X121827713Y-65699648D01*
X121868013Y-65553806D01*
X121895599Y-65429708D01*
X121931426Y-65278794D01*
X121971936Y-65153835D01*
X122001773Y-65092705D01*
X122043664Y-65047277D01*
X122086601Y-65053151D01*
G37*
G36*
X120894698Y-81050411D02*
G01*
X121209830Y-81115432D01*
X121503304Y-81212441D01*
X121754818Y-81336009D01*
X121944066Y-81480708D01*
X121946731Y-81483426D01*
X122095746Y-81690576D01*
X122200809Y-81948249D01*
X122257534Y-82232435D01*
X122261539Y-82519123D01*
X122208439Y-82784305D01*
X122192303Y-82828343D01*
X122130946Y-82985349D01*
X122059330Y-83172022D01*
X122012984Y-83294648D01*
X121957608Y-83434072D01*
X121905637Y-83521309D01*
X121833075Y-83580749D01*
X121715930Y-83636783D01*
X121649042Y-83664601D01*
X121327216Y-83760429D01*
X121058344Y-83796662D01*
X120886404Y-83809303D01*
X120735236Y-83821787D01*
X120634966Y-83831609D01*
X120628571Y-83832390D01*
X120532045Y-83832296D01*
X120386839Y-83818642D01*
X120248837Y-83798355D01*
X120032982Y-83742015D01*
X119784168Y-83646254D01*
X119615946Y-83566269D01*
X119407366Y-83455916D01*
X119264076Y-83370986D01*
X119174523Y-83302033D01*
X119127153Y-83239610D01*
X119110411Y-83174271D01*
X119109634Y-83152329D01*
X119090275Y-83038697D01*
X119051984Y-82937356D01*
X118983739Y-82716538D01*
X118974775Y-82474368D01*
X119291632Y-82474368D01*
X119345793Y-82716910D01*
X119472540Y-82945634D01*
X119666281Y-83148555D01*
X119784717Y-83235418D01*
X119871244Y-83273466D01*
X120019390Y-83320739D01*
X120207684Y-83371742D01*
X120414653Y-83420981D01*
X120618824Y-83462962D01*
X120776245Y-83489132D01*
X120870114Y-83503610D01*
X120917426Y-83513279D01*
X120962524Y-83505836D01*
X121062902Y-83479955D01*
X121149486Y-83455155D01*
X121405728Y-83337095D01*
X121621162Y-83153519D01*
X121787068Y-82916959D01*
X121894727Y-82639945D01*
X121935418Y-82335008D01*
X121935513Y-82325562D01*
X121920866Y-82197808D01*
X121882571Y-82069588D01*
X121831394Y-81967369D01*
X121778096Y-81917619D01*
X121769076Y-81916279D01*
X121723695Y-81883423D01*
X121663650Y-81803007D01*
X121655670Y-81789852D01*
X121574304Y-81703547D01*
X121434261Y-81603490D01*
X121257478Y-81500874D01*
X121065890Y-81406895D01*
X120881434Y-81332747D01*
X120726047Y-81289625D01*
X120662834Y-81283178D01*
X120531481Y-81294142D01*
X120358014Y-81322491D01*
X120171901Y-81361820D01*
X120002610Y-81405725D01*
X119879609Y-81447801D01*
X119857975Y-81458115D01*
X119731604Y-81556354D01*
X119596246Y-81710490D01*
X119469012Y-81896167D01*
X119367012Y-82089035D01*
X119315651Y-82229998D01*
X119291632Y-82474368D01*
X118974775Y-82474368D01*
X118974180Y-82458295D01*
X119018425Y-82180697D01*
X119111591Y-81901817D01*
X119248797Y-81639727D01*
X119425160Y-81412497D01*
X119478076Y-81360193D01*
X119612774Y-81246872D01*
X119747070Y-81165974D01*
X119904038Y-81108235D01*
X120106756Y-81064393D01*
X120280684Y-81038042D01*
X120578215Y-81022805D01*
X120894698Y-81050411D01*
G37*
G36*
X128322903Y-68635470D02*
G01*
X128367479Y-68651192D01*
X128421564Y-68709348D01*
X128434435Y-68767222D01*
X128456233Y-68857138D01*
X128510868Y-68977272D01*
X128539218Y-69026412D01*
X128603036Y-69124300D01*
X128638760Y-69157129D01*
X128660257Y-69133054D01*
X128669737Y-69103168D01*
X128710403Y-69025836D01*
X128791880Y-68976102D01*
X128933381Y-68943761D01*
X128982724Y-68936897D01*
X129125864Y-68912216D01*
X129281215Y-68876774D01*
X129299169Y-68871991D01*
X129425100Y-68844181D01*
X129603508Y-68812617D01*
X129802929Y-68782153D01*
X129991894Y-68757645D01*
X130121927Y-68745042D01*
X130257443Y-68747147D01*
X130326332Y-68775120D01*
X130332890Y-68793268D01*
X130293658Y-68848939D01*
X130186977Y-68906539D01*
X130029371Y-68959658D01*
X129837364Y-69001887D01*
X129767565Y-69012573D01*
X129581897Y-69041473D01*
X129461555Y-69078127D01*
X129397350Y-69137897D01*
X129380095Y-69236148D01*
X129400601Y-69388242D01*
X129438785Y-69562329D01*
X129497458Y-69821397D01*
X129537030Y-70009502D01*
X129558797Y-70137566D01*
X129564056Y-70216508D01*
X129554104Y-70257249D01*
X129530238Y-70270711D01*
X129522948Y-70271096D01*
X129465053Y-70232159D01*
X129403647Y-70127365D01*
X129344425Y-69974738D01*
X129293084Y-69792302D01*
X129255321Y-69598081D01*
X129236829Y-69410100D01*
X129235880Y-69362709D01*
X129221339Y-69263189D01*
X129186047Y-69208297D01*
X129183139Y-69207085D01*
X129099698Y-69202035D01*
X128982113Y-69219896D01*
X128862577Y-69252512D01*
X128773286Y-69291728D01*
X128746373Y-69317729D01*
X128756363Y-69377361D01*
X128801169Y-69487844D01*
X128871838Y-69627884D01*
X128892095Y-69664308D01*
X129019928Y-69908889D01*
X129102917Y-70110226D01*
X129138753Y-70261105D01*
X129125124Y-70354313D01*
X129116544Y-70365116D01*
X129058871Y-70378508D01*
X128991693Y-70311383D01*
X128914035Y-70162524D01*
X128872389Y-70060750D01*
X128807543Y-69909580D01*
X128735151Y-69764159D01*
X128715386Y-69729127D01*
X128652544Y-69637346D01*
X128587878Y-69602622D01*
X128483432Y-69606659D01*
X128466028Y-69608932D01*
X128354988Y-69628523D01*
X128284832Y-69649602D01*
X128277294Y-69654489D01*
X128262780Y-69703896D01*
X128242657Y-69817926D01*
X128220075Y-69977272D01*
X128206254Y-70090066D01*
X128180304Y-70288807D01*
X128155153Y-70416832D01*
X128127082Y-70487690D01*
X128092368Y-70514929D01*
X128089376Y-70515595D01*
X128016656Y-70507380D01*
X127996301Y-70490321D01*
X127989793Y-70432973D01*
X127993460Y-70314378D01*
X128006386Y-70156942D01*
X128012089Y-70104107D01*
X128028053Y-69913248D01*
X128033751Y-69728886D01*
X128028222Y-69586849D01*
X128026384Y-69571546D01*
X128016684Y-69447699D01*
X128037518Y-69371218D01*
X128098419Y-69307741D01*
X128099882Y-69306554D01*
X128124498Y-69282058D01*
X128349834Y-69282058D01*
X128376381Y-69338247D01*
X128434486Y-69327250D01*
X128445376Y-69317636D01*
X128457314Y-69265845D01*
X128432914Y-69211435D01*
X128392073Y-69195634D01*
X128387605Y-69197915D01*
X128352919Y-69256149D01*
X128349834Y-69282058D01*
X128124498Y-69282058D01*
X128152360Y-69254332D01*
X128181863Y-69188662D01*
X128194390Y-69085788D01*
X128195978Y-68926046D01*
X128198463Y-68759447D01*
X128215071Y-68664097D01*
X128253864Y-68627077D01*
X128322903Y-68635470D01*
G37*
G36*
X116236302Y-69945246D02*
G01*
X116254765Y-69975747D01*
X116321667Y-70097726D01*
X116399101Y-70247308D01*
X116477356Y-70404560D01*
X116546721Y-70549546D01*
X116597484Y-70662331D01*
X116619933Y-70722980D01*
X116620265Y-70726009D01*
X116652537Y-70775512D01*
X116738795Y-70859637D01*
X116863201Y-70965615D01*
X117009921Y-71080680D01*
X117163117Y-71192063D01*
X117306954Y-71286997D01*
X117342831Y-71308563D01*
X117442163Y-71375732D01*
X117495473Y-71417813D01*
X117686910Y-71548440D01*
X117939281Y-71672242D01*
X118229181Y-71779557D01*
X118533206Y-71860723D01*
X118601690Y-71874493D01*
X118759192Y-71897597D01*
X118990863Y-71922463D01*
X119286522Y-71948419D01*
X119635987Y-71974791D01*
X120029078Y-72000907D01*
X120455614Y-72026094D01*
X120905413Y-72049679D01*
X121368294Y-72070988D01*
X121834075Y-72089349D01*
X121873255Y-72090744D01*
X122227037Y-72101971D01*
X122634244Y-72112709D01*
X123085861Y-72122869D01*
X123572872Y-72132362D01*
X124086260Y-72141100D01*
X124617011Y-72148995D01*
X125156108Y-72155957D01*
X125694535Y-72161899D01*
X126223277Y-72166731D01*
X126733318Y-72170366D01*
X127215643Y-72172713D01*
X127661234Y-72173686D01*
X128061077Y-72173194D01*
X128406155Y-72171151D01*
X128687453Y-72167466D01*
X128895955Y-72162052D01*
X128940531Y-72160192D01*
X129208436Y-72148515D01*
X129485689Y-72137945D01*
X129743521Y-72129484D01*
X129953164Y-72124138D01*
X129995348Y-72123395D01*
X130199283Y-72117219D01*
X130397110Y-72106036D01*
X130555861Y-72091877D01*
X130598527Y-72086225D01*
X130736694Y-72073012D01*
X130829769Y-72090245D01*
X130904424Y-72136633D01*
X130978199Y-72217041D01*
X131007973Y-72292669D01*
X131026006Y-72367673D01*
X131073033Y-72489422D01*
X131131676Y-72616600D01*
X131213355Y-72783234D01*
X131310293Y-72983868D01*
X131401991Y-73176068D01*
X131404982Y-73182392D01*
X131505071Y-73384914D01*
X131621552Y-73607254D01*
X131725194Y-73794186D01*
X131820021Y-73962366D01*
X131909861Y-74128475D01*
X131976461Y-74258704D01*
X131980483Y-74267074D01*
X132050201Y-74384989D01*
X132110521Y-74423853D01*
X132127266Y-74420782D01*
X132154874Y-74394034D01*
X132173195Y-74330115D01*
X132183812Y-74215780D01*
X132188306Y-74037784D01*
X132188737Y-73905702D01*
X132194042Y-73667381D01*
X132208955Y-73381423D01*
X132231190Y-73083734D01*
X132258461Y-72810219D01*
X132258522Y-72809691D01*
X132287365Y-72570856D01*
X132311256Y-72402634D01*
X132333554Y-72291666D01*
X132357619Y-72224591D01*
X132386812Y-72188047D01*
X132419244Y-72170598D01*
X132491766Y-72156886D01*
X132631441Y-72141964D01*
X132821076Y-72127266D01*
X133043481Y-72114228D01*
X133158224Y-72108922D01*
X133384510Y-72098222D01*
X133580752Y-72086745D01*
X133731581Y-72075564D01*
X133821623Y-72065749D01*
X133839465Y-72061454D01*
X133887093Y-72048710D01*
X133988544Y-72037250D01*
X134146731Y-72027023D01*
X134364571Y-72017974D01*
X134644978Y-72010051D01*
X134990867Y-72003201D01*
X135405154Y-71997371D01*
X135890754Y-71992506D01*
X136450582Y-71988555D01*
X137087552Y-71985464D01*
X137804580Y-71983181D01*
X138180731Y-71982350D01*
X138865746Y-71980565D01*
X139468813Y-71977987D01*
X139992365Y-71974578D01*
X140438836Y-71970301D01*
X140810658Y-71965118D01*
X141110266Y-71958990D01*
X141340094Y-71951880D01*
X141502573Y-71943750D01*
X141600139Y-71934562D01*
X141628141Y-71928664D01*
X141849067Y-71829462D01*
X142064216Y-71683331D01*
X142232943Y-71536877D01*
X142353545Y-71425136D01*
X142511945Y-71279646D01*
X142683292Y-71123190D01*
X142780349Y-71035007D01*
X142924449Y-70899407D01*
X143046030Y-70775758D01*
X143130258Y-70679701D01*
X143160412Y-70634176D01*
X143179753Y-70615961D01*
X143192205Y-70676408D01*
X143198186Y-70817992D01*
X143198686Y-70861794D01*
X143197988Y-71025238D01*
X143186968Y-71131341D01*
X143156761Y-71207131D01*
X143098500Y-71279639D01*
X143043138Y-71336066D01*
X142964243Y-71412669D01*
X142880544Y-71487903D01*
X142777826Y-71573450D01*
X142641872Y-71680992D01*
X142458468Y-71822211D01*
X142362374Y-71895515D01*
X142260837Y-71983318D01*
X142191550Y-72062685D01*
X142176650Y-72091352D01*
X142121187Y-72146987D01*
X142000307Y-72190655D01*
X141972672Y-72196567D01*
X141864515Y-72208052D01*
X141684626Y-72216041D01*
X141445580Y-72220654D01*
X141159951Y-72222011D01*
X140840316Y-72220232D01*
X140499248Y-72215437D01*
X140149325Y-72207748D01*
X139803120Y-72197283D01*
X139473210Y-72184163D01*
X139198091Y-72170038D01*
X138964422Y-72157717D01*
X138760440Y-72149393D01*
X138600946Y-72145476D01*
X138500739Y-72146375D01*
X138473971Y-72149974D01*
X138425101Y-72155743D01*
X138302461Y-72162374D01*
X138116657Y-72169520D01*
X137878293Y-72176836D01*
X137597977Y-72183974D01*
X137286314Y-72190587D01*
X137161261Y-72192901D01*
X136813292Y-72200197D01*
X136468290Y-72209480D01*
X136142105Y-72220170D01*
X135850586Y-72231691D01*
X135609583Y-72243466D01*
X135434944Y-72254917D01*
X135417109Y-72256425D01*
X135223783Y-72271676D01*
X134969313Y-72289203D01*
X134676857Y-72307551D01*
X134369573Y-72325262D01*
X134088039Y-72340022D01*
X133804178Y-72354882D01*
X133528729Y-72370774D01*
X133280366Y-72386513D01*
X133077764Y-72400910D01*
X132939598Y-72412780D01*
X132933413Y-72413422D01*
X132643737Y-72444020D01*
X132561555Y-72697176D01*
X132521414Y-72861526D01*
X132481985Y-73101949D01*
X132444447Y-73410134D01*
X132412122Y-73751993D01*
X132386135Y-74067604D01*
X132367590Y-74312025D01*
X132356147Y-74498091D01*
X132351465Y-74638637D01*
X132353203Y-74746498D01*
X132361021Y-74834511D01*
X132374577Y-74915509D01*
X132380477Y-74943937D01*
X132394156Y-75037290D01*
X132370874Y-75074669D01*
X132309016Y-75081063D01*
X132201519Y-75049989D01*
X132142284Y-75004169D01*
X132074454Y-74910349D01*
X132011009Y-74803754D01*
X131907145Y-74608670D01*
X131833755Y-74473949D01*
X131782432Y-74385058D01*
X131744770Y-74327466D01*
X131712360Y-74286642D01*
X131710842Y-74284911D01*
X131673225Y-74226029D01*
X131613184Y-74115666D01*
X131541267Y-73975241D01*
X131468021Y-73826169D01*
X131403995Y-73689867D01*
X131359735Y-73587753D01*
X131345515Y-73543128D01*
X131325225Y-73501344D01*
X131271747Y-73407177D01*
X131196167Y-73280084D01*
X131187292Y-73265444D01*
X131079596Y-73083018D01*
X130962411Y-72876868D01*
X130881395Y-72729156D01*
X130733721Y-72453405D01*
X129805481Y-72455253D01*
X129516210Y-72453521D01*
X129163853Y-72447707D01*
X128769579Y-72438383D01*
X128354561Y-72426120D01*
X127939969Y-72411490D01*
X127546973Y-72395064D01*
X127505980Y-72393173D01*
X127074057Y-72374221D01*
X126696924Y-72360798D01*
X126352875Y-72352799D01*
X126020207Y-72350119D01*
X125677217Y-72352652D01*
X125302201Y-72360293D01*
X124873455Y-72372937D01*
X124679069Y-72379475D01*
X124251462Y-72393457D01*
X123892915Y-72403101D01*
X123588210Y-72408324D01*
X123322129Y-72409039D01*
X123079455Y-72405163D01*
X122844969Y-72396611D01*
X122603453Y-72383298D01*
X122359249Y-72366575D01*
X122097391Y-72348484D01*
X121864268Y-72334355D01*
X121672930Y-72324817D01*
X121536426Y-72320499D01*
X121467805Y-72322030D01*
X121462839Y-72323366D01*
X121410410Y-72326101D01*
X121292564Y-72318408D01*
X121127421Y-72301808D01*
X120955749Y-72280826D01*
X120453904Y-72222027D01*
X119996963Y-72184918D01*
X119549045Y-72166806D01*
X119407851Y-72164642D01*
X119047451Y-72148427D01*
X118694086Y-72109155D01*
X118363956Y-72050176D01*
X118073260Y-71974839D01*
X117838198Y-71886492D01*
X117707262Y-71813084D01*
X117615549Y-71763559D01*
X117554234Y-71747840D01*
X117488658Y-71725042D01*
X117372521Y-71664226D01*
X117223686Y-71576761D01*
X117060017Y-71474014D01*
X116899378Y-71367355D01*
X116759630Y-71268151D01*
X116658639Y-71187771D01*
X116629000Y-71159020D01*
X116556480Y-71066979D01*
X116462652Y-70932673D01*
X116376207Y-70798505D01*
X116294904Y-70658140D01*
X116246392Y-70541845D01*
X116220897Y-70415472D01*
X116208644Y-70244875D01*
X116207128Y-70207807D01*
X116201886Y-70043722D01*
X116203471Y-69952720D01*
X116214178Y-69923622D01*
X116236302Y-69945246D01*
G37*
G36*
X138338450Y-73647520D02*
G01*
X138807820Y-73719252D01*
X139250133Y-73836188D01*
X139681899Y-74001587D01*
X140043719Y-74177818D01*
X140149677Y-74221454D01*
X140228920Y-74237209D01*
X140303781Y-74258399D01*
X140419049Y-74312964D01*
X140507844Y-74363787D01*
X140623267Y-74432486D01*
X140707729Y-74478456D01*
X140736968Y-74490365D01*
X140787050Y-74513776D01*
X140883712Y-74574632D01*
X141006692Y-74658868D01*
X141135730Y-74752420D01*
X141250565Y-74841222D01*
X141291717Y-74875463D01*
X141382684Y-74961751D01*
X141496733Y-75081217D01*
X141620225Y-75218053D01*
X141739520Y-75356450D01*
X141840980Y-75480599D01*
X141910966Y-75574690D01*
X141935880Y-75622107D01*
X141964792Y-75679594D01*
X141996407Y-75711661D01*
X142053410Y-75779620D01*
X142121781Y-75887902D01*
X142141791Y-75924695D01*
X142205628Y-76045495D01*
X142259853Y-76145360D01*
X142270570Y-76164429D01*
X142305867Y-76233114D01*
X142367131Y-76358981D01*
X142444993Y-76522586D01*
X142510943Y-76663289D01*
X142638594Y-76967513D01*
X142735989Y-77274001D01*
X142807112Y-77602005D01*
X142855951Y-77970779D01*
X142886490Y-78399574D01*
X142890936Y-78498671D01*
X142893419Y-79039834D01*
X142855347Y-79531645D01*
X142777796Y-79964623D01*
X142692689Y-80249668D01*
X142642162Y-80411839D01*
X142593509Y-80605974D01*
X142567747Y-80733045D01*
X142530015Y-80870843D01*
X142461038Y-81057235D01*
X142370995Y-81270122D01*
X142270061Y-81487404D01*
X142168415Y-81686982D01*
X142076235Y-81846754D01*
X142015903Y-81931344D01*
X141972966Y-81990942D01*
X141902534Y-82097992D01*
X141830883Y-82211628D01*
X141742092Y-82348271D01*
X141658038Y-82466306D01*
X141607621Y-82528073D01*
X141543433Y-82602176D01*
X141447593Y-82719845D01*
X141339371Y-82857358D01*
X141324853Y-82876163D01*
X141225678Y-83000117D01*
X141144461Y-83092781D01*
X141095647Y-83137913D01*
X141090316Y-83139867D01*
X141047153Y-83168279D01*
X141040682Y-83256681D01*
X141071485Y-83409822D01*
X141140140Y-83632453D01*
X141156149Y-83679085D01*
X141274096Y-84123491D01*
X141340107Y-84621206D01*
X141352996Y-85158116D01*
X141321040Y-85637147D01*
X141299631Y-85871665D01*
X141291308Y-86076819D01*
X141296385Y-86284335D01*
X141315174Y-86525940D01*
X141331380Y-86684053D01*
X141358393Y-86938356D01*
X141385876Y-87204124D01*
X141410531Y-87449063D01*
X141428359Y-87633388D01*
X141444467Y-87803962D01*
X141457708Y-87940755D01*
X141466098Y-88023407D01*
X141467797Y-88037735D01*
X141502528Y-88064100D01*
X141560817Y-88052455D01*
X141597493Y-88013751D01*
X141598339Y-88006091D01*
X141617226Y-87953875D01*
X141661889Y-87967868D01*
X141714331Y-88042134D01*
X141715613Y-88044767D01*
X141761398Y-88139701D01*
X141764227Y-88034219D01*
X141771883Y-87972191D01*
X141805034Y-87943231D01*
X141885523Y-87938055D01*
X141978046Y-87943358D01*
X142103155Y-87944439D01*
X142177506Y-87929652D01*
X142189036Y-87916105D01*
X142228076Y-87895334D01*
X142332919Y-87871877D01*
X142485147Y-87848343D01*
X142666345Y-87827341D01*
X142858094Y-87811478D01*
X142969601Y-87805551D01*
X143038107Y-87773869D01*
X143047643Y-87725421D01*
X143063510Y-87669910D01*
X143103834Y-87672681D01*
X143169087Y-87694031D01*
X143184015Y-87696678D01*
X143188839Y-87736987D01*
X143193159Y-87850384D01*
X143196788Y-88025570D01*
X143199536Y-88251250D01*
X143201215Y-88516123D01*
X143201661Y-88751495D01*
X143201661Y-89806312D01*
X129700000Y-89806312D01*
X116198339Y-89806312D01*
X116198339Y-89229679D01*
X133173865Y-89229679D01*
X133179656Y-89254762D01*
X133201993Y-89257807D01*
X133236722Y-89242369D01*
X133230121Y-89229679D01*
X133180049Y-89224629D01*
X133173865Y-89229679D01*
X116198339Y-89229679D01*
X116198339Y-89067940D01*
X129531229Y-89067940D01*
X129552325Y-89089036D01*
X129573422Y-89067940D01*
X129552325Y-89046844D01*
X129531229Y-89067940D01*
X116198339Y-89067940D01*
X116198339Y-88814784D01*
X116198760Y-88650766D01*
X116508191Y-88650766D01*
X116514784Y-88667109D01*
X116552698Y-88707361D01*
X116559466Y-88709302D01*
X116577589Y-88676658D01*
X116578073Y-88667109D01*
X116545637Y-88626538D01*
X116533390Y-88624917D01*
X116508191Y-88650766D01*
X116198760Y-88650766D01*
X116199055Y-88535642D01*
X116201065Y-88286905D01*
X116204163Y-88080224D01*
X116208140Y-87927253D01*
X116212790Y-87839644D01*
X116215984Y-87823256D01*
X116265871Y-87810217D01*
X116293368Y-87800332D01*
X116340629Y-87809638D01*
X116349559Y-87868642D01*
X116380420Y-87960508D01*
X116430398Y-88007595D01*
X116505510Y-88050896D01*
X116535814Y-88069313D01*
X116523200Y-88100866D01*
X116475605Y-88142715D01*
X116422387Y-88195610D01*
X116436266Y-88233260D01*
X116523268Y-88260041D01*
X116661530Y-88277751D01*
X116782142Y-88295933D01*
X116858888Y-88320171D01*
X116873422Y-88334936D01*
X116910829Y-88358140D01*
X117004118Y-88370906D01*
X117039702Y-88371761D01*
X117150068Y-88379058D01*
X117218269Y-88397200D01*
X117225285Y-88403405D01*
X117199877Y-88420607D01*
X117114275Y-88430874D01*
X116992369Y-88434423D01*
X116858048Y-88431468D01*
X116735199Y-88422225D01*
X116647712Y-88406910D01*
X116626096Y-88398000D01*
X116558713Y-88391727D01*
X116532268Y-88419096D01*
X116526804Y-88464899D01*
X116592600Y-88488979D01*
X116610823Y-88491524D01*
X116716256Y-88517481D01*
X116778025Y-88549047D01*
X116855541Y-88571445D01*
X116976201Y-88564823D01*
X116986439Y-88562998D01*
X117084162Y-88547951D01*
X117113962Y-88557514D01*
X117090056Y-88596966D01*
X117087217Y-88600408D01*
X117063585Y-88640348D01*
X117088444Y-88661406D01*
X117176565Y-88670704D01*
X117237441Y-88672857D01*
X117404092Y-88679092D01*
X117569509Y-88687651D01*
X117611794Y-88690392D01*
X117881926Y-88707323D01*
X118195605Y-88723910D01*
X118525087Y-88738944D01*
X118842625Y-88751217D01*
X119120475Y-88759518D01*
X119257309Y-88762100D01*
X119679236Y-88767435D01*
X119682170Y-88506339D01*
X120019197Y-88506339D01*
X120019918Y-88547096D01*
X120036087Y-88674271D01*
X120078539Y-88739734D01*
X120105927Y-88753703D01*
X120184570Y-88756859D01*
X120216546Y-88735188D01*
X120243556Y-88713964D01*
X120248191Y-88740947D01*
X120286026Y-88775408D01*
X120400913Y-88789949D01*
X120470348Y-88790356D01*
X120582744Y-88785038D01*
X120640812Y-88774801D01*
X120638856Y-88765656D01*
X120601507Y-88728908D01*
X120604344Y-88714368D01*
X120586444Y-88671665D01*
X120521407Y-88590160D01*
X120435836Y-88500166D01*
X120337806Y-88398023D01*
X120270101Y-88316891D01*
X120248837Y-88278825D01*
X120225326Y-88221106D01*
X120169453Y-88135471D01*
X120103210Y-88051332D01*
X120048588Y-87998096D01*
X120034382Y-87992026D01*
X120022799Y-88027901D01*
X120032834Y-88116161D01*
X120036907Y-88135416D01*
X120051407Y-88244642D01*
X120043600Y-88319623D01*
X120041389Y-88323880D01*
X120025346Y-88391742D01*
X120019197Y-88506339D01*
X119682170Y-88506339D01*
X119687031Y-88073834D01*
X119689336Y-87814416D01*
X119687943Y-87618949D01*
X119680447Y-87467008D01*
X119664442Y-87338171D01*
X119637522Y-87212010D01*
X119597281Y-87068104D01*
X119550662Y-86916113D01*
X119407372Y-86392375D01*
X119316899Y-85904959D01*
X119282875Y-85514978D01*
X119615946Y-85514978D01*
X119620488Y-85789339D01*
X119636763Y-86014932D01*
X119668747Y-86227018D01*
X119720419Y-86460856D01*
X119724481Y-86477352D01*
X119774877Y-86665103D01*
X119825452Y-86826381D01*
X119869366Y-86940713D01*
X119893251Y-86982724D01*
X119942619Y-87056437D01*
X119953488Y-87093931D01*
X119975069Y-87157452D01*
X120032738Y-87269646D01*
X120115887Y-87413828D01*
X120213906Y-87573314D01*
X120316186Y-87731417D01*
X120412117Y-87871453D01*
X120491090Y-87976735D01*
X120542496Y-88030578D01*
X120551364Y-88034219D01*
X120585092Y-88067800D01*
X120588135Y-88086960D01*
X120616897Y-88156005D01*
X120685869Y-88248100D01*
X120774104Y-88341590D01*
X120860657Y-88414825D01*
X120924581Y-88446150D01*
X120934439Y-88444947D01*
X120973016Y-88392671D01*
X120998427Y-88290025D01*
X121001278Y-88260487D01*
X121016897Y-88137351D01*
X121047642Y-87968287D01*
X121087001Y-87788928D01*
X121088900Y-87781063D01*
X121127856Y-87596753D01*
X121156682Y-87415693D01*
X121169235Y-87276581D01*
X121169273Y-87274751D01*
X121174386Y-87151789D01*
X121185170Y-86979546D01*
X121200059Y-86776454D01*
X121217482Y-86560946D01*
X121235872Y-86351453D01*
X121253659Y-86166409D01*
X121269275Y-86024246D01*
X121281151Y-85943396D01*
X121283281Y-85935133D01*
X121334317Y-85892897D01*
X121417177Y-85884678D01*
X121485251Y-85913368D01*
X121492034Y-85922177D01*
X121496243Y-85974823D01*
X121493394Y-86097876D01*
X121484197Y-86277719D01*
X121469358Y-86500732D01*
X121449586Y-86753296D01*
X121447626Y-86776579D01*
X121424817Y-87064298D01*
X121404507Y-87355184D01*
X121388095Y-87626448D01*
X121376979Y-87855298D01*
X121372786Y-87996099D01*
X121364158Y-88208489D01*
X121346173Y-88366155D01*
X121320499Y-88455554D01*
X121315308Y-88463210D01*
X121281629Y-88547388D01*
X121273105Y-88662511D01*
X121273115Y-88662656D01*
X121283884Y-88749517D01*
X121316782Y-88784394D01*
X121397100Y-88783384D01*
X121451329Y-88776092D01*
X121574110Y-88765969D01*
X121767285Y-88758949D01*
X122016920Y-88754964D01*
X122309081Y-88753946D01*
X122629837Y-88755827D01*
X122965254Y-88760539D01*
X123301400Y-88768012D01*
X123624341Y-88778181D01*
X123856312Y-88787854D01*
X124105984Y-88799614D01*
X124337079Y-88810484D01*
X124531729Y-88819626D01*
X124672067Y-88826200D01*
X124727236Y-88828770D01*
X124832936Y-88824993D01*
X124885205Y-88789191D01*
X124908768Y-88724783D01*
X124917430Y-88639203D01*
X124919437Y-88494430D01*
X124915815Y-88311031D01*
X124907589Y-88109575D01*
X124895785Y-87910632D01*
X124881428Y-87734770D01*
X124865542Y-87602557D01*
X124849473Y-87535147D01*
X124810953Y-87522122D01*
X124756878Y-87573551D01*
X124699182Y-87674104D01*
X124657983Y-87781063D01*
X124595753Y-87915761D01*
X124506156Y-88038543D01*
X124408891Y-88126997D01*
X124325972Y-88158803D01*
X124235344Y-88134103D01*
X124093036Y-88069176D01*
X123915324Y-87973829D01*
X123718478Y-87857869D01*
X123518772Y-87731102D01*
X123332480Y-87603338D01*
X123175873Y-87484382D01*
X123104122Y-87422425D01*
X122884251Y-87165017D01*
X122740682Y-86874148D01*
X122675718Y-86556915D01*
X122681226Y-86440654D01*
X122915849Y-86440654D01*
X122918812Y-86605788D01*
X122926554Y-86675064D01*
X122946558Y-86768856D01*
X122978538Y-86850988D01*
X123034528Y-86942703D01*
X123126563Y-87065242D01*
X123199215Y-87156343D01*
X123268402Y-87223067D01*
X123385843Y-87317443D01*
X123534888Y-87428018D01*
X123698885Y-87543341D01*
X123861184Y-87651958D01*
X124005136Y-87742417D01*
X124114088Y-87803268D01*
X124168857Y-87823256D01*
X124212936Y-87852199D01*
X124214950Y-87864124D01*
X124234930Y-87897220D01*
X124285775Y-87870314D01*
X124353836Y-87795096D01*
X124424938Y-87684230D01*
X124494026Y-87555083D01*
X124581965Y-87386879D01*
X124669745Y-87215978D01*
X124669950Y-87215575D01*
X124817923Y-86924339D01*
X124790842Y-86420682D01*
X124764887Y-86113659D01*
X124724182Y-85888287D01*
X124668275Y-85743056D01*
X124596714Y-85676450D01*
X124566883Y-85671428D01*
X124496606Y-85708285D01*
X124431858Y-85799266D01*
X124390303Y-85914986D01*
X124383721Y-85976165D01*
X124359771Y-86068087D01*
X124290338Y-86091890D01*
X124179044Y-86048081D01*
X124029514Y-85937168D01*
X124015112Y-85924623D01*
X123825673Y-85789815D01*
X123630088Y-85706122D01*
X123449990Y-85681542D01*
X123383233Y-85691003D01*
X123294391Y-85735151D01*
X123181654Y-85819213D01*
X123118582Y-85876816D01*
X123016412Y-85992131D01*
X122960144Y-86104840D01*
X122929612Y-86256690D01*
X122927638Y-86272093D01*
X122915849Y-86440654D01*
X122681226Y-86440654D01*
X122691661Y-86220414D01*
X122699739Y-86175910D01*
X122786844Y-85913837D01*
X122931676Y-85705960D01*
X123122108Y-85563791D01*
X123278387Y-85516749D01*
X123478266Y-85502347D01*
X123687991Y-85519502D01*
X123873807Y-85567132D01*
X123924497Y-85589541D01*
X124064790Y-85638995D01*
X124163751Y-85627796D01*
X124211854Y-85558082D01*
X124214950Y-85524341D01*
X124250135Y-85440710D01*
X124336933Y-85352025D01*
X124447205Y-85280816D01*
X124552811Y-85249610D01*
X124558245Y-85249501D01*
X124627243Y-85245157D01*
X124663212Y-85218307D01*
X124676903Y-85148229D01*
X124679069Y-85016638D01*
X124678482Y-84984904D01*
X124864180Y-84984904D01*
X124868613Y-85006893D01*
X124886666Y-85088327D01*
X124910820Y-85238639D01*
X124939320Y-85442691D01*
X124970409Y-85685345D01*
X125002329Y-85951459D01*
X125033325Y-86225896D01*
X125061638Y-86493516D01*
X125085513Y-86739179D01*
X125103193Y-86947747D01*
X125112919Y-87104079D01*
X125113383Y-87116154D01*
X125123774Y-87331634D01*
X125138831Y-87479573D01*
X125161461Y-87576797D01*
X125194572Y-87640133D01*
X125206374Y-87654370D01*
X125268808Y-87709954D01*
X125303407Y-87719295D01*
X125312103Y-87670483D01*
X125317036Y-87559255D01*
X125317368Y-87407528D01*
X125316741Y-87370946D01*
X125300510Y-87038415D01*
X125267321Y-86690221D01*
X125221049Y-86359247D01*
X125165568Y-86078380D01*
X125163355Y-86069240D01*
X125124988Y-85889664D01*
X125086997Y-85675680D01*
X125060506Y-85494991D01*
X125024518Y-85274069D01*
X124980385Y-85102423D01*
X124931946Y-84991863D01*
X124884585Y-84954153D01*
X124864180Y-84984904D01*
X124678482Y-84984904D01*
X124676622Y-84884304D01*
X124663728Y-84817872D01*
X124632057Y-84798886D01*
X124584136Y-84806272D01*
X124321031Y-84862676D01*
X124021214Y-84917495D01*
X123793023Y-84953390D01*
X123606949Y-84981896D01*
X123416931Y-85013609D01*
X123307807Y-85033420D01*
X123032901Y-85049072D01*
X122906976Y-85028383D01*
X122806308Y-85009195D01*
X122680056Y-84995266D01*
X122517668Y-84986314D01*
X122308594Y-84982061D01*
X122042282Y-84982226D01*
X121708181Y-84986530D01*
X121485369Y-84990688D01*
X120928711Y-85001911D01*
X120778751Y-85167899D01*
X120691024Y-85260854D01*
X120626982Y-85321089D01*
X120607086Y-85333887D01*
X120598075Y-85296600D01*
X120600953Y-85202745D01*
X120605578Y-85154568D01*
X120613065Y-85063455D01*
X120609230Y-85034914D01*
X120602983Y-85049086D01*
X120546770Y-85107321D01*
X120446158Y-85121582D01*
X120358510Y-85117570D01*
X120345203Y-85099984D01*
X120394027Y-85058292D01*
X120439178Y-85012553D01*
X120429123Y-84996345D01*
X120348886Y-84982070D01*
X120321122Y-84972863D01*
X120261350Y-84987405D01*
X120230827Y-85046700D01*
X120206711Y-85114019D01*
X120185512Y-85103847D01*
X120164958Y-85059634D01*
X120138513Y-85008793D01*
X120127849Y-85031636D01*
X120125224Y-85088967D01*
X120130319Y-85158132D01*
X120164856Y-85193864D01*
X120250635Y-85210137D01*
X120322674Y-85215545D01*
X120523089Y-85228405D01*
X120396511Y-85297619D01*
X120303182Y-85340029D01*
X120246652Y-85334987D01*
X120216878Y-85309612D01*
X120143368Y-85271892D01*
X120103927Y-85275375D01*
X120062387Y-85272418D01*
X120066969Y-85210642D01*
X120063470Y-85140037D01*
X120024437Y-85124673D01*
X119981431Y-85175664D01*
X119962857Y-85190464D01*
X119956819Y-85154568D01*
X119918884Y-85088726D01*
X119879651Y-85074304D01*
X119772595Y-85062947D01*
X119712540Y-85047890D01*
X119668687Y-85024385D01*
X119645959Y-85028129D01*
X119630431Y-85079531D01*
X119621015Y-85188708D01*
X119616623Y-85365781D01*
X119615946Y-85514978D01*
X119282875Y-85514978D01*
X119275267Y-85427775D01*
X119272869Y-85093880D01*
X119284456Y-84579620D01*
X119102112Y-84463790D01*
X118787129Y-84259787D01*
X118447579Y-84033131D01*
X118277809Y-83917319D01*
X118153131Y-83818443D01*
X117990498Y-83670836D01*
X117805709Y-83490814D01*
X117614568Y-83294692D01*
X117432874Y-83098786D01*
X117276429Y-82919413D01*
X117161034Y-82772887D01*
X117139598Y-82742023D01*
X117056490Y-82625876D01*
X116979826Y-82532290D01*
X116954972Y-82506977D01*
X116880044Y-82411074D01*
X116790946Y-82252845D01*
X116696926Y-82051031D01*
X116607232Y-81824377D01*
X116580221Y-81747508D01*
X116517023Y-81563284D01*
X116450477Y-81371907D01*
X116408384Y-81252549D01*
X116352717Y-81074461D01*
X116308321Y-80878982D01*
X116274179Y-80655119D01*
X116249271Y-80391884D01*
X116232581Y-80078286D01*
X116223089Y-79703334D01*
X116219780Y-79256038D01*
X116219751Y-79215947D01*
X116219834Y-78984499D01*
X116397978Y-78984499D01*
X116402525Y-79227577D01*
X116412797Y-79479549D01*
X116427840Y-79721293D01*
X116446698Y-79933684D01*
X116468416Y-80097597D01*
X116489070Y-80186379D01*
X116514355Y-80274709D01*
X116549122Y-80420141D01*
X116587331Y-80596832D01*
X116602286Y-80670776D01*
X116643290Y-80848246D01*
X116689015Y-80999967D01*
X116731887Y-81102236D01*
X116747452Y-81124991D01*
X116798725Y-81219877D01*
X116822876Y-81340523D01*
X116840186Y-81478693D01*
X116875743Y-81601937D01*
X116920456Y-81684850D01*
X116953410Y-81705315D01*
X116989148Y-81741735D01*
X117020612Y-81829786D01*
X117021548Y-81833951D01*
X117055857Y-81919760D01*
X117126604Y-82054460D01*
X117221550Y-82218012D01*
X117328456Y-82390375D01*
X117435083Y-82551510D01*
X117529192Y-82681377D01*
X117567873Y-82728488D01*
X117618899Y-82796853D01*
X117632890Y-82829592D01*
X117661774Y-82870585D01*
X117739163Y-82954890D01*
X117851168Y-83069009D01*
X117983896Y-83199442D01*
X118123457Y-83332690D01*
X118255959Y-83455256D01*
X118367512Y-83553640D01*
X118429803Y-83603987D01*
X118552259Y-83695920D01*
X118668104Y-83783654D01*
X118682136Y-83794364D01*
X118866038Y-83927026D01*
X119051685Y-84047384D01*
X119219045Y-84143439D01*
X119348087Y-84203196D01*
X119382423Y-84213777D01*
X119498908Y-84249804D01*
X119642479Y-84305431D01*
X119693979Y-84327979D01*
X119849667Y-84382634D01*
X120032916Y-84424830D01*
X120117370Y-84436721D01*
X120251298Y-84456006D01*
X120347915Y-84480744D01*
X120379173Y-84498430D01*
X120437094Y-84524769D01*
X120566925Y-84549217D01*
X120756207Y-84571401D01*
X120992479Y-84590951D01*
X121263280Y-84607493D01*
X121556149Y-84620656D01*
X121858627Y-84630066D01*
X122158251Y-84635352D01*
X122442562Y-84636142D01*
X122699099Y-84632062D01*
X122915401Y-84622742D01*
X123079007Y-84607809D01*
X123177458Y-84586890D01*
X123187548Y-84582327D01*
X123260291Y-84557493D01*
X123396006Y-84523123D01*
X123574502Y-84483979D01*
X123752470Y-84449080D01*
X123974437Y-84404539D01*
X124193299Y-84354851D01*
X124379734Y-84306964D01*
X124478822Y-84277026D01*
X124615767Y-84233075D01*
X124722932Y-84203201D01*
X124768952Y-84194684D01*
X124836632Y-84175112D01*
X124951433Y-84125044D01*
X125088143Y-84057451D01*
X125221554Y-83985308D01*
X125326458Y-83921587D01*
X125375249Y-83882684D01*
X125429536Y-83835398D01*
X125529451Y-83763205D01*
X125652413Y-83680781D01*
X125775841Y-83602804D01*
X125877153Y-83543951D01*
X125933768Y-83518897D01*
X125935121Y-83518792D01*
X125997067Y-83487465D01*
X126089418Y-83409343D01*
X126191853Y-83305065D01*
X126284048Y-83195270D01*
X126344391Y-83103172D01*
X126407037Y-82966506D01*
X126455922Y-82824808D01*
X126493076Y-82664457D01*
X126520531Y-82471833D01*
X126540319Y-82233314D01*
X126554472Y-81935278D01*
X126563337Y-81635276D01*
X126568491Y-81222118D01*
X126564599Y-80803256D01*
X126552431Y-80393421D01*
X126532755Y-80007344D01*
X126506340Y-79659757D01*
X126473955Y-79365392D01*
X126436368Y-79138980D01*
X126432036Y-79119240D01*
X126399222Y-78952553D01*
X126364283Y-78740490D01*
X126333438Y-78521649D01*
X126326013Y-78461286D01*
X126295794Y-78262027D01*
X126255496Y-78072045D01*
X126212174Y-77922805D01*
X126196446Y-77883451D01*
X126147418Y-77769737D01*
X126117707Y-77689077D01*
X126113621Y-77670453D01*
X126097121Y-77616267D01*
X126055539Y-77516240D01*
X126033425Y-77467723D01*
X125978504Y-77350250D01*
X125901506Y-77185566D01*
X125816097Y-77002897D01*
X125785538Y-76937541D01*
X125692626Y-76745561D01*
X125593782Y-76552051D01*
X125506649Y-76391289D01*
X125485999Y-76355535D01*
X125416232Y-76230926D01*
X125368438Y-76133302D01*
X125354152Y-76090122D01*
X125323146Y-76012339D01*
X125233224Y-75884968D01*
X125089039Y-75713924D01*
X124895238Y-75505122D01*
X124890033Y-75499713D01*
X124710444Y-75330105D01*
X124498959Y-75156764D01*
X124274419Y-74992790D01*
X124055664Y-74851283D01*
X123861537Y-74745342D01*
X123729734Y-74692976D01*
X123598831Y-74643105D01*
X123490727Y-74581372D01*
X123475376Y-74569009D01*
X123346295Y-74487956D01*
X123150058Y-74406378D01*
X122903781Y-74328087D01*
X122624584Y-74256894D01*
X122329584Y-74196611D01*
X122035898Y-74151050D01*
X121760644Y-74124022D01*
X121520940Y-74119339D01*
X121468458Y-74122115D01*
X120986279Y-74164511D01*
X120570532Y-74219969D01*
X120203767Y-74292352D01*
X119868533Y-74385529D01*
X119547380Y-74503364D01*
X119341694Y-74593264D01*
X118965832Y-74774658D01*
X118658413Y-74941428D01*
X118406637Y-75101762D01*
X118197707Y-75263853D01*
X118018822Y-75435892D01*
X118009706Y-75445692D01*
X117860520Y-75613574D01*
X117706473Y-75798274D01*
X117557501Y-75986525D01*
X117423539Y-76165059D01*
X117314524Y-76320610D01*
X117240392Y-76439910D01*
X117211080Y-76509692D01*
X117210963Y-76512205D01*
X117180320Y-76566765D01*
X117134149Y-76608155D01*
X117063689Y-76680333D01*
X116988030Y-76803518D01*
X116902213Y-76987367D01*
X116801281Y-77241537D01*
X116780873Y-77296179D01*
X116660657Y-77627086D01*
X116569266Y-77895665D01*
X116502361Y-78117184D01*
X116455603Y-78306910D01*
X116424653Y-78480112D01*
X116409885Y-78601523D01*
X116400113Y-78769440D01*
X116397978Y-78984499D01*
X116219834Y-78984499D01*
X116219872Y-78879089D01*
X116221131Y-78613588D01*
X116224558Y-78406418D01*
X116231182Y-78244550D01*
X116242029Y-78114956D01*
X116258129Y-78004610D01*
X116280511Y-77900483D01*
X116310201Y-77789548D01*
X116340614Y-77684731D01*
X116469359Y-77289900D01*
X116622356Y-76909503D01*
X116812436Y-76513245D01*
X116934175Y-76283555D01*
X117043150Y-76095971D01*
X117155970Y-75933300D01*
X117290724Y-75772861D01*
X117465497Y-75591977D01*
X117556704Y-75502990D01*
X117724646Y-75342570D01*
X117885187Y-75191921D01*
X118021409Y-75066745D01*
X118116394Y-74982746D01*
X118124937Y-74975581D01*
X118228998Y-74887663D01*
X118311530Y-74815219D01*
X118331909Y-74796262D01*
X118390936Y-74751044D01*
X118411731Y-74743521D01*
X118457416Y-74726390D01*
X118563773Y-74679623D01*
X118715425Y-74610161D01*
X118896998Y-74524942D01*
X118916062Y-74515890D01*
X119108559Y-74425743D01*
X119281388Y-74347262D01*
X119415965Y-74288726D01*
X119493701Y-74258416D01*
X119494921Y-74258041D01*
X119608303Y-74218919D01*
X119721428Y-74174385D01*
X119879331Y-74118856D01*
X120096130Y-74057733D01*
X120347128Y-73996950D01*
X120607627Y-73942438D01*
X120852928Y-73900130D01*
X120879074Y-73896312D01*
X121070559Y-73877773D01*
X121303238Y-73868605D01*
X121556793Y-73868145D01*
X121810907Y-73875731D01*
X122045263Y-73890702D01*
X122239546Y-73912395D01*
X122373437Y-73940149D01*
X122388966Y-73945511D01*
X122488145Y-73975783D01*
X122638963Y-74013483D01*
X122810058Y-74050813D01*
X122822591Y-74053332D01*
X123152834Y-74136116D01*
X123454488Y-74244003D01*
X123702411Y-74367681D01*
X123746170Y-74395370D01*
X123845515Y-74455510D01*
X123916840Y-74488319D01*
X123927909Y-74490365D01*
X123979289Y-74512660D01*
X124079510Y-74571566D01*
X124208414Y-74655115D01*
X124229934Y-74669684D01*
X124419363Y-74796783D01*
X124553460Y-74881421D01*
X124645042Y-74930897D01*
X124706929Y-74952511D01*
X124731238Y-74955159D01*
X124795560Y-74983983D01*
X124889824Y-75054949D01*
X124988793Y-75146353D01*
X125067234Y-75236491D01*
X125079900Y-75255047D01*
X125157436Y-75370665D01*
X125268493Y-75527962D01*
X125395069Y-75701790D01*
X125498963Y-75840531D01*
X125575978Y-75954789D01*
X125670322Y-76114019D01*
X125773304Y-76301110D01*
X125876235Y-76498953D01*
X125970425Y-76690439D01*
X126047184Y-76858457D01*
X126097823Y-76985899D01*
X126113881Y-77051256D01*
X126132459Y-77108497D01*
X126177350Y-77202295D01*
X126182424Y-77211794D01*
X126248600Y-77359151D01*
X126322760Y-77562974D01*
X126396898Y-77796874D01*
X126463011Y-78034459D01*
X126513096Y-78249339D01*
X126534329Y-78372093D01*
X126557112Y-78536707D01*
X126587653Y-78750103D01*
X126620965Y-78977647D01*
X126637621Y-79089369D01*
X126684185Y-79443303D01*
X126728021Y-79861419D01*
X126767342Y-80323518D01*
X126800358Y-80809402D01*
X126816921Y-81114618D01*
X126822631Y-81407514D01*
X126814196Y-81726374D01*
X126793430Y-82054058D01*
X126762144Y-82373421D01*
X126722152Y-82667322D01*
X126675265Y-82918618D01*
X126623295Y-83110166D01*
X126599556Y-83170511D01*
X126454556Y-83427256D01*
X126261726Y-83658417D01*
X126011527Y-83872403D01*
X125694419Y-84077625D01*
X125383536Y-84242428D01*
X125235392Y-84319292D01*
X125151593Y-84375634D01*
X125118507Y-84423192D01*
X125120930Y-84468559D01*
X125142628Y-84562443D01*
X125174420Y-84724408D01*
X125213729Y-84939106D01*
X125257972Y-85191191D01*
X125304572Y-85465314D01*
X125350947Y-85746131D01*
X125394519Y-86018291D01*
X125432706Y-86266450D01*
X125462930Y-86475259D01*
X125479164Y-86599668D01*
X125506856Y-86864153D01*
X125528483Y-87138255D01*
X125543442Y-87405389D01*
X125551130Y-87648969D01*
X125550945Y-87852408D01*
X125542282Y-87999122D01*
X125532094Y-88055315D01*
X125491347Y-88144783D01*
X125422745Y-88175233D01*
X125360714Y-88175672D01*
X125268083Y-88180185D01*
X125232524Y-88220287D01*
X125227574Y-88285813D01*
X125236799Y-88466373D01*
X125261389Y-88628300D01*
X125296723Y-88750202D01*
X125338175Y-88810684D01*
X125341322Y-88812117D01*
X125410639Y-88815688D01*
X125536152Y-88803223D01*
X125691771Y-88777402D01*
X125705108Y-88774766D01*
X125867428Y-88751701D01*
X126107826Y-88731126D01*
X126420025Y-88713193D01*
X126797751Y-88698050D01*
X127234728Y-88685847D01*
X127724680Y-88676733D01*
X128261333Y-88670859D01*
X128838409Y-88668373D01*
X129449635Y-88669424D01*
X129974252Y-88673053D01*
X130648447Y-88678687D01*
X131246627Y-88682270D01*
X131777145Y-88683576D01*
X132248352Y-88682378D01*
X132668600Y-88678450D01*
X133046239Y-88671567D01*
X133389623Y-88661501D01*
X133707101Y-88648027D01*
X134007026Y-88630918D01*
X134297750Y-88609948D01*
X134587623Y-88584891D01*
X134884997Y-88555520D01*
X135079568Y-88534742D01*
X135305804Y-88511922D01*
X135568069Y-88488336D01*
X135818161Y-88468262D01*
X135875399Y-88464134D01*
X136291497Y-88435050D01*
X136299880Y-88292377D01*
X136587820Y-88292377D01*
X136588078Y-88422302D01*
X136599141Y-88498243D01*
X136601901Y-88503834D01*
X136635738Y-88518238D01*
X136718890Y-88524391D01*
X136857995Y-88522004D01*
X137059692Y-88510790D01*
X137330619Y-88490459D01*
X137677414Y-88460723D01*
X137755583Y-88453701D01*
X137945209Y-88440661D01*
X138195262Y-88429418D01*
X138481791Y-88420731D01*
X138780843Y-88415357D01*
X139010816Y-88413953D01*
X139262704Y-88412938D01*
X139482992Y-88410110D01*
X139508583Y-88409482D01*
X140270484Y-88409482D01*
X140271081Y-88422798D01*
X140318290Y-88431409D01*
X140430992Y-88440089D01*
X140590306Y-88447615D01*
X140711708Y-88451353D01*
X141134219Y-88461794D01*
X141134219Y-88254631D01*
X141131458Y-88067897D01*
X141123939Y-87858043D01*
X141112807Y-87641431D01*
X141099208Y-87434424D01*
X141084287Y-87253385D01*
X141069189Y-87114678D01*
X141055060Y-87034666D01*
X141047911Y-87021594D01*
X141019520Y-87056009D01*
X140960273Y-87148426D01*
X140879429Y-87282608D01*
X140786246Y-87442319D01*
X140689985Y-87611319D01*
X140599904Y-87773372D01*
X140525262Y-87912240D01*
X140475317Y-88011685D01*
X140459136Y-88054141D01*
X140438512Y-88101140D01*
X140386372Y-88192291D01*
X140356051Y-88241386D01*
X140298387Y-88341945D01*
X140270484Y-88409482D01*
X139508583Y-88409482D01*
X139658829Y-88405795D01*
X139777367Y-88400319D01*
X139825757Y-88394006D01*
X139826245Y-88393289D01*
X139805003Y-88350747D01*
X139748371Y-88255233D01*
X139666998Y-88124498D01*
X139633408Y-88071778D01*
X139538234Y-87918041D01*
X139457549Y-87778216D01*
X139405612Y-87677275D01*
X139398623Y-87660601D01*
X139349072Y-87539275D01*
X139297599Y-87423059D01*
X139241285Y-87281608D01*
X139174892Y-87084455D01*
X139106387Y-86858331D01*
X139043738Y-86629964D01*
X138994913Y-86426086D01*
X138982976Y-86367608D01*
X138943758Y-86173331D01*
X138898167Y-85961458D01*
X138875456Y-85861295D01*
X138839899Y-85680467D01*
X138813086Y-85493350D01*
X138804521Y-85398350D01*
X138802701Y-85268321D01*
X138820223Y-85200663D01*
X138862704Y-85174485D01*
X138864854Y-85174035D01*
X138930798Y-85195180D01*
X138955629Y-85257246D01*
X138996310Y-85461608D01*
X139039985Y-85662718D01*
X139082247Y-85842121D01*
X139118688Y-85981363D01*
X139144899Y-86061988D01*
X139150305Y-86072259D01*
X139177437Y-86129700D01*
X139222433Y-86245643D01*
X139276996Y-86398359D01*
X139295306Y-86451993D01*
X139378278Y-86688987D01*
X139472254Y-86942853D01*
X139571575Y-87199790D01*
X139670578Y-87445999D01*
X139763602Y-87667679D01*
X139844988Y-87851029D01*
X139909072Y-87982251D01*
X139949579Y-88046916D01*
X139997309Y-88088533D01*
X140036752Y-88084521D01*
X140089061Y-88025145D01*
X140132924Y-87962531D01*
X140200150Y-87848467D01*
X140282691Y-87685179D01*
X140365835Y-87502305D01*
X140390563Y-87443521D01*
X140471310Y-87252104D01*
X140555025Y-87061674D01*
X140626681Y-86906225D01*
X140642377Y-86873920D01*
X140718008Y-86704759D01*
X140788058Y-86522082D01*
X140811187Y-86451993D01*
X140856955Y-86302635D01*
X140915091Y-86113487D01*
X140973044Y-85925382D01*
X140973290Y-85924585D01*
X141017641Y-85764901D01*
X141046293Y-85613243D01*
X141062158Y-85443744D01*
X141068149Y-85230533D01*
X141068268Y-85080731D01*
X141057350Y-84735670D01*
X141024915Y-84446359D01*
X140965660Y-84185735D01*
X140874280Y-83926735D01*
X140815384Y-83790486D01*
X140755343Y-83660214D01*
X140709424Y-83564471D01*
X140688523Y-83525546D01*
X140649194Y-83537154D01*
X140570047Y-83585313D01*
X140554045Y-83596493D01*
X140365578Y-83714529D01*
X140135725Y-83835215D01*
X139901554Y-83940419D01*
X139710995Y-84008880D01*
X139584338Y-84050956D01*
X139494667Y-84089898D01*
X139468518Y-84108826D01*
X139418212Y-84137452D01*
X139312354Y-84173210D01*
X139225130Y-84196020D01*
X139086572Y-84231932D01*
X138975231Y-84266750D01*
X138935859Y-84282807D01*
X138866731Y-84303717D01*
X138735735Y-84331698D01*
X138564609Y-84362379D01*
X138450643Y-84380424D01*
X138247721Y-84414848D01*
X138054260Y-84454374D01*
X137900132Y-84492633D01*
X137848432Y-84508840D01*
X137684051Y-84547136D01*
X137462663Y-84569678D01*
X137292126Y-84574418D01*
X137109688Y-84579023D01*
X136948183Y-84591284D01*
X136834766Y-84608874D01*
X136812215Y-84615567D01*
X136761945Y-84638380D01*
X136730289Y-84672100D01*
X136712947Y-84734242D01*
X136705619Y-84842319D01*
X136704003Y-85013842D01*
X136703986Y-85056278D01*
X136703986Y-85455841D01*
X136902907Y-85468701D01*
X137028740Y-85484224D01*
X137113585Y-85523870D01*
X137192377Y-85607898D01*
X137229901Y-85658302D01*
X137317234Y-85757483D01*
X137403815Y-85822843D01*
X137472187Y-85845132D01*
X137504890Y-85815099D01*
X137505647Y-85804414D01*
X137540542Y-85766799D01*
X137628273Y-85714584D01*
X137671733Y-85693736D01*
X137808550Y-85647558D01*
X137954899Y-85637714D01*
X138073447Y-85648281D01*
X138209699Y-85668979D01*
X138291943Y-85701555D01*
X138350099Y-85766660D01*
X138412888Y-85882584D01*
X138467838Y-86000942D01*
X138494412Y-86099722D01*
X138497177Y-86212817D01*
X138480702Y-86374119D01*
X138479953Y-86380103D01*
X138433298Y-86636855D01*
X138357174Y-86842621D01*
X138237000Y-87029476D01*
X138126083Y-87158438D01*
X138000063Y-87295100D01*
X137859152Y-87449179D01*
X137717252Y-87605319D01*
X137588271Y-87748165D01*
X137486112Y-87862358D01*
X137424680Y-87932544D01*
X137419048Y-87939286D01*
X137343684Y-87988698D01*
X137246962Y-87972317D01*
X137122524Y-87887297D01*
X136971468Y-87738870D01*
X136859073Y-87621664D01*
X136766894Y-87533245D01*
X136710637Y-87488437D01*
X136703150Y-87485714D01*
X136679840Y-87524588D01*
X136655545Y-87628036D01*
X136632231Y-87776298D01*
X136611862Y-87949615D01*
X136596403Y-88128228D01*
X136587820Y-88292377D01*
X136299880Y-88292377D01*
X136306371Y-88181893D01*
X136339324Y-87599154D01*
X136363804Y-87127076D01*
X136710164Y-87127076D01*
X136959832Y-87348588D01*
X137107448Y-87472879D01*
X137215343Y-87542563D01*
X137301515Y-87564593D01*
X137383963Y-87545921D01*
X137422444Y-87527274D01*
X137492793Y-87468545D01*
X137581881Y-87367243D01*
X137627841Y-87305762D01*
X137731172Y-87168488D01*
X137856504Y-87015378D01*
X137924848Y-86937209D01*
X138070922Y-86753620D01*
X138145848Y-86600232D01*
X138152621Y-86466948D01*
X138098986Y-86350220D01*
X138002397Y-86234401D01*
X137890670Y-86125395D01*
X137887216Y-86122470D01*
X137814425Y-86050298D01*
X137786618Y-85999737D01*
X137789272Y-85992566D01*
X137798637Y-85967687D01*
X137758446Y-85974014D01*
X137694499Y-86004770D01*
X137663870Y-86025511D01*
X137603337Y-86107986D01*
X137590033Y-86166678D01*
X137556737Y-86269569D01*
X137475129Y-86328805D01*
X137389077Y-86328592D01*
X137322522Y-86276215D01*
X137254474Y-86176940D01*
X137239073Y-86145787D01*
X137162618Y-86011411D01*
X137062304Y-85879776D01*
X136955291Y-85768927D01*
X136858743Y-85696905D01*
X136796027Y-85679980D01*
X136769829Y-85693230D01*
X136750616Y-85729230D01*
X136737131Y-85799708D01*
X136728114Y-85916390D01*
X136722306Y-86091005D01*
X136718448Y-86335278D01*
X136717623Y-86410341D01*
X136710164Y-87127076D01*
X136363804Y-87127076D01*
X136367585Y-87054173D01*
X136391004Y-86552152D01*
X136409430Y-86098293D01*
X136422711Y-85697796D01*
X136430698Y-85355864D01*
X136433238Y-85077697D01*
X136430181Y-84868498D01*
X136421376Y-84733467D01*
X136408024Y-84679161D01*
X136355180Y-84646249D01*
X136253783Y-84626421D01*
X136089557Y-84617574D01*
X135983127Y-84616611D01*
X135699216Y-84603823D01*
X135473166Y-84563407D01*
X135387048Y-84536404D01*
X135241510Y-84486563D01*
X135112569Y-84446557D01*
X135058471Y-84432200D01*
X134980504Y-84393467D01*
X134861749Y-84310962D01*
X134721375Y-84200289D01*
X134578554Y-84077053D01*
X134452457Y-83956858D01*
X134386103Y-83884893D01*
X134315039Y-83802338D01*
X134223006Y-83696761D01*
X134202965Y-83673930D01*
X134120044Y-83569357D01*
X134005997Y-83411905D01*
X133873659Y-83220725D01*
X133735866Y-83014968D01*
X133605452Y-82813786D01*
X133495252Y-82636329D01*
X133420877Y-82506977D01*
X133357287Y-82377961D01*
X133277601Y-82202466D01*
X133196295Y-82012661D01*
X133174049Y-81958472D01*
X133101871Y-81782054D01*
X133034940Y-81621012D01*
X132984297Y-81501823D01*
X132971729Y-81473256D01*
X132917152Y-81327449D01*
X132854844Y-81123285D01*
X132791096Y-80885615D01*
X132732200Y-80639295D01*
X132684447Y-80409177D01*
X132654129Y-80220115D01*
X132653782Y-80217238D01*
X132603340Y-79791424D01*
X132563331Y-79438982D01*
X132533096Y-79149631D01*
X132511979Y-78913088D01*
X132511093Y-78899501D01*
X132773571Y-78899501D01*
X132775684Y-79250812D01*
X132786450Y-79542607D01*
X132808887Y-79799568D01*
X132846011Y-80046376D01*
X132900841Y-80307713D01*
X132976393Y-80608260D01*
X132987627Y-80650498D01*
X133018186Y-80775687D01*
X133054635Y-80939908D01*
X133077634Y-81050890D01*
X133130747Y-81236125D01*
X133222552Y-81472407D01*
X133343889Y-81741274D01*
X133485602Y-82024266D01*
X133638533Y-82302920D01*
X133793525Y-82558776D01*
X133912833Y-82734620D01*
X134019154Y-82884713D01*
X134124616Y-83038702D01*
X134179108Y-83121194D01*
X134276613Y-83252899D01*
X134414355Y-83413343D01*
X134577873Y-83588279D01*
X134752707Y-83763465D01*
X134924394Y-83924655D01*
X135078474Y-84057605D01*
X135200486Y-84148070D01*
X135248339Y-84174409D01*
X135409508Y-84240073D01*
X135551859Y-84287975D01*
X135692882Y-84320322D01*
X135850069Y-84339321D01*
X136040913Y-84347177D01*
X136282905Y-84346096D01*
X136556312Y-84339382D01*
X136810142Y-84331730D01*
X137042678Y-84324225D01*
X137237489Y-84317437D01*
X137378148Y-84311934D01*
X137442358Y-84308724D01*
X137545231Y-84275963D01*
X137608931Y-84189786D01*
X137635204Y-84043396D01*
X137625798Y-83829995D01*
X137605078Y-83675370D01*
X137550447Y-83365709D01*
X137496073Y-83137891D01*
X137441246Y-82989377D01*
X137394907Y-82924539D01*
X137342903Y-82858514D01*
X137333831Y-82828804D01*
X137301872Y-82774640D01*
X137225209Y-82695089D01*
X137188577Y-82663159D01*
X137046371Y-82545088D01*
X136697888Y-82715899D01*
X136531920Y-82792147D01*
X136384331Y-82850848D01*
X136278291Y-82883146D01*
X136251040Y-82886711D01*
X136134254Y-82861977D01*
X135980262Y-82797304D01*
X135816510Y-82706984D01*
X135670444Y-82605312D01*
X135611645Y-82553733D01*
X135464665Y-82367036D01*
X135337091Y-82125312D01*
X135238814Y-81856290D01*
X135202965Y-81693338D01*
X135438206Y-81693338D01*
X135449593Y-81860172D01*
X135492808Y-82000648D01*
X135570750Y-82143672D01*
X135676155Y-82299949D01*
X135781279Y-82411093D01*
X135917927Y-82507434D01*
X136005173Y-82557949D01*
X136099592Y-82604181D01*
X136186066Y-82624071D01*
X136285061Y-82615463D01*
X136417043Y-82576200D01*
X136540866Y-82528073D01*
X137386208Y-82528073D01*
X137547376Y-82802516D01*
X137660747Y-83047669D01*
X137751977Y-83348328D01*
X137814662Y-83677094D01*
X137842398Y-84006566D01*
X137843189Y-84068125D01*
X137844300Y-84166505D01*
X137856352Y-84231562D01*
X137892423Y-84266258D01*
X137965593Y-84273555D01*
X138088941Y-84256415D01*
X138275546Y-84217801D01*
X138391912Y-84192402D01*
X138605448Y-84142590D01*
X138825256Y-84086085D01*
X139012896Y-84032906D01*
X139059337Y-84018400D01*
X139329664Y-83931067D01*
X139310666Y-83733351D01*
X139249541Y-83473171D01*
X139113926Y-83209451D01*
X138900387Y-82936043D01*
X138813621Y-82844060D01*
X138568606Y-82612025D01*
X138339466Y-82436167D01*
X138101976Y-82298414D01*
X138045869Y-82271271D01*
X137943437Y-82227711D01*
X137875072Y-82224768D01*
X137800052Y-82266946D01*
X137750520Y-82303936D01*
X137629808Y-82388936D01*
X137514128Y-82460495D01*
X137498668Y-82468893D01*
X137386208Y-82528073D01*
X136540866Y-82528073D01*
X136602480Y-82504125D01*
X136632537Y-82491841D01*
X136805426Y-82423337D01*
X136963086Y-82365012D01*
X137078661Y-82326675D01*
X137102680Y-82320155D01*
X137225319Y-82265620D01*
X137315970Y-82194314D01*
X137400232Y-82112327D01*
X137466490Y-82060103D01*
X137531300Y-82004360D01*
X137617385Y-81912311D01*
X137643483Y-81881397D01*
X137737414Y-81706067D01*
X137757206Y-81513268D01*
X137704755Y-81322126D01*
X137581957Y-81151768D01*
X137570006Y-81140401D01*
X137451867Y-81076277D01*
X137265699Y-81031905D01*
X137025836Y-81008674D01*
X136746613Y-81007975D01*
X136443215Y-81031101D01*
X136109672Y-81080308D01*
X135852376Y-81145824D01*
X135663969Y-81232496D01*
X135537095Y-81345172D01*
X135464396Y-81488700D01*
X135438515Y-81667927D01*
X135438206Y-81693338D01*
X135202965Y-81693338D01*
X135179726Y-81587703D01*
X135169718Y-81347280D01*
X135172254Y-81321900D01*
X135187475Y-81209771D01*
X135211817Y-81134828D01*
X135261832Y-81079470D01*
X135354069Y-81026094D01*
X135505079Y-80957099D01*
X135522591Y-80949312D01*
X135605154Y-80914675D01*
X135685175Y-80888412D01*
X135776271Y-80869076D01*
X135892061Y-80855219D01*
X136046163Y-80845395D01*
X136252195Y-80838156D01*
X136523774Y-80832055D01*
X136648010Y-80829716D01*
X137541368Y-80813334D01*
X137710267Y-80974524D01*
X137851430Y-81158777D01*
X137955373Y-81393849D01*
X138011406Y-81650452D01*
X138017064Y-81815091D01*
X138017112Y-81912349D01*
X138039155Y-81981106D01*
X138098768Y-82045032D01*
X138211526Y-82127800D01*
X138232216Y-82142085D01*
X138353253Y-82221730D01*
X138448080Y-82277346D01*
X138492862Y-82296013D01*
X138550184Y-82324599D01*
X138648535Y-82400340D01*
X138771896Y-82508211D01*
X138904247Y-82633187D01*
X139029569Y-82760242D01*
X139131842Y-82874352D01*
X139186618Y-82946713D01*
X139257166Y-83051662D01*
X139310451Y-83123821D01*
X139325193Y-83139867D01*
X139362134Y-83192899D01*
X139417401Y-83297193D01*
X139478376Y-83425500D01*
X139532440Y-83550575D01*
X139566977Y-83645172D01*
X139573089Y-83675172D01*
X139602456Y-83719734D01*
X139684558Y-83712704D01*
X139810396Y-83660021D01*
X139970971Y-83567623D01*
X140157286Y-83441449D01*
X140360341Y-83287440D01*
X140571138Y-83111534D01*
X140780679Y-82919670D01*
X140905679Y-82795651D01*
X141159061Y-82528548D01*
X141362668Y-82295109D01*
X141531791Y-82075260D01*
X141681717Y-81848928D01*
X141827736Y-81596038D01*
X141848592Y-81557641D01*
X141936072Y-81399631D01*
X142014382Y-81265378D01*
X142071084Y-81175936D01*
X142085450Y-81156810D01*
X142133396Y-81072798D01*
X142192473Y-80927334D01*
X142255520Y-80741348D01*
X142315376Y-80535767D01*
X142359749Y-80355149D01*
X142403054Y-80175119D01*
X142453486Y-79987309D01*
X142474724Y-79915029D01*
X142500642Y-79800058D01*
X142519748Y-79641031D01*
X142532773Y-79427109D01*
X142540449Y-79147454D01*
X142543056Y-78902404D01*
X142547674Y-78097840D01*
X142405298Y-77675913D01*
X142342973Y-77497486D01*
X142286887Y-77348221D01*
X142244311Y-77246852D01*
X142225979Y-77213903D01*
X142191568Y-77137503D01*
X142189036Y-77112508D01*
X142171851Y-77045384D01*
X142126762Y-76927951D01*
X142063473Y-76785442D01*
X142062458Y-76783292D01*
X141999539Y-76645952D01*
X141954193Y-76539012D01*
X141935831Y-76484722D01*
X141935790Y-76483857D01*
X141914913Y-76420727D01*
X141859003Y-76303991D01*
X141777875Y-76151524D01*
X141681345Y-75981201D01*
X141579229Y-75810895D01*
X141487828Y-75668157D01*
X141275789Y-75393583D01*
X141012964Y-75119514D01*
X140728049Y-74874812D01*
X140621009Y-74796262D01*
X140510636Y-74721692D01*
X140430464Y-74671889D01*
X140403419Y-74659136D01*
X140360939Y-74637537D01*
X140266276Y-74580089D01*
X140137416Y-74497821D01*
X140093871Y-74469354D01*
X139955583Y-74381311D01*
X139843072Y-74314949D01*
X139775589Y-74281455D01*
X139767172Y-74279487D01*
X139711334Y-74262742D01*
X139604523Y-74219307D01*
X139492920Y-74169188D01*
X139331027Y-74093730D01*
X139170153Y-74018840D01*
X139087873Y-73980588D01*
X138875338Y-73908273D01*
X138595909Y-73852911D01*
X138265396Y-73814687D01*
X137899607Y-73793784D01*
X137514350Y-73790384D01*
X137125435Y-73804672D01*
X136748669Y-73836829D01*
X136399862Y-73887040D01*
X136128614Y-73946299D01*
X135945870Y-73994117D01*
X135771339Y-74038859D01*
X135639561Y-74071682D01*
X135628073Y-74074445D01*
X135474370Y-74126717D01*
X135324648Y-74200407D01*
X135311628Y-74208429D01*
X135184024Y-74285666D01*
X135063153Y-74353269D01*
X135047923Y-74361161D01*
X134966439Y-74412811D01*
X134931902Y-74454877D01*
X134931893Y-74455302D01*
X134899521Y-74489326D01*
X134889223Y-74490365D01*
X134819364Y-74516701D01*
X134702875Y-74587783D01*
X134555686Y-74691727D01*
X134393726Y-74816646D01*
X134232925Y-74950654D01*
X134089212Y-75081867D01*
X134066168Y-75104490D01*
X133921821Y-75258319D01*
X133780643Y-75425718D01*
X133670175Y-75573781D01*
X133658386Y-75591625D01*
X133551823Y-75756743D01*
X133438307Y-75932898D01*
X133377697Y-76027084D01*
X133305487Y-76146140D01*
X133257006Y-76238994D01*
X133244186Y-76276918D01*
X133219104Y-76340794D01*
X133186725Y-76385714D01*
X133120241Y-76498945D01*
X133053346Y-76686297D01*
X132985225Y-76950708D01*
X132915060Y-77295118D01*
X132881044Y-77486046D01*
X132839219Y-77747706D01*
X132809556Y-77983853D01*
X132790108Y-78220078D01*
X132778930Y-78481976D01*
X132774075Y-78795138D01*
X132773571Y-78899501D01*
X132511093Y-78899501D01*
X132499321Y-78719073D01*
X132494466Y-78557303D01*
X132496756Y-78417497D01*
X132505534Y-78289373D01*
X132520142Y-78162650D01*
X132521689Y-78151195D01*
X132570703Y-77817804D01*
X132621729Y-77518125D01*
X132672218Y-77265049D01*
X132719618Y-77071470D01*
X132757589Y-76958638D01*
X132806861Y-76832447D01*
X132840644Y-76726578D01*
X132889876Y-76569314D01*
X132961426Y-76375961D01*
X133043338Y-76175761D01*
X133123653Y-75997958D01*
X133189661Y-75873014D01*
X133249091Y-75767514D01*
X133283195Y-75689939D01*
X133286378Y-75674243D01*
X133313459Y-75615349D01*
X133361637Y-75557374D01*
X133420249Y-75495182D01*
X133519329Y-75386608D01*
X133643535Y-75248562D01*
X133741657Y-75138445D01*
X133901936Y-74970612D01*
X134079277Y-74805078D01*
X134246009Y-74666940D01*
X134320386Y-74613566D01*
X134449819Y-74524221D01*
X134546277Y-74450723D01*
X134592595Y-74406345D01*
X134594352Y-74401741D01*
X134629924Y-74372265D01*
X134726654Y-74314822D01*
X134869565Y-74237834D01*
X135035112Y-74153940D01*
X135575450Y-73927705D01*
X136153996Y-73764676D01*
X136779414Y-73662791D01*
X137252491Y-73626627D01*
X137825510Y-73617732D01*
X138338450Y-73647520D01*
G37*
D13*
X123900000Y-58100000D02*
X124500000Y-58100000D01*
X123900000Y-59300000D02*
X124500000Y-59300000D01*
X121100000Y-45400000D02*
X120500000Y-45400000D01*
X121100000Y-46600000D02*
X120500000Y-46600000D01*
X121100000Y-49400000D02*
X120500000Y-49400000D01*
X121100000Y-50600000D02*
X120500000Y-50600000D01*
X120400000Y-58100000D02*
X121000000Y-58100000D01*
X120400000Y-59300000D02*
X121000000Y-59300000D01*
M02*
