M48
; DRILL file {KiCad 8.0.1} date 2024-05-20T02:42:45-0500
; FORMAT={-:-/ absolute / inch / decimal}
; #@! TF.CreationDate,2024-05-20T02:42:45-05:00
; #@! TF.GenerationSoftware,Kicad,Pcbnew,8.0.1
; #@! TF.FileFunction,Plated,1,2,PTH
FMAT,2
INCH
; #@! TA.AperFunction,Plated,PTH,ViaDrill
T1C0.0157
; #@! TA.AperFunction,Plated,PTH,ComponentDrill
T2C0.0300
; #@! TA.AperFunction,Plated,PTH,ComponentDrill
T3C0.0400
; #@! TA.AperFunction,Plated,PTH,ViaDrill
T4C0.0787
%
G90
G05
T1
X4.6212Y-3.67
X4.6666Y-1.9349
X4.6699Y-2.0603
X4.6799Y-1.8063
X4.7756Y-1.7579
X4.7831Y-2.2543
X4.9252Y-2.2637
X5.3893Y-1.6908
X5.4133Y-1.7543
X5.4307Y-2.9866
X5.4965Y-1.7963
X5.5682Y-3.675
T2
X5.1247Y-2.4706
X5.1847Y-2.4706
X5.2822Y-2.4706
X5.3422Y-2.4706
T3
X5.5563Y-1.8903
X5.5563Y-2.0903
X5.5591Y-2.2031
X5.5591Y-2.4031
T4
X4.7742Y-2.861
X5.4488Y-2.8622
M30
