M48
; DRILL file {KiCad 8.0.1} date 2024-05-29T02:23:16-0500
; FORMAT={-:-/ absolute / inch / decimal}
; #@! TF.CreationDate,2024-05-29T02:23:16-05:00
; #@! TF.GenerationSoftware,Kicad,Pcbnew,8.0.1
; #@! TF.FileFunction,Plated,1,2,PTH
FMAT,2
INCH
; #@! TA.AperFunction,Plated,PTH,ViaDrill
T1C0.0157
; #@! TA.AperFunction,Plated,PTH,ComponentDrill
T2C0.0400
; #@! TA.AperFunction,Plated,PTH,ViaDrill
T3C0.0787
%
G90
G05
T1
X4.6212Y-3.67
X4.6293Y-2.2828
X4.6339Y-2.4528
X4.6729Y-2.2805
X4.6809Y-1.8027
X4.7008Y-1.7638
X4.7014Y-2.2295
X4.7874Y-1.7638
X4.838Y-1.9239
X4.8423Y-1.839
X4.9372Y-2.2632
X5.1535Y-2.6181
X5.3825Y-1.7028
X5.4003Y-2.2575
X5.4037Y-1.7508
X5.4173Y-2.2008
X5.4286Y-2.0195
X5.4291Y-2.3898
X5.5499Y-1.7976
X5.5682Y-3.675
T2
X4.9693Y-2.5
X5.0693Y-2.5
X5.1693Y-2.5
X5.2693Y-2.5
X5.5591Y-1.8819
X5.5591Y-2.0819
X5.5591Y-2.2031
X5.5591Y-2.4031
T3
X4.7742Y-2.861
X5.4488Y-2.8622
M30
